RiseStarHandRegular.ufo
<glyph name="exclam" format="1">
  <advance width="185"/>
  <unicode hex="0021"/>
  <outline>
    <contour>
      <point x="70" y="85" type="qcurve"/>
      <point x="64" y="90"/>
      <point x="62" y="106"/>
      <point x="67" y="113" type="qcurve"/>
      <point x="72" y="119"/>
      <point x="82" y="120" type="qcurve"/>
      <point x="86" y="131" type="line"/>
      <point x="90" y="139"/>
      <point x="105" y="145"/>
      <point x="120" y="138"/>
      <point x="126" y="123"/>
      <point x="123" y="115" type="qcurve"/>
      <point x="117" y="102" type="line"/>
      <point x="117" y="101"/>
      <point x="116" y="100" type="qcurve"/>
      <point x="129" y="89"/>
      <point x="135" y="81" type="qcurve"/>
      <point x="150" y="63"/>
      <point x="139" y="39" type="qcurve"/>
      <point x="130" y="20"/>
      <point x="111" y="13" type="qcurve"/>
      <point x="97" y="8"/>
      <point x="73" y="23"/>
      <point x="69" y="36" type="qcurve"/>
      <point x="64" y="55"/>
      <point x="69" y="81" type="qcurve"/>
      <point x="70" y="82"/>
    </contour>
    <contour>
      <point x="92" y="333" type="qcurve"/>
      <point x="100" y="371"/>
      <point x="107" y="415" type="qcurve"/>
      <point x="115" y="467"/>
      <point x="114" y="505" type="qcurve"/>
      <point x="112" y="541"/>
      <point x="95" y="573" type="qcurve"/>
      <point x="93" y="578"/>
      <point x="90" y="582" type="qcurve"/>
      <point x="87" y="574"/>
      <point x="84" y="565" type="qcurve"/>
      <point x="72" y="526"/>
      <point x="72" y="468" type="qcurve"/>
      <point x="72" y="409"/>
      <point x="89" y="342" type="qcurve"/>
      <point x="90" y="337"/>
    </contour>
    <contour>
      <point x="73" y="254" type="line"/>
      <point x="69" y="266"/>
      <point x="66" y="278" type="qcurve"/>
      <point x="58" y="302"/>
      <point x="51" y="332" type="qcurve"/>
      <point x="32" y="404"/>
      <point x="32" y="468" type="qcurve"/>
      <point x="32" y="532"/>
      <point x="46" y="577" type="qcurve"/>
      <point x="47" y="581"/>
      <point x="52" y="598"/>
      <point x="55" y="605"/>
      <point x="61" y="618"/>
      <point x="66" y="625"/>
      <point x="74" y="632"/>
      <point x="80" y="634" type="qcurve"/>
      <point x="87" y="635"/>
      <point x="96" y="637"/>
      <point x="107" y="629"/>
      <point x="113" y="625"/>
      <point x="121" y="612"/>
      <point x="124" y="606"/>
      <point x="130" y="593"/>
      <point x="131" y="591" type="qcurve"/>
      <point x="151" y="551"/>
      <point x="154" y="507" type="qcurve"/>
      <point x="156" y="464"/>
      <point x="146" y="409" type="qcurve"/>
      <point x="138" y="355"/>
      <point x="127" y="309" type="qcurve"/>
      <point x="123" y="290"/>
      <point x="120" y="277" type="qcurve"/>
      <point x="117" y="264"/>
      <point x="115" y="256" type="qcurve"/>
      <point x="116" y="254"/>
      <point x="117" y="253" type="qcurve"/>
      <point x="120" y="245"/>
      <point x="123" y="238" type="qcurve"/>
      <point x="141" y="200" type="line"/>
      <point x="144" y="193"/>
      <point x="138" y="177"/>
      <point x="123" y="170"/>
      <point x="108" y="176"/>
      <point x="104" y="183" type="qcurve"/>
      <point x="87" y="221" type="line"/>
      <point x="86" y="222"/>
      <point x="85" y="224" type="qcurve"/>
      <point x="77" y="226"/>
      <point x="70" y="241"/>
      <point x="72" y="248" type="qcurve"/>
    </contour>
  </outline>
</glyph>
<glyph name="quotedbl" format="1">
  <advance width="221"/>
  <unicode hex="0022"/>
  <outline>
    <contour>
      <point x="157" y="601" type="qcurve"/>
      <point x="170" y="593" type="line"/>
      <point x="191" y="577"/>
      <point x="189" y="528" type="qcurve"/>
      <point x="187" y="489" type="line"/>
      <point x="187" y="481"/>
      <point x="175" y="470"/>
      <point x="158" y="471"/>
      <point x="147" y="483"/>
      <point x="147" y="491" type="qcurve"/>
      <point x="149" y="530" type="line"/>
      <point x="150" y="553"/>
      <point x="146" y="560" type="qcurve"/>
      <point x="134" y="569" type="line"/>
      <point x="127" y="574"/>
      <point x="124" y="590"/>
      <point x="134" y="603"/>
      <point x="150" y="606"/>
    </contour>
    <contour>
      <point x="103" y="588" type="qcurve"/>
      <point x="100" y="555" type="line"/>
      <point x="97" y="516"/>
      <point x="81" y="493" type="qcurve"/>
      <point x="69" y="474" type="line"/>
      <point x="64" y="468"/>
      <point x="48" y="464"/>
      <point x="34" y="473"/>
      <point x="31" y="490"/>
      <point x="35" y="496" type="qcurve"/>
      <point x="48" y="515" type="line"/>
      <point x="58" y="530"/>
      <point x="60" y="558" type="qcurve"/>
      <point x="63" y="592" type="line"/>
      <point x="64" y="600"/>
      <point x="77" y="611"/>
      <point x="93" y="609"/>
      <point x="104" y="596"/>
    </contour>
  </outline>
</glyph>
<glyph name="numbersign" format="1">
  <advance width="711"/>
  <unicode hex="0023"/>
  <outline>
    <contour>
      <point x="48" y="185" type="qcurve"/>
      <point x="77" y="191" type="line"/>
      <point x="102" y="196"/>
      <point x="199" y="222" type="qcurve"/>
      <point x="199" y="225"/>
      <point x="200" y="228" type="qcurve"/>
      <point x="213" y="289"/>
      <point x="225" y="343" type="qcurve"/>
      <point x="203" y="342"/>
      <point x="183" y="341" type="qcurve"/>
      <point x="95" y="337"/>
      <point x="78" y="336" type="qcurve"/>
      <point x="60" y="335" type="line"/>
      <point x="52" y="335"/>
      <point x="40" y="346"/>
      <point x="39" y="363"/>
      <point x="51" y="375"/>
      <point x="59" y="375" type="qcurve"/>
      <point x="76" y="376" type="line"/>
      <point x="94" y="377"/>
      <point x="181" y="381" type="qcurve"/>
      <point x="206" y="382"/>
      <point x="233" y="384" type="qcurve"/>
      <point x="239" y="409"/>
      <point x="244" y="434" type="qcurve"/>
      <point x="265" y="525"/>
      <point x="276" y="575" type="qcurve"/>
      <point x="288" y="626" type="line"/>
      <point x="290" y="634"/>
      <point x="304" y="642"/>
      <point x="320" y="639"/>
      <point x="329" y="625"/>
      <point x="327" y="617" type="qcurve"/>
      <point x="315" y="566" type="line"/>
      <point x="304" y="516"/>
      <point x="283" y="425" type="qcurve"/>
      <point x="279" y="405"/>
      <point x="275" y="386" type="qcurve"/>
      <point x="313" y="388"/>
      <point x="357" y="391" type="qcurve"/>
      <point x="373" y="462"/>
      <point x="383" y="495" type="qcurve"/>
      <point x="400" y="548"/>
      <point x="404" y="558" type="qcurve"/>
      <point x="408" y="566" type="line"/>
      <point x="412" y="573"/>
      <point x="428" y="579"/>
      <point x="443" y="572"/>
      <point x="448" y="556"/>
      <point x="444" y="549" type="qcurve"/>
      <point x="440" y="540" type="line"/>
      <point x="437" y="533"/>
      <point x="421" y="483" type="qcurve"/>
      <point x="412" y="455"/>
      <point x="399" y="394" type="qcurve"/>
      <point x="400" y="394"/>
      <point x="402" y="394" type="qcurve"/>
      <point x="536" y="403"/>
      <point x="586" y="407" type="qcurve"/>
      <point x="637" y="411" type="line"/>
      <point x="645" y="411"/>
      <point x="657" y="400"/>
      <point x="659" y="384"/>
      <point x="648" y="371"/>
      <point x="639" y="371" type="qcurve"/>
      <point x="589" y="367" type="line"/>
      <point x="539" y="364"/>
      <point x="405" y="354" type="qcurve"/>
      <point x="399" y="354"/>
      <point x="390" y="353" type="qcurve"/>
      <point x="383" y="319"/>
      <point x="375" y="278" type="qcurve"/>
      <point x="374" y="271"/>
      <point x="373" y="264" type="qcurve"/>
      <point x="432" y="277"/>
      <point x="496" y="289" type="qcurve"/>
      <point x="639" y="315"/>
      <point x="648" y="316" type="qcurve"/>
      <point x="657" y="317" type="line"/>
      <point x="665" y="318"/>
      <point x="678" y="308"/>
      <point x="680" y="292"/>
      <point x="670" y="279"/>
      <point x="662" y="278" type="qcurve"/>
      <point x="653" y="276" type="line"/>
      <point x="644" y="275"/>
      <point x="503" y="250" type="qcurve"/>
      <point x="431" y="236"/>
      <point x="364" y="222" type="qcurve"/>
      <point x="343" y="110"/>
      <point x="333" y="62" type="qcurve"/>
      <point x="320" y="3" type="line"/>
      <point x="319" y="-5"/>
      <point x="305" y="-14"/>
      <point x="289" y="-11"/>
      <point x="279" y="3"/>
      <point x="281" y="11" type="qcurve"/>
      <point x="293" y="70" type="line"/>
      <point x="303" y="114"/>
      <point x="322" y="212" type="qcurve"/>
      <point x="279" y="202"/>
      <point x="238" y="191" type="qcurve"/>
      <point x="235" y="190"/>
      <point x="233" y="190" type="qcurve"/>
      <point x="214" y="101"/>
      <point x="210" y="68" type="qcurve"/>
      <point x="206" y="29" type="line"/>
      <point x="205" y="21"/>
      <point x="192" y="11"/>
      <point x="176" y="13"/>
      <point x="165" y="26"/>
      <point x="166" y="34" type="qcurve"/>
      <point x="171" y="73" type="line"/>
      <point x="174" y="104"/>
      <point x="189" y="178" type="qcurve"/>
      <point x="109" y="157"/>
      <point x="85" y="152" type="qcurve"/>
      <point x="56" y="146" type="line"/>
      <point x="48" y="144"/>
      <point x="34" y="154"/>
      <point x="31" y="170"/>
      <point x="40" y="184"/>
    </contour>
    <contour>
      <point x="349" y="351" type="qcurve"/>
      <point x="304" y="348"/>
      <point x="266" y="346" type="qcurve"/>
      <point x="255" y="293"/>
      <point x="242" y="233" type="qcurve"/>
      <point x="285" y="245"/>
      <point x="330" y="255" type="qcurve"/>
      <point x="333" y="272"/>
      <point x="336" y="285" type="qcurve"/>
      <point x="343" y="321"/>
    </contour>
  </outline>
</glyph>
<glyph name="ampersand" format="1">
  <advance width="664"/>
  <unicode hex="0026"/>
  <outline>
    <contour>
      <point x="295" y="124" type="qcurve"/>
      <point x="294" y="126"/>
      <point x="292" y="127" type="qcurve"/>
      <point x="243" y="184"/>
      <point x="188" y="245" type="qcurve"/>
      <point x="151" y="286"/>
      <point x="124" y="317" type="qcurve"/>
      <point x="116" y="306"/>
      <point x="109" y="295" type="qcurve"/>
      <point x="81" y="254"/>
      <point x="81" y="213" type="qcurve"/>
      <point x="81" y="173"/>
      <point x="108" y="143" type="qcurve"/>
      <point x="136" y="113"/>
      <point x="193" y="108" type="qcurve"/>
      <point x="248" y="102"/>
    </contour>
    <contour>
      <point x="124" y="377" type="qcurve"/>
      <point x="140" y="394"/>
      <point x="158" y="409" type="qcurve"/>
      <point x="204" y="448"/>
      <point x="232" y="480" type="qcurve"/>
      <point x="257" y="509"/>
      <point x="266" y="555"/>
      <point x="256" y="583" type="qcurve"/>
      <point x="248" y="608"/>
      <point x="225" y="619" type="qcurve"/>
      <point x="198" y="630"/>
      <point x="169" y="626" type="qcurve"/>
      <point x="140" y="622"/>
      <point x="112" y="595" type="qcurve"/>
      <point x="84" y="568"/>
      <point x="75" y="531" type="qcurve"/>
      <point x="66" y="495"/>
      <point x="82" y="453" type="qcurve"/>
      <point x="96" y="412"/>
    </contour>
    <contour>
      <point x="462" y="321" type="qcurve"/>
      <point x="462" y="306" type="line"/>
      <point x="462" y="290"/>
      <point x="455" y="255" type="qcurve"/>
      <point x="447" y="217"/>
      <point x="414" y="170" type="qcurve"/>
      <point x="392" y="139"/>
      <point x="360" y="116" type="qcurve"/>
      <point x="386" y="94"/>
      <point x="410" y="84" type="qcurve"/>
      <point x="442" y="71"/>
      <point x="478" y="109" type="qcurve"/>
      <point x="519" y="154"/>
      <point x="550" y="249" type="qcurve"/>
      <point x="583" y="347"/>
      <point x="588" y="367" type="qcurve"/>
      <point x="593" y="389" type="line"/>
      <point x="595" y="397"/>
      <point x="609" y="405"/>
      <point x="625" y="402"/>
      <point x="634" y="387"/>
      <point x="632" y="379" type="qcurve"/>
      <point x="626" y="358" type="line"/>
      <point x="621" y="336"/>
      <point x="588" y="236" type="qcurve"/>
      <point x="555" y="134"/>
      <point x="507" y="82" type="qcurve"/>
      <point x="453" y="24"/>
      <point x="395" y="47" type="qcurve"/>
      <point x="360" y="61"/>
      <point x="325" y="94" type="qcurve"/>
      <point x="323" y="93"/>
      <point x="320" y="91" type="qcurve"/>
      <point x="259" y="61"/>
      <point x="189" y="68" type="qcurve"/>
      <point x="117" y="75"/>
      <point x="40" y="157"/>
      <point x="41" y="213" type="qcurve"/>
      <point x="41" y="266"/>
      <point x="75" y="318" type="qcurve"/>
      <point x="86" y="333"/>
      <point x="97" y="347" type="qcurve"/>
      <point x="62" y="389"/>
      <point x="44" y="439" type="qcurve"/>
      <point x="25" y="493"/>
      <point x="36" y="541" type="qcurve"/>
      <point x="48" y="588"/>
      <point x="84" y="624" type="qcurve"/>
      <point x="121" y="659"/>
      <point x="163" y="665" type="qcurve"/>
      <point x="204" y="671"/>
      <point x="241" y="655" type="qcurve"/>
      <point x="280" y="637"/>
      <point x="294" y="596" type="qcurve"/>
      <point x="307" y="557"/>
      <point x="294" y="491"/>
      <point x="262" y="454" type="qcurve"/>
      <point x="232" y="420"/>
      <point x="184" y="378" type="qcurve"/>
      <point x="166" y="363"/>
      <point x="151" y="347" type="qcurve"/>
      <point x="179" y="315"/>
      <point x="218" y="272" type="qcurve"/>
      <point x="273" y="210"/>
      <point x="323" y="154" type="qcurve"/>
      <point x="327" y="149"/>
      <point x="331" y="144" type="qcurve"/>
      <point x="362" y="165"/>
      <point x="381" y="193" type="qcurve"/>
      <point x="410" y="234"/>
      <point x="416" y="262" type="qcurve"/>
      <point x="422" y="294"/>
      <point x="422" y="306" type="qcurve"/>
      <point x="422" y="321" type="line"/>
      <point x="422" y="329"/>
      <point x="434" y="341"/>
      <point x="450" y="341"/>
      <point x="462" y="329"/>
    </contour>
  </outline>
</glyph>
<glyph name="quotesingle" format="1">
  <advance width="133"/>
  <unicode hex="0027"/>
  <outline>
    <contour>
      <point x="70" y="627" type="qcurve"/>
      <point x="86" y="594" type="line"/>
      <point x="105" y="557"/>
      <point x="101" y="517" type="qcurve"/>
      <point x="98" y="482" type="line"/>
      <point x="97" y="474"/>
      <point x="84" y="463"/>
      <point x="68" y="465"/>
      <point x="57" y="478"/>
      <point x="58" y="486" type="qcurve"/>
      <point x="61" y="520" type="line"/>
      <point x="64" y="549"/>
      <point x="50" y="576" type="qcurve"/>
      <point x="34" y="609" type="line"/>
      <point x="30" y="616"/>
      <point x="36" y="632"/>
      <point x="50" y="639"/>
      <point x="66" y="634"/>
    </contour>
  </outline>
</glyph>
<glyph name="parenleft" format="1">
  <advance width="340"/>
  <unicode hex="0028"/>
  <outline>
    <contour>
      <point x="225" y="611" type="qcurve"/>
      <point x="205" y="603" type="line"/>
      <point x="190" y="597"/>
      <point x="157" y="559" type="qcurve"/>
      <point x="122" y="521"/>
      <point x="96" y="441" type="qcurve"/>
      <point x="69" y="360"/>
      <point x="72" y="268" type="qcurve"/>
      <point x="76" y="176"/>
      <point x="109" y="88" type="qcurve"/>
      <point x="141" y="3"/>
      <point x="210" y="-35" type="qcurve"/>
      <point x="275" y="-72"/>
      <point x="287" y="-77" type="qcurve"/>
      <point x="293" y="-78" type="line"/>
      <point x="301" y="-80"/>
      <point x="310" y="-94"/>
      <point x="306" y="-110"/>
      <point x="292" y="-119"/>
      <point x="284" y="-117" type="qcurve"/>
      <point x="278" y="-116" type="line"/>
      <point x="268" y="-114"/>
      <point x="191" y="-70" type="qcurve"/>
      <point x="109" y="-25"/>
      <point x="72" y="74" type="qcurve"/>
      <point x="36" y="168"/>
      <point x="32" y="267" type="qcurve"/>
      <point x="29" y="365"/>
      <point x="58" y="453" type="qcurve"/>
      <point x="87" y="541"/>
      <point x="127" y="586" type="qcurve"/>
      <point x="167" y="631"/>
      <point x="191" y="640" type="qcurve"/>
      <point x="211" y="648" type="line"/>
      <point x="218" y="651"/>
      <point x="233" y="644"/>
      <point x="239" y="629"/>
      <point x="233" y="614"/>
    </contour>
  </outline>
</glyph>
<glyph name="parenright" format="1">
  <advance width="294"/>
  <unicode hex="0029"/>
  <outline>
    <contour>
      <point x="63" y="677" type="qcurve"/>
      <point x="100" y="653" type="line"/>
      <point x="141" y="626"/>
      <point x="190" y="554" type="qcurve"/>
      <point x="241" y="480"/>
      <point x="258" y="337" type="qcurve"/>
      <point x="276" y="192"/>
      <point x="205" y="57" type="qcurve"/>
      <point x="135" y="-75"/>
      <point x="102" y="-105" type="qcurve"/>
      <point x="72" y="-133" type="line"/>
      <point x="66" y="-139"/>
      <point x="50" y="-138"/>
      <point x="39" y="-127"/>
      <point x="39" y="-110"/>
      <point x="45" y="-104" type="qcurve"/>
      <point x="75" y="-76" type="line"/>
      <point x="103" y="-50"/>
      <point x="170" y="76" type="qcurve"/>
      <point x="235" y="199"/>
      <point x="219" y="332" type="qcurve"/>
      <point x="202" y="466"/>
      <point x="157" y="531" type="qcurve"/>
      <point x="112" y="597"/>
      <point x="78" y="619" type="qcurve"/>
      <point x="41" y="644" type="line"/>
      <point x="34" y="648"/>
      <point x="31" y="664"/>
      <point x="40" y="678"/>
      <point x="56" y="682"/>
    </contour>
  </outline>
</glyph>
<glyph name="plus" format="1">
  <advance width="516"/>
  <unicode hex="002B"/>
  <outline>
    <contour>
      <point x="54" y="307" type="qcurve"/>
      <point x="63" y="307" type="line"/>
      <point x="71" y="306"/>
      <point x="142" y="308" type="qcurve"/>
      <point x="170" y="309"/>
      <point x="204" y="310" type="qcurve"/>
      <point x="206" y="380"/>
      <point x="206" y="440" type="qcurve"/>
      <point x="207" y="506" type="line"/>
      <point x="207" y="514"/>
      <point x="218" y="526"/>
      <point x="235" y="526"/>
      <point x="247" y="514"/>
      <point x="247" y="506" type="qcurve"/>
      <point x="246" y="439" type="line"/>
      <point x="246" y="380"/>
      <point x="244" y="310" type="qcurve"/>
      <point x="281" y="310"/>
      <point x="322" y="310" type="qcurve"/>
      <point x="429" y="310"/>
      <point x="447" y="309" type="qcurve"/>
      <point x="465" y="308" type="line"/>
      <point x="473" y="308"/>
      <point x="485" y="296"/>
      <point x="484" y="279"/>
      <point x="472" y="268"/>
      <point x="463" y="268" type="qcurve"/>
      <point x="446" y="269" type="line"/>
      <point x="428" y="270"/>
      <point x="322" y="270" type="qcurve"/>
      <point x="280" y="270"/>
      <point x="243" y="270" type="qcurve"/>
      <point x="243" y="205"/>
      <point x="251" y="140" type="qcurve"/>
      <point x="262" y="62" type="line"/>
      <point x="263" y="54"/>
      <point x="253" y="41"/>
      <point x="237" y="39"/>
      <point x="223" y="49"/>
      <point x="222" y="57" type="qcurve"/>
      <point x="212" y="135" type="line"/>
      <point x="203" y="202"/>
      <point x="203" y="270" type="qcurve"/>
      <point x="171" y="269"/>
      <point x="143" y="268" type="qcurve"/>
      <point x="69" y="266"/>
      <point x="59" y="267" type="qcurve"/>
      <point x="50" y="268" type="line"/>
      <point x="42" y="268"/>
      <point x="31" y="281"/>
      <point x="33" y="297"/>
      <point x="46" y="308"/>
    </contour>
  </outline>
</glyph>
<glyph name="comma" format="1">
  <advance width="173"/>
  <unicode hex="002C"/>
  <outline>
    <contour>
      <point x="131" y="68" type="qcurve"/>
      <point x="138" y="50" type="line"/>
      <point x="147" y="25"/>
      <point x="135" y="-14" type="qcurve"/>
      <point x="123" y="-52"/>
      <point x="91" y="-77" type="qcurve"/>
      <point x="64" y="-98" type="line"/>
      <point x="58" y="-103"/>
      <point x="41" y="-101"/>
      <point x="31" y="-88"/>
      <point x="33" y="-71"/>
      <point x="40" y="-66" type="qcurve"/>
      <point x="67" y="-45" type="line"/>
      <point x="89" y="-28"/>
      <point x="97" y="-2" type="qcurve"/>
      <point x="105" y="24"/>
      <point x="100" y="36" type="qcurve"/>
      <point x="94" y="54" type="line"/>
      <point x="91" y="62"/>
      <point x="98" y="77"/>
      <point x="114" y="83"/>
      <point x="129" y="76"/>
    </contour>
  </outline>
</glyph>
<glyph name="hyphen" format="1">
  <advance width="429"/>
  <unicode hex="002D"/>
  <outline>
    <contour>
      <point x="54" y="300" type="qcurve"/>
      <point x="114" y="294" type="line"/>
      <point x="173" y="288"/>
      <point x="275" y="285" type="qcurve"/>
      <point x="378" y="281" type="line"/>
      <point x="386" y="281"/>
      <point x="398" y="269"/>
      <point x="397" y="253"/>
      <point x="385" y="241"/>
      <point x="377" y="241" type="qcurve"/>
      <point x="274" y="245" type="line"/>
      <point x="171" y="248"/>
      <point x="110" y="254" type="qcurve"/>
      <point x="50" y="260" type="line"/>
      <point x="42" y="261"/>
      <point x="31" y="274"/>
      <point x="33" y="290"/>
      <point x="46" y="301"/>
    </contour>
  </outline>
</glyph>
<glyph name="period" format="1">
  <advance width="106"/>
  <unicode hex="002E"/>
  <outline>
    <contour>
      <point x="66" y="88" type="qcurve"/>
      <point x="69" y="85" type="line"/>
      <point x="75" y="79"/>
      <point x="75" y="63"/>
      <point x="63" y="51"/>
      <point x="47" y="51"/>
      <point x="41" y="57" type="qcurve"/>
      <point x="38" y="60" type="line"/>
      <point x="32" y="66"/>
      <point x="32" y="83"/>
      <point x="44" y="94"/>
      <point x="60" y="94"/>
    </contour>
  </outline>
</glyph>
<glyph name="slash" format="1">
  <advance width="406"/>
  <unicode hex="002F"/>
  <outline>
    <contour>
      <point x="373" y="584" type="qcurve"/>
      <point x="341" y="519" type="line"/>
      <point x="309" y="455"/>
      <point x="222" y="262"/>
      <point x="85" y="-68"/>
      <point x="78" y="-86" type="qcurve"/>
      <point x="70" y="-104" type="line"/>
      <point x="67" y="-112"/>
      <point x="52" y="-118"/>
      <point x="37" y="-112"/>
      <point x="30" y="-97"/>
      <point x="33" y="-89" type="qcurve"/>
      <point x="41" y="-71" type="line"/>
      <point x="48" y="-52"/>
      <point x="117" y="112" type="qcurve"/>
      <point x="185" y="278"/>
      <point x="273" y="472"/>
      <point x="305" y="537" type="qcurve"/>
      <point x="337" y="601" type="line"/>
      <point x="340" y="609"/>
      <point x="356" y="614"/>
      <point x="371" y="607"/>
      <point x="376" y="591"/>
    </contour>
  </outline>
</glyph>
<glyph name="zero" format="1">
  <advance width="522"/>
  <unicode hex="0030"/>
  <outline>
    <contour>
      <point x="153" y="504" type="qcurve"/>
      <point x="152" y="498"/>
      <point x="151" y="489" type="qcurve"/>
      <point x="147" y="473"/>
      <point x="141" y="446" type="qcurve"/>
      <point x="131" y="400"/>
      <point x="132" y="330" type="qcurve"/>
      <point x="134" y="262"/>
      <point x="192" y="122"/>
      <point x="233" y="81" type="qcurve"/>
      <point x="269" y="44"/>
      <point x="368" y="55"/>
      <point x="405" y="118" type="qcurve"/>
      <point x="445" y="184"/>
      <point x="450" y="257" type="qcurve"/>
      <point x="455" y="331"/>
      <point x="437" y="401" type="qcurve"/>
      <point x="420" y="470"/>
      <point x="388" y="515" type="qcurve"/>
      <point x="359" y="556"/>
      <point x="319" y="563" type="qcurve"/>
      <point x="277" y="571"/>
      <point x="211" y="538" type="qcurve"/>
      <point x="183" y="525"/>
      <point x="160" y="509" type="qcurve"/>
      <point x="157" y="506"/>
    </contour>
    <contour>
      <point x="101" y="448" type="qcurve"/>
      <point x="68" y="403" type="line"/>
      <point x="63" y="397"/>
      <point x="47" y="394"/>
      <point x="34" y="404"/>
      <point x="31" y="420"/>
      <point x="36" y="427" type="qcurve"/>
      <point x="74" y="480" type="line"/>
      <point x="84" y="493"/>
      <point x="95" y="505" type="qcurve"/>
      <point x="105" y="515"/>
      <point x="116" y="525" type="qcurve"/>
      <point x="117" y="532"/>
      <point x="118" y="542" type="qcurve"/>
      <point x="120" y="560" type="line"/>
      <point x="121" y="569"/>
      <point x="134" y="579"/>
      <point x="142" y="578" type="qcurve"/>
      <point x="149" y="577"/>
      <point x="160" y="564"/>
      <point x="160" y="556" type="qcurve"/>
      <point x="176" y="566"/>
      <point x="193" y="574" type="qcurve"/>
      <point x="272" y="612"/>
      <point x="326" y="603" type="qcurve"/>
      <point x="382" y="593"/>
      <point x="421" y="538" type="qcurve"/>
      <point x="457" y="487"/>
      <point x="476" y="411" type="qcurve"/>
      <point x="495" y="335"/>
      <point x="490" y="254" type="qcurve"/>
      <point x="484" y="172"/>
      <point x="439" y="97" type="qcurve"/>
      <point x="392" y="18"/>
      <point x="254" y="2"/>
      <point x="204" y="53" type="qcurve"/>
      <point x="158" y="100"/>
      <point x="94" y="253"/>
      <point x="92" y="329" type="qcurve"/>
      <point x="91" y="399"/>
    </contour>
  </outline>
</glyph>
<glyph name="one" format="1">
  <advance width="165"/>
  <unicode hex="0031"/>
  <outline>
    <contour>
      <point x="72" y="640" type="qcurve"/>
      <point x="72" y="627" type="line"/>
      <point x="73" y="615"/>
      <point x="82" y="560" type="qcurve"/>
      <point x="93" y="497"/>
      <point x="101" y="438" type="qcurve"/>
      <point x="109" y="378"/>
      <point x="114" y="302" type="qcurve"/>
      <point x="118" y="226"/>
      <point x="122" y="169" type="qcurve"/>
      <point x="127" y="111"/>
      <point x="129" y="86" type="qcurve"/>
      <point x="132" y="59"/>
      <point x="133" y="39" type="qcurve"/>
      <point x="134" y="20"/>
      <point x="134" y="4" type="qcurve"/>
      <point x="134" y="-11" type="line"/>
      <point x="134" y="-19"/>
      <point x="122" y="-31"/>
      <point x="105" y="-31"/>
      <point x="94" y="-19"/>
      <point x="94" y="-11" type="qcurve"/>
      <point x="94" y="4" type="line"/>
      <point x="94" y="19"/>
      <point x="93" y="38" type="qcurve"/>
      <point x="92" y="57"/>
      <point x="90" y="81" type="qcurve"/>
      <point x="87" y="107"/>
      <point x="78" y="224"/>
      <point x="74" y="300" type="qcurve"/>
      <point x="70" y="375"/>
      <point x="61" y="433" type="qcurve"/>
      <point x="53" y="492"/>
      <point x="43" y="550" type="qcurve"/>
      <point x="33" y="611"/>
      <point x="32" y="625" type="qcurve"/>
      <point x="32" y="638" type="line"/>
      <point x="32" y="647"/>
      <point x="43" y="659"/>
      <point x="60" y="659"/>
      <point x="72" y="648"/>
    </contour>
  </outline>
</glyph>
<glyph name="two" format="1">
  <advance width="495"/>
  <unicode hex="0032"/>
  <outline>
    <contour>
      <point x="34" y="402" type="qcurve"/>
      <point x="32" y="411" type="line"/>
      <point x="33" y="416"/>
      <point x="31" y="418"/>
      <point x="34" y="427"/>
      <point x="33" y="429"/>
      <point x="37" y="439"/>
      <point x="37" y="442"/>
      <point x="42" y="453"/>
      <point x="43" y="456"/>
      <point x="49" y="468"/>
      <point x="50" y="471" type="qcurve"/>
      <point x="69" y="514"/>
      <point x="123" y="560" type="qcurve"/>
      <point x="183" y="610"/>
      <point x="226" y="595" type="qcurve"/>
      <point x="269" y="580"/>
      <point x="286" y="515" type="qcurve"/>
      <point x="302" y="454"/>
      <point x="279" y="378" type="qcurve"/>
      <point x="256" y="304"/>
      <point x="206" y="227" type="qcurve"/>
      <point x="157" y="153"/>
      <point x="126" y="100" type="qcurve"/>
      <point x="102" y="59"/>
      <point x="93" y="42" type="qcurve"/>
      <point x="112" y="39"/>
      <point x="158" y="39" type="qcurve"/>
      <point x="220" y="39"/>
      <point x="288" y="48" type="qcurve"/>
      <point x="358" y="56"/>
      <point x="391" y="57" type="qcurve"/>
      <point x="427" y="59"/>
      <point x="439" y="55" type="qcurve"/>
      <point x="449" y="53" type="line"/>
      <point x="457" y="51"/>
      <point x="465" y="36"/>
      <point x="461" y="20"/>
      <point x="446" y="12"/>
      <point x="438" y="14" type="qcurve"/>
      <point x="429" y="17" type="line"/>
      <point x="422" y="19"/>
      <point x="393" y="17" type="qcurve"/>
      <point x="362" y="16"/>
      <point x="293" y="8" type="qcurve"/>
      <point x="222" y="-1"/>
      <point x="158" y="-1" type="qcurve"/>
      <point x="93" y="-1"/>
      <point x="74" y="5" type="qcurve"/>
      <point x="60" y="10"/>
      <point x="47" y="36"/>
      <point x="53" y="51" type="qcurve"/>
      <point x="60" y="66"/>
      <point x="92" y="121" type="qcurve"/>
      <point x="123" y="174"/>
      <point x="172" y="249" type="qcurve"/>
      <point x="219" y="321"/>
      <point x="240" y="390" type="qcurve"/>
      <point x="261" y="455"/>
      <point x="248" y="505" type="qcurve"/>
      <point x="236" y="549"/>
      <point x="213" y="557" type="qcurve"/>
      <point x="191" y="565"/>
      <point x="149" y="529" type="qcurve"/>
      <point x="102" y="490"/>
      <point x="86" y="455" type="qcurve"/>
      <point x="74" y="425"/>
      <point x="72" y="415" type="qcurve"/>
      <point x="73" y="407" type="line"/>
      <point x="74" y="399"/>
      <point x="64" y="386"/>
      <point x="48" y="384"/>
      <point x="35" y="394"/>
    </contour>
  </outline>
</glyph>
<glyph name="three" format="1">
  <advance width="408"/>
  <unicode hex="0033"/>
  <outline>
    <contour>
      <point x="34" y="511" type="qcurve"/>
      <point x="40" y="524" type="line"/>
      <point x="49" y="542"/>
      <point x="95" y="575" type="qcurve"/>
      <point x="142" y="609"/>
      <point x="197" y="607" type="qcurve"/>
      <point x="254" y="606"/>
      <point x="299" y="552" type="qcurve"/>
      <point x="344" y="498"/>
      <point x="329" y="428" type="qcurve"/>
      <point x="315" y="361"/>
      <point x="262" y="313" type="qcurve"/>
      <point x="258" y="309"/>
      <point x="253" y="305" type="qcurve"/>
      <point x="296" y="306"/>
      <point x="326" y="284" type="qcurve"/>
      <point x="363" y="256"/>
      <point x="374" y="205" type="qcurve"/>
      <point x="385" y="154"/>
      <point x="358" y="110" type="qcurve"/>
      <point x="332" y="67"/>
      <point x="261" y="39" type="qcurve"/>
      <point x="189" y="11"/>
      <point x="138" y="29" type="qcurve"/>
      <point x="86" y="48"/>
      <point x="66" y="96" type="qcurve"/>
      <point x="50" y="136" type="line"/>
      <point x="46" y="143"/>
      <point x="53" y="159"/>
      <point x="68" y="165"/>
      <point x="83" y="159"/>
      <point x="86" y="151" type="qcurve"/>
      <point x="103" y="111" type="line"/>
      <point x="116" y="80"/>
      <point x="152" y="67" type="qcurve"/>
      <point x="189" y="54"/>
      <point x="246" y="76" type="qcurve"/>
      <point x="305" y="99"/>
      <point x="324" y="131" type="qcurve"/>
      <point x="342" y="161"/>
      <point x="335" y="197" type="qcurve"/>
      <point x="327" y="233"/>
      <point x="302" y="251" type="qcurve"/>
      <point x="277" y="270"/>
      <point x="235" y="263" type="qcurve"/>
      <point x="235" y="263"/>
      <point x="191" y="272" type="qcurve"/>
      <point x="154" y="283"/>
      <point x="183" y="298" type="qcurve"/>
      <point x="192" y="304"/>
      <point x="278" y="382"/>
      <point x="290" y="436" type="qcurve"/>
      <point x="301" y="488"/>
      <point x="268" y="527" type="qcurve"/>
      <point x="235" y="566"/>
      <point x="195" y="567" type="qcurve"/>
      <point x="154" y="569"/>
      <point x="118" y="543" type="qcurve"/>
      <point x="81" y="516"/>
      <point x="76" y="507" type="qcurve"/>
      <point x="70" y="494" type="line"/>
      <point x="66" y="486"/>
      <point x="51" y="481"/>
      <point x="36" y="488"/>
      <point x="30" y="504"/>
    </contour>
  </outline>
</glyph>
<glyph name="four" format="1">
  <advance width="505"/>
  <unicode hex="0034"/>
  <outline>
    <contour>
      <point x="303" y="640" type="qcurve"/>
      <point x="314" y="629"/>
      <point x="307" y="616" type="qcurve"/>
      <point x="321" y="610"/>
      <point x="319" y="596" type="qcurve"/>
      <point x="317" y="570" type="line"/>
      <point x="315" y="544"/>
      <point x="311" y="483" type="qcurve"/>
      <point x="308" y="422"/>
      <point x="305" y="314" type="qcurve"/>
      <point x="305" y="279"/>
      <point x="305" y="247" type="qcurve"/>
      <point x="309" y="248"/>
      <point x="313" y="248" type="qcurve"/>
      <point x="353" y="253"/>
      <point x="397" y="276" type="qcurve"/>
      <point x="444" y="301" type="line"/>
      <point x="452" y="305"/>
      <point x="468" y="300"/>
      <point x="475" y="286"/>
      <point x="470" y="270"/>
      <point x="463" y="266" type="qcurve"/>
      <point x="416" y="241" type="line"/>
      <point x="365" y="214"/>
      <point x="317" y="208" type="qcurve"/>
      <point x="312" y="208"/>
      <point x="306" y="207" type="qcurve"/>
      <point x="307" y="166"/>
      <point x="310" y="131" type="qcurve"/>
      <point x="317" y="53"/>
      <point x="317" y="22" type="qcurve"/>
      <point x="318" y="-9" type="line"/>
      <point x="318" y="-17"/>
      <point x="306" y="-29"/>
      <point x="290" y="-29"/>
      <point x="278" y="-18"/>
      <point x="278" y="-9" type="qcurve"/>
      <point x="277" y="21" type="line"/>
      <point x="277" y="51"/>
      <point x="270" y="127" type="qcurve"/>
      <point x="267" y="163"/>
      <point x="266" y="205" type="qcurve"/>
      <point x="237" y="205"/>
      <point x="201" y="207" type="qcurve"/>
      <point x="129" y="211"/>
      <point x="84" y="230" type="qcurve"/>
      <point x="72" y="235"/>
      <point x="57" y="243"/>
      <point x="38" y="256"/>
      <point x="31" y="273"/>
      <point x="32" y="284" type="qcurve"/>
      <point x="35" y="303"/>
      <point x="61" y="342" type="qcurve"/>
      <point x="84" y="376"/>
      <point x="125" y="441" type="qcurve"/>
      <point x="167" y="507"/>
      <point x="214" y="566" type="qcurve"/>
      <point x="261" y="624"/>
      <point x="268" y="632" type="qcurve"/>
      <point x="275" y="639" type="line"/>
      <point x="280" y="645"/>
      <point x="297" y="645"/>
    </contour>
    <contour>
      <point x="265" y="245" type="qcurve"/>
      <point x="265" y="278"/>
      <point x="265" y="315" type="qcurve"/>
      <point x="268" y="424"/>
      <point x="275" y="547"/>
      <point x="277" y="573" type="qcurve"/>
      <point x="278" y="581" type="line"/>
      <point x="264" y="564"/>
      <point x="245" y="541" type="qcurve"/>
      <point x="199" y="484"/>
      <point x="159" y="420" type="qcurve"/>
      <point x="118" y="354"/>
      <point x="94" y="319" type="qcurve"/>
      <point x="78" y="294"/>
      <point x="73" y="281" type="qcurve"/>
      <point x="80" y="275"/>
      <point x="99" y="267" type="qcurve"/>
      <point x="138" y="251"/>
      <point x="203" y="247" type="qcurve"/>
      <point x="237" y="245"/>
    </contour>
  </outline>
</glyph>
<glyph name="five" format="1">
  <advance width="403"/>
  <unicode hex="0035"/>
  <outline>
    <contour>
      <point x="349" y="614" type="qcurve"/>
      <point x="327" y="604" type="line"/>
      <point x="301" y="593"/>
      <point x="268" y="587" type="qcurve"/>
      <point x="236" y="581"/>
      <point x="190" y="578" type="qcurve"/>
      <point x="146" y="575"/>
      <point x="123" y="569" type="qcurve"/>
      <point x="110" y="565"/>
      <point x="98" y="523" type="qcurve"/>
      <point x="84" y="473"/>
      <point x="77" y="408" type="qcurve"/>
      <point x="72" y="361"/>
      <point x="72" y="340" type="qcurve"/>
      <point x="81" y="342"/>
      <point x="93" y="346" type="qcurve"/>
      <point x="138" y="363"/>
      <point x="194" y="365" type="qcurve"/>
      <point x="252" y="368"/>
      <point x="307" y="328" type="qcurve"/>
      <point x="363" y="287"/>
      <point x="371" y="220" type="qcurve"/>
      <point x="378" y="152"/>
      <point x="331" y="100" type="qcurve"/>
      <point x="284" y="49"/>
      <point x="218" y="41" type="qcurve"/>
      <point x="153" y="33"/>
      <point x="62" y="95"/>
      <point x="53" y="132" type="qcurve"/>
      <point x="45" y="164"/>
      <point x="45" y="179" type="qcurve"/>
      <point x="45" y="191" type="line"/>
      <point x="45" y="199"/>
      <point x="57" y="211"/>
      <point x="74" y="211"/>
      <point x="85" y="199"/>
      <point x="85" y="191" type="qcurve"/>
      <point x="85" y="179" type="line"/>
      <point x="85" y="169"/>
      <point x="92" y="141" type="qcurve"/>
      <point x="97" y="119"/>
      <point x="163" y="74"/>
      <point x="213" y="81" type="qcurve"/>
      <point x="264" y="87"/>
      <point x="301" y="127" type="qcurve"/>
      <point x="336" y="166"/>
      <point x="325" y="265"/>
      <point x="283" y="296" type="qcurve"/>
      <point x="239" y="328"/>
      <point x="195" y="325" type="qcurve"/>
      <point x="147" y="323"/>
      <point x="107" y="309" type="qcurve"/>
      <point x="44" y="285"/>
      <point x="34" y="323" type="qcurve"/>
      <point x="29" y="342"/>
      <point x="37" y="412" type="qcurve"/>
      <point x="45" y="480"/>
      <point x="60" y="534" type="qcurve"/>
      <point x="77" y="597"/>
      <point x="112" y="607" type="qcurve"/>
      <point x="139" y="615"/>
      <point x="187" y="618" type="qcurve"/>
      <point x="232" y="621"/>
      <point x="261" y="626" type="qcurve"/>
      <point x="289" y="631"/>
      <point x="310" y="640" type="qcurve"/>
      <point x="333" y="651" type="line"/>
      <point x="340" y="654"/>
      <point x="356" y="648"/>
      <point x="363" y="633"/>
      <point x="357" y="618"/>
    </contour>
  </outline>
</glyph>
<glyph name="six" format="1">
  <advance width="489"/>
  <unicode hex="0036"/>
  <outline>
    <contour>
      <point x="93" y="181" type="line"/>
      <point x="93" y="181"/>
      <point x="93" y="180" type="qcurve"/>
      <point x="104" y="149"/>
      <point x="121" y="125" type="qcurve"/>
      <point x="155" y="79"/>
      <point x="218" y="65" type="qcurve"/>
      <point x="281" y="51"/>
      <point x="337" y="75" type="qcurve"/>
      <point x="394" y="100"/>
      <point x="410" y="126" type="qcurve"/>
      <point x="425" y="150"/>
      <point x="410" y="192" type="qcurve"/>
      <point x="395" y="235"/>
      <point x="352" y="257" type="qcurve"/>
      <point x="308" y="280"/>
      <point x="222" y="257" type="qcurve"/>
      <point x="135" y="234"/>
      <point x="103" y="194" type="qcurve"/>
    </contour>
    <contour>
      <point x="64" y="145" type="qcurve"/>
      <point x="51" y="137"/>
      <point x="40" y="146" type="qcurve"/>
      <point x="33" y="151"/>
      <point x="31" y="168"/>
      <point x="36" y="174" type="qcurve"/>
      <point x="49" y="190" type="line"/>
      <point x="48" y="193"/>
      <point x="47" y="196" type="qcurve"/>
      <point x="42" y="223"/>
      <point x="39" y="253" type="qcurve"/>
      <point x="33" y="345"/>
      <point x="57" y="415" type="qcurve"/>
      <point x="80" y="484"/>
      <point x="114" y="528" type="qcurve"/>
      <point x="149" y="572"/>
      <point x="216" y="601" type="qcurve"/>
      <point x="282" y="629"/>
      <point x="318" y="635" type="qcurve"/>
      <point x="352" y="641" type="line"/>
      <point x="360" y="642"/>
      <point x="374" y="633"/>
      <point x="377" y="617"/>
      <point x="367" y="603"/>
      <point x="359" y="601" type="qcurve"/>
      <point x="325" y="595" type="line"/>
      <point x="293" y="590"/>
      <point x="232" y="564" type="qcurve"/>
      <point x="174" y="540"/>
      <point x="146" y="503" type="qcurve"/>
      <point x="116" y="465"/>
      <point x="95" y="402" type="qcurve"/>
      <point x="73" y="340"/>
      <point x="79" y="256" type="qcurve"/>
      <point x="80" y="243"/>
      <point x="82" y="231" type="qcurve"/>
      <point x="123" y="273"/>
      <point x="212" y="296" type="qcurve"/>
      <point x="313" y="322"/>
      <point x="370" y="293" type="qcurve"/>
      <point x="428" y="264"/>
      <point x="448" y="205" type="qcurve"/>
      <point x="469" y="145"/>
      <point x="444" y="105" type="qcurve"/>
      <point x="421" y="68"/>
      <point x="353" y="39" type="qcurve"/>
      <point x="285" y="9"/>
      <point x="209" y="26" type="qcurve"/>
      <point x="132" y="43"/>
      <point x="89" y="102" type="qcurve"/>
      <point x="74" y="121"/>
    </contour>
  </outline>
</glyph>
<glyph name="seven" format="1">
  <advance width="400"/>
  <unicode hex="0037"/>
  <outline>
    <contour>
      <point x="51" y="634" type="qcurve"/>
      <point x="125" y="639" type="line"/>
      <point x="200" y="645"/>
      <point x="266" y="643" type="qcurve"/>
      <point x="304" y="641"/>
      <point x="344" y="634"/>
      <point x="355" y="623" type="qcurve"/>
      <point x="367" y="611"/>
      <point x="370" y="566"/>
      <point x="365" y="541" type="qcurve"/>
      <point x="357" y="486"/>
      <point x="319" y="395" type="qcurve"/>
      <point x="281" y="307"/>
      <point x="252" y="236" type="qcurve"/>
      <point x="224" y="166"/>
      <point x="209" y="99" type="qcurve"/>
      <point x="194" y="32"/>
      <point x="195" y="2" type="qcurve"/>
      <point x="196" y="-30"/>
      <point x="197" y="-40" type="qcurve"/>
      <point x="199" y="-51" type="line"/>
      <point x="200" y="-59"/>
      <point x="190" y="-73"/>
      <point x="174" y="-75"/>
      <point x="161" y="-65"/>
      <point x="160" y="-57" type="qcurve"/>
      <point x="158" y="-46" type="line"/>
      <point x="156" y="-33"/>
      <point x="155" y="1" type="qcurve"/>
      <point x="154" y="36"/>
      <point x="170" y="107" type="qcurve"/>
      <point x="186" y="178"/>
      <point x="215" y="251" type="qcurve"/>
      <point x="244" y="322"/>
      <point x="282" y="411" type="qcurve"/>
      <point x="318" y="497"/>
      <point x="325" y="547" type="qcurve"/>
      <point x="330" y="582"/>
      <point x="326" y="595" type="qcurve"/>
      <point x="312" y="601"/>
      <point x="264" y="603" type="qcurve"/>
      <point x="201" y="605"/>
      <point x="128" y="599" type="qcurve"/>
      <point x="53" y="594" type="line"/>
      <point x="45" y="593"/>
      <point x="33" y="604"/>
      <point x="31" y="620"/>
      <point x="42" y="633"/>
    </contour>
  </outline>
</glyph>
<glyph name="eight" format="1">
  <advance width="486"/>
  <unicode hex="0038"/>
  <outline>
    <contour>
      <point x="217" y="314" type="qcurve"/>
      <point x="182" y="273"/>
      <point x="166" y="242" type="qcurve"/>
      <point x="136" y="188"/>
      <point x="140" y="157" type="qcurve"/>
      <point x="143" y="130"/>
      <point x="182" y="104" type="qcurve"/>
      <point x="222" y="78"/>
      <point x="269" y="85" type="qcurve"/>
      <point x="316" y="93"/>
      <point x="353" y="133" type="qcurve"/>
      <point x="387" y="169"/>
      <point x="379" y="201" type="qcurve"/>
      <point x="369" y="238"/>
      <point x="293" y="304"/>
      <point x="232" y="312" type="qcurve"/>
      <point x="225" y="313"/>
    </contour>
    <contour>
      <point x="202" y="358" type="qcurve"/>
      <point x="228" y="387"/>
      <point x="261" y="420" type="qcurve"/>
      <point x="356" y="515"/>
      <point x="389" y="543" type="qcurve"/>
      <point x="422" y="571" type="line"/>
      <point x="428" y="576"/>
      <point x="445" y="575"/>
      <point x="456" y="562"/>
      <point x="454" y="546"/>
      <point x="448" y="540" type="qcurve"/>
      <point x="415" y="513" type="line"/>
      <point x="383" y="485"/>
      <point x="289" y="392" type="qcurve"/>
      <point x="267" y="370"/>
      <point x="249" y="350" type="qcurve"/>
      <point x="314" y="339"/>
      <point x="357" y="301" type="qcurve"/>
      <point x="405" y="260"/>
      <point x="418" y="212" type="qcurve"/>
      <point x="432" y="158"/>
      <point x="382" y="105" type="qcurve"/>
      <point x="336" y="55"/>
      <point x="275" y="46" type="qcurve"/>
      <point x="213" y="36"/>
      <point x="160" y="71" type="qcurve"/>
      <point x="105" y="106"/>
      <point x="100" y="153" type="qcurve"/>
      <point x="95" y="196"/>
      <point x="130" y="261" type="qcurve"/>
      <point x="145" y="289"/>
      <point x="173" y="324" type="qcurve"/>
      <point x="135" y="334"/>
      <point x="101" y="349" type="qcurve"/>
      <point x="29" y="381"/>
      <point x="32" y="437" type="qcurve"/>
      <point x="35" y="487"/>
      <point x="90" y="540" type="qcurve"/>
      <point x="143" y="592"/>
      <point x="214" y="608" type="qcurve"/>
      <point x="282" y="623"/>
      <point x="345" y="614" type="qcurve"/>
      <point x="403" y="605" type="line"/>
      <point x="412" y="604"/>
      <point x="421" y="590"/>
      <point x="419" y="574"/>
      <point x="406" y="564"/>
      <point x="397" y="565" type="qcurve"/>
      <point x="339" y="574" type="line"/>
      <point x="284" y="582"/>
      <point x="222" y="569" type="qcurve"/>
      <point x="163" y="555"/>
      <point x="117" y="511" type="qcurve"/>
      <point x="74" y="469"/>
      <point x="72" y="435" type="qcurve"/>
      <point x="71" y="406"/>
      <point x="117" y="386" type="qcurve"/>
      <point x="157" y="368"/>
    </contour>
  </outline>
</glyph>
<glyph name="nine" format="1">
  <advance width="412"/>
  <unicode hex="0039"/>
  <outline>
    <contour>
      <point x="313" y="498" type="qcurve"/>
      <point x="301" y="495"/>
      <point x="293" y="504" type="qcurve"/>
      <point x="273" y="526" type="line"/>
      <point x="255" y="545"/>
      <point x="226" y="560" type="qcurve"/>
      <point x="199" y="574"/>
      <point x="183" y="573" type="qcurve"/>
      <point x="166" y="572"/>
      <point x="135" y="550" type="qcurve"/>
      <point x="103" y="527"/>
      <point x="69" y="453"/>
      <point x="73" y="415" type="qcurve"/>
      <point x="77" y="376"/>
      <point x="94" y="351" type="qcurve"/>
      <point x="109" y="329"/>
      <point x="146" y="324" type="qcurve"/>
      <point x="185" y="319"/>
      <point x="221" y="339" type="qcurve"/>
      <point x="258" y="360"/>
      <point x="277" y="393" type="qcurve"/>
      <point x="297" y="428"/>
      <point x="304" y="455" type="qcurve"/>
      <point x="311" y="483"/>
    </contour>
    <contour>
      <point x="327" y="524" type="qcurve"/>
      <point x="337" y="526"/>
      <point x="352" y="520"/>
      <point x="354" y="515" type="qcurve"/>
      <point x="356" y="511" type="line"/>
      <point x="360" y="501"/>
      <point x="365" y="479" type="qcurve"/>
      <point x="370" y="458"/>
      <point x="373" y="433" type="qcurve"/>
      <point x="376" y="409"/>
      <point x="379" y="370" type="qcurve"/>
      <point x="381" y="330"/>
      <point x="381" y="293" type="qcurve"/>
      <point x="380" y="254"/>
      <point x="372" y="219" type="qcurve"/>
      <point x="363" y="182"/>
      <point x="344" y="151" type="qcurve"/>
      <point x="325" y="118"/>
      <point x="297" y="97" type="qcurve"/>
      <point x="270" y="75"/>
      <point x="200" y="48"/>
      <point x="165" y="45" type="qcurve"/>
      <point x="130" y="41"/>
      <point x="102" y="48" type="qcurve"/>
      <point x="77" y="53"/>
      <point x="60" y="60" type="qcurve"/>
      <point x="45" y="66" type="line"/>
      <point x="38" y="69"/>
      <point x="31" y="84"/>
      <point x="37" y="99"/>
      <point x="52" y="106"/>
      <point x="60" y="103" type="qcurve"/>
      <point x="75" y="97" type="line"/>
      <point x="89" y="92"/>
      <point x="111" y="87" type="qcurve"/>
      <point x="132" y="82"/>
      <point x="161" y="84" type="qcurve"/>
      <point x="191" y="87"/>
      <point x="250" y="111"/>
      <point x="272" y="128" type="qcurve"/>
      <point x="294" y="145"/>
      <point x="310" y="171" type="qcurve"/>
      <point x="325" y="198"/>
      <point x="333" y="228" type="qcurve"/>
      <point x="340" y="259"/>
      <point x="341" y="293" type="qcurve"/>
      <point x="341" y="329"/>
      <point x="339" y="367" type="qcurve"/>
      <point x="337" y="398"/>
      <point x="334" y="420" type="qcurve"/>
      <point x="326" y="398"/>
      <point x="311" y="373" type="qcurve"/>
      <point x="287" y="331"/>
      <point x="240" y="304" type="qcurve"/>
      <point x="192" y="277"/>
      <point x="140" y="284" type="qcurve"/>
      <point x="86" y="291"/>
      <point x="61" y="328" type="qcurve"/>
      <point x="38" y="362"/>
      <point x="33" y="411" type="qcurve"/>
      <point x="28" y="459"/>
      <point x="71" y="553"/>
      <point x="111" y="582" type="qcurve"/>
      <point x="152" y="611"/>
      <point x="180" y="613" type="qcurve"/>
      <point x="208" y="615"/>
      <point x="244" y="596" type="qcurve"/>
      <point x="279" y="578"/>
      <point x="302" y="553" type="qcurve"/>
      <point x="323" y="531" type="line"/>
      <point x="325" y="528"/>
    </contour>
  </outline>
</glyph>
<glyph name="colon" format="1">
  <advance width="139"/>
  <unicode hex="003A"/>
  <outline>
    <contour>
      <point x="99" y="60" type="qcurve"/>
      <point x="102" y="57" type="line"/>
      <point x="108" y="51"/>
      <point x="108" y="34"/>
      <point x="96" y="23"/>
      <point x="79" y="23"/>
      <point x="74" y="28" type="qcurve"/>
      <point x="71" y="31" type="line"/>
      <point x="65" y="37"/>
      <point x="65" y="54"/>
      <point x="76" y="65"/>
      <point x="93" y="65"/>
    </contour>
    <contour>
      <point x="66" y="449" type="qcurve"/>
      <point x="69" y="446" type="line"/>
      <point x="75" y="440"/>
      <point x="75" y="423"/>
      <point x="63" y="412"/>
      <point x="47" y="412"/>
      <point x="41" y="418" type="qcurve"/>
      <point x="38" y="421" type="line"/>
      <point x="32" y="426"/>
      <point x="32" y="443"/>
      <point x="44" y="455"/>
      <point x="60" y="455"/>
    </contour>
  </outline>
</glyph>
<glyph name="semicolon" format="1">
  <advance width="163"/>
  <unicode hex="003B"/>
  <outline>
    <contour>
      <point x="129" y="86" type="qcurve"/>
      <point x="131" y="42" type="line"/>
      <point x="134" y="-8"/>
      <point x="99" y="-56" type="qcurve"/>
      <point x="68" y="-99" type="line"/>
      <point x="63" y="-106"/>
      <point x="47" y="-109"/>
      <point x="34" y="-99"/>
      <point x="31" y="-83"/>
      <point x="36" y="-76" type="qcurve"/>
      <point x="66" y="-33" type="line"/>
      <point x="93" y="4"/>
      <point x="91" y="41" type="qcurve"/>
      <point x="89" y="84" type="line"/>
      <point x="89" y="92"/>
      <point x="100" y="104"/>
      <point x="116" y="105"/>
      <point x="129" y="94"/>
    </contour>
    <contour>
      <point x="83" y="471" type="qcurve"/>
      <point x="86" y="468" type="line"/>
      <point x="92" y="462"/>
      <point x="92" y="445"/>
      <point x="80" y="434"/>
      <point x="63" y="434"/>
      <point x="58" y="440" type="qcurve"/>
      <point x="55" y="443" type="line"/>
      <point x="49" y="448"/>
      <point x="49" y="465"/>
      <point x="60" y="477"/>
      <point x="77" y="477"/>
    </contour>
  </outline>
</glyph>
<glyph name="equal" format="1">
  <advance width="567"/>
  <unicode hex="003D"/>
  <outline>
    <contour>
      <point x="105" y="228" type="qcurve"/>
      <point x="126" y="228" type="line"/>
      <point x="146" y="227"/>
      <point x="265" y="229"/>
      <point x="379" y="234" type="qcurve"/>
      <point x="494" y="240"/>
      <point x="505" y="240" type="qcurve"/>
      <point x="515" y="240" type="line"/>
      <point x="523" y="241"/>
      <point x="535" y="229"/>
      <point x="536" y="213"/>
      <point x="525" y="201"/>
      <point x="517" y="201" type="qcurve"/>
      <point x="506" y="200" type="line"/>
      <point x="496" y="200"/>
      <point x="381" y="194" type="qcurve"/>
      <point x="266" y="189"/>
      <point x="146" y="187"/>
      <point x="125" y="188" type="qcurve"/>
      <point x="104" y="188" type="line"/>
      <point x="96" y="188"/>
      <point x="84" y="201"/>
      <point x="84" y="217"/>
      <point x="97" y="228"/>
    </contour>
    <contour>
      <point x="54" y="424" type="qcurve"/>
      <point x="76" y="421" type="line"/>
      <point x="97" y="419"/>
      <point x="169" y="415" type="qcurve"/>
      <point x="241" y="412"/>
      <point x="326" y="402" type="qcurve"/>
      <point x="409" y="393"/>
      <point x="428" y="393" type="qcurve"/>
      <point x="449" y="394" type="line"/>
      <point x="457" y="395"/>
      <point x="470" y="383"/>
      <point x="470" y="367"/>
      <point x="459" y="355"/>
      <point x="451" y="354" type="qcurve"/>
      <point x="430" y="353" type="line"/>
      <point x="407" y="353"/>
      <point x="322" y="362" type="qcurve"/>
      <point x="238" y="372"/>
      <point x="167" y="375" type="qcurve"/>
      <point x="94" y="379"/>
      <point x="72" y="381" type="qcurve"/>
      <point x="50" y="384" type="line"/>
      <point x="42" y="385"/>
      <point x="31" y="398"/>
      <point x="33" y="414"/>
      <point x="46" y="424"/>
    </contour>
  </outline>
</glyph>
<glyph name="question" format="1">
  <advance width="308"/>
  <unicode hex="003F"/>
  <outline>
    <contour>
      <point x="163" y="35" type="qcurve"/>
      <point x="162" y="47"/>
      <point x="172" y="53" type="qcurve"/>
      <point x="180" y="59" type="line"/>
      <point x="196" y="70"/>
      <point x="218" y="63" type="qcurve"/>
      <point x="232" y="58"/>
      <point x="243" y="32"/>
      <point x="238" y="20" type="qcurve"/>
      <point x="233" y="4"/>
      <point x="203" y="-6"/>
      <point x="191" y="0" type="qcurve"/>
      <point x="173" y="6" type="line"/>
      <point x="166" y="9"/>
      <point x="159" y="24"/>
      <point x="162" y="32" type="qcurve"/>
      <point x="162" y="34"/>
    </contour>
    <contour>
      <point x="36" y="439" type="qcurve"/>
      <point x="32" y="481" type="line"/>
      <point x="28" y="532"/>
      <point x="69" y="581" type="qcurve"/>
      <point x="112" y="631"/>
      <point x="170" y="623" type="qcurve"/>
      <point x="224" y="614"/>
      <point x="254" y="578" type="qcurve"/>
      <point x="284" y="541"/>
      <point x="275" y="475" type="qcurve"/>
      <point x="267" y="412"/>
      <point x="232" y="371" type="qcurve"/>
      <point x="201" y="333"/>
      <point x="178" y="312" type="qcurve"/>
      <point x="164" y="298"/>
      <point x="167" y="235" type="qcurve"/>
      <point x="170" y="164"/>
      <point x="173" y="147" type="qcurve"/>
      <point x="177" y="128" type="line"/>
      <point x="179" y="120"/>
      <point x="170" y="106"/>
      <point x="153" y="103"/>
      <point x="140" y="112"/>
      <point x="138" y="120" type="qcurve"/>
      <point x="134" y="139" type="line"/>
      <point x="130" y="159"/>
      <point x="127" y="233" type="qcurve"/>
      <point x="123" y="314"/>
      <point x="151" y="341" type="qcurve"/>
      <point x="171" y="360"/>
      <point x="202" y="396" type="qcurve"/>
      <point x="229" y="429"/>
      <point x="235" y="480" type="qcurve"/>
      <point x="242" y="529"/>
      <point x="222" y="553" type="qcurve"/>
      <point x="203" y="577"/>
      <point x="164" y="583" type="qcurve"/>
      <point x="128" y="589"/>
      <point x="99" y="555" type="qcurve"/>
      <point x="69" y="519"/>
      <point x="72" y="485" type="qcurve"/>
      <point x="76" y="442" type="line"/>
      <point x="77" y="434"/>
      <point x="66" y="421"/>
      <point x="50" y="420"/>
      <point x="37" y="430"/>
    </contour>
  </outline>
</glyph>
<glyph name="at" format="1">
  <advance width="665"/>
  <unicode hex="0040"/>
  <outline>
    <contour>
      <point x="460" y="319" type="qcurve"/>
      <point x="454" y="312"/>
      <point x="445" y="312" type="qcurve"/>
      <point x="446" y="305"/>
      <point x="447" y="284" type="qcurve"/>
      <point x="449" y="243"/>
      <point x="466" y="189" type="qcurve"/>
      <point x="481" y="140"/>
      <point x="508" y="122" type="qcurve"/>
      <point x="527" y="109"/>
      <point x="552" y="132" type="qcurve"/>
      <point x="583" y="162"/>
      <point x="591" y="223" type="qcurve"/>
      <point x="599" y="288"/>
      <point x="583" y="352" type="qcurve"/>
      <point x="567" y="415"/>
      <point x="512" y="469" type="qcurve"/>
      <point x="459" y="521"/>
      <point x="395" y="525" type="qcurve"/>
      <point x="328" y="530"/>
      <point x="272" y="503" type="qcurve"/>
      <point x="215" y="476"/>
      <point x="158" y="410" type="qcurve"/>
      <point x="100" y="344"/>
      <point x="81" y="275" type="qcurve"/>
      <point x="62" y="206"/>
      <point x="102" y="52"/>
      <point x="159" y="-5" type="qcurve"/>
      <point x="214" y="-60"/>
      <point x="314" y="-66" type="qcurve"/>
      <point x="413" y="-71"/>
      <point x="498" y="4" type="qcurve"/>
      <point x="589" y="85" type="line"/>
      <point x="595" y="90"/>
      <point x="612" y="89"/>
      <point x="622" y="77"/>
      <point x="621" y="60"/>
      <point x="615" y="55" type="qcurve"/>
      <point x="524" y="-26" type="line"/>
      <point x="427" y="-112"/>
      <point x="312" y="-106" type="qcurve"/>
      <point x="197" y="-99"/>
      <point x="131" y="-33" type="qcurve"/>
      <point x="66" y="32"/>
      <point x="21" y="207"/>
      <point x="43" y="286" type="qcurve"/>
      <point x="64" y="364"/>
      <point x="128" y="436" type="qcurve"/>
      <point x="191" y="508"/>
      <point x="255" y="539" type="qcurve"/>
      <point x="320" y="570"/>
      <point x="397" y="565" type="qcurve"/>
      <point x="476" y="560"/>
      <point x="540" y="497" type="qcurve"/>
      <point x="603" y="436"/>
      <point x="621" y="362" type="qcurve"/>
      <point x="639" y="290"/>
      <point x="630" y="218" type="qcurve"/>
      <point x="621" y="143"/>
      <point x="579" y="103" type="qcurve"/>
      <point x="558" y="82"/>
      <point x="510" y="74"/>
      <point x="486" y="89" type="qcurve"/>
      <point x="447" y="115"/>
      <point x="428" y="177" type="qcurve"/>
      <point x="424" y="188"/>
      <point x="421" y="200" type="qcurve"/>
      <point x="402" y="148"/>
      <point x="349" y="106" type="qcurve"/>
      <point x="289" y="58"/>
      <point x="250" y="63" type="qcurve"/>
      <point x="204" y="69"/>
      <point x="192" y="143" type="qcurve"/>
      <point x="180" y="209"/>
      <point x="212" y="269" type="qcurve"/>
      <point x="242" y="327"/>
      <point x="289" y="359" type="qcurve"/>
      <point x="340" y="395"/>
      <point x="392" y="378" type="qcurve"/>
      <point x="437" y="363"/>
      <point x="449" y="354" type="qcurve"/>
      <point x="457" y="347" type="line"/>
      <point x="463" y="342"/>
      <point x="465" y="326"/>
    </contour>
    <contour>
      <point x="415" y="327" type="qcurve"/>
      <point x="402" y="332"/>
      <point x="379" y="340" type="qcurve"/>
      <point x="346" y="351"/>
      <point x="312" y="327" type="qcurve"/>
      <point x="273" y="300"/>
      <point x="247" y="250" type="qcurve"/>
      <point x="222" y="203"/>
      <point x="231" y="150" type="qcurve"/>
      <point x="239" y="105"/>
      <point x="255" y="103" type="qcurve"/>
      <point x="277" y="100"/>
      <point x="324" y="138" type="qcurve"/>
      <point x="373" y="177"/>
      <point x="387" y="224" type="qcurve"/>
      <point x="402" y="276"/>
      <point x="404" y="300" type="qcurve"/>
      <point x="395" y="313"/>
    </contour>
  </outline>
</glyph>
<glyph name="A" format="1">
  <advance width="538"/>
  <unicode hex="0041"/>
  <outline>
    <contour>
      <point x="34" y="35" type="qcurve"/>
      <point x="44" y="59" type="line"/>
      <point x="55" y="84"/>
      <point x="74" y="137" type="qcurve"/>
      <point x="94" y="191"/>
      <point x="137" y="324"/>
      <point x="158" y="390" type="qcurve"/>
      <point x="179" y="459"/>
      <point x="194" y="508" type="qcurve"/>
      <point x="209" y="558"/>
      <point x="224" y="604"/>
      <point x="226" y="612" type="qcurve"/>
      <point x="235" y="634"/>
      <point x="261" y="624"/>
      <point x="274" y="607" type="qcurve"/>
      <point x="286" y="590" type="line"/>
      <point x="308" y="554"/>
      <point x="354" y="447"/>
      <point x="380" y="375" type="qcurve"/>
      <point x="404" y="306"/>
      <point x="420" y="262" type="qcurve"/>
      <point x="435" y="265"/>
      <point x="444" y="268" type="qcurve"/>
      <point x="474" y="277" type="line"/>
      <point x="482" y="280"/>
      <point x="497" y="272"/>
      <point x="502" y="256"/>
      <point x="494" y="241"/>
      <point x="486" y="239" type="qcurve"/>
      <point x="456" y="230" type="line"/>
      <point x="447" y="227"/>
      <point x="434" y="224" type="qcurve"/>
      <point x="446" y="196"/>
      <point x="460" y="168" type="qcurve"/>
      <point x="483" y="123"/>
      <point x="491" y="104" type="qcurve"/>
      <point x="499" y="86"/>
      <point x="503" y="77" type="qcurve"/>
      <point x="506" y="68" type="line"/>
      <point x="509" y="61"/>
      <point x="502" y="46"/>
      <point x="486" y="40"/>
      <point x="471" y="47"/>
      <point x="468" y="54" type="qcurve"/>
      <point x="465" y="62" type="line"/>
      <point x="462" y="70"/>
      <point x="447" y="106"/>
      <point x="424" y="151" type="qcurve"/>
      <point x="408" y="183"/>
      <point x="395" y="215" type="qcurve"/>
      <point x="368" y="210"/>
      <point x="330" y="203" type="qcurve"/>
      <point x="238" y="187"/>
      <point x="183" y="175" type="qcurve"/>
      <point x="128" y="163" type="line"/>
      <point x="127" y="163"/>
      <point x="126" y="163" type="qcurve"/>
      <point x="118" y="143"/>
      <point x="112" y="124" type="qcurve"/>
      <point x="92" y="69"/>
      <point x="81" y="44" type="qcurve"/>
      <point x="70" y="19" type="line"/>
      <point x="67" y="11"/>
      <point x="52" y="5"/>
      <point x="37" y="12"/>
      <point x="30" y="27"/>
    </contour>
    <contour>
      <point x="141" y="207" type="qcurve"/>
      <point x="175" y="214" type="line"/>
      <point x="231" y="226"/>
      <point x="323" y="243" type="qcurve"/>
      <point x="355" y="248"/>
      <point x="380" y="253" type="qcurve"/>
      <point x="365" y="297"/>
      <point x="342" y="362" type="qcurve"/>
      <point x="317" y="433"/>
      <point x="295" y="485" type="qcurve"/>
      <point x="273" y="533"/>
      <point x="254" y="566" type="qcurve"/>
      <point x="246" y="542"/>
      <point x="232" y="496" type="qcurve"/>
      <point x="217" y="446"/>
      <point x="176" y="311"/>
      <point x="153" y="245" type="qcurve"/>
      <point x="147" y="225"/>
    </contour>
  </outline>
</glyph>
<glyph name="B" format="1">
  <advance width="499"/>
  <unicode hex="0042"/>
  <outline>
    <contour>
      <point x="73" y="97" type="line"/>
      <point x="70" y="126"/>
      <point x="63" y="174" type="qcurve"/>
      <point x="52" y="247"/>
      <point x="48" y="330" type="qcurve"/>
      <point x="45" y="412"/>
      <point x="46" y="478" type="qcurve"/>
      <point x="47" y="543"/>
      <point x="48" y="555" type="qcurve"/>
      <point x="48" y="568" type="line"/>
      <point x="48" y="576"/>
      <point x="60" y="587"/>
      <point x="69" y="587" type="qcurve"/>
      <point x="70" y="587"/>
      <point x="71" y="587" type="qcurve"/>
      <point x="73" y="592"/>
      <point x="77" y="595" type="qcurve"/>
      <point x="96" y="609" type="line"/>
      <point x="117" y="625"/>
      <point x="180" y="647" type="qcurve"/>
      <point x="245" y="671"/>
      <point x="296" y="661" type="qcurve"/>
      <point x="349" y="651"/>
      <point x="373" y="627" type="qcurve"/>
      <point x="398" y="603"/>
      <point x="422" y="506"/>
      <point x="407" y="463" type="qcurve"/>
      <point x="393" y="421"/>
      <point x="348" y="375" type="qcurve"/>
      <point x="340" y="367"/>
      <point x="331" y="359" type="qcurve"/>
      <point x="340" y="356"/>
      <point x="348" y="353" type="qcurve"/>
      <point x="394" y="336"/>
      <point x="422" y="304" type="qcurve"/>
      <point x="448" y="273"/>
      <point x="460" y="240" type="qcurve"/>
      <point x="471" y="206"/>
      <point x="466" y="162" type="qcurve"/>
      <point x="460" y="117"/>
      <point x="413" y="68" type="qcurve"/>
      <point x="367" y="19"/>
      <point x="319" y="5" type="qcurve"/>
      <point x="271" y="-10"/>
      <point x="220" y="-3" type="qcurve"/>
      <point x="174" y="4"/>
      <point x="112" y="33" type="qcurve"/>
      <point x="107" y="29"/>
      <point x="101" y="28" type="qcurve"/>
      <point x="93" y="27"/>
      <point x="80" y="38"/>
      <point x="79" y="46" type="qcurve"/>
      <point x="78" y="50" type="line"/>
      <point x="43" y="67" type="line"/>
      <point x="36" y="70"/>
      <point x="30" y="86"/>
      <point x="38" y="101"/>
      <point x="53" y="106"/>
      <point x="61" y="103" type="qcurve"/>
    </contour>
    <contour>
      <point x="116" y="76" type="line"/>
      <point x="123" y="72" type="line"/>
      <point x="183" y="43"/>
      <point x="226" y="37" type="qcurve"/>
      <point x="268" y="31"/>
      <point x="307" y="43" type="qcurve"/>
      <point x="346" y="55"/>
      <point x="384" y="95" type="qcurve"/>
      <point x="422" y="135"/>
      <point x="426" y="167" type="qcurve"/>
      <point x="431" y="201"/>
      <point x="422" y="227" type="qcurve"/>
      <point x="413" y="253"/>
      <point x="392" y="278" type="qcurve"/>
      <point x="371" y="302"/>
      <point x="334" y="316" type="qcurve"/>
      <point x="316" y="323"/>
      <point x="297" y="326" type="qcurve"/>
      <point x="294" y="327"/>
      <point x="290" y="328" type="qcurve"/>
      <point x="267" y="314"/>
      <point x="244" y="304" type="qcurve"/>
      <point x="185" y="279"/>
      <point x="156" y="277" type="qcurve"/>
      <point x="156" y="277"/>
      <point x="146" y="276"/>
      <point x="141" y="276"/>
      <point x="130" y="277"/>
      <point x="123" y="280"/>
      <point x="116" y="285"/>
      <point x="111" y="294"/>
      <point x="110" y="300" type="qcurve"/>
      <point x="109" y="308"/>
      <point x="114" y="321"/>
      <point x="127" y="331"/>
      <point x="137" y="337"/>
      <point x="156" y="346"/>
      <point x="159" y="348" type="qcurve"/>
      <point x="203" y="371"/>
      <point x="253" y="371" type="qcurve"/>
      <point x="267" y="371"/>
      <point x="280" y="369" type="qcurve"/>
      <point x="284" y="372"/>
      <point x="287" y="375" type="qcurve"/>
      <point x="304" y="387"/>
      <point x="319" y="403" type="qcurve"/>
      <point x="358" y="442"/>
      <point x="370" y="476" type="qcurve"/>
      <point x="380" y="508"/>
      <point x="362" y="582"/>
      <point x="346" y="598" type="qcurve"/>
      <point x="329" y="614"/>
      <point x="289" y="622" type="qcurve"/>
      <point x="248" y="629"/>
      <point x="193" y="610" type="qcurve"/>
      <point x="136" y="589"/>
      <point x="120" y="577" type="qcurve"/>
      <point x="101" y="563" type="line"/>
      <point x="95" y="558"/>
      <point x="88" y="559" type="qcurve"/>
      <point x="88" y="554" type="line"/>
      <point x="87" y="542"/>
      <point x="86" y="477" type="qcurve"/>
      <point x="85" y="413"/>
      <point x="88" y="331" type="qcurve"/>
      <point x="92" y="251"/>
      <point x="102" y="180" type="qcurve"/>
      <point x="113" y="108"/>
      <point x="116" y="79" type="qcurve"/>
    </contour>
  </outline>
</glyph>
<glyph name="C" format="1">
  <advance width="569"/>
  <unicode hex="0043"/>
  <outline>
    <contour>
      <point x="446" y="426" type="qcurve"/>
      <point x="440" y="440" type="line"/>
      <point x="435" y="454"/>
      <point x="422" y="490" type="qcurve"/>
      <point x="411" y="522"/>
      <point x="385" y="550" type="qcurve"/>
      <point x="360" y="576"/>
      <point x="267" y="597"/>
      <point x="227" y="581" type="qcurve"/>
      <point x="185" y="564"/>
      <point x="150" y="528" type="qcurve"/>
      <point x="115" y="492"/>
      <point x="95" y="450" type="qcurve"/>
      <point x="76" y="408"/>
      <point x="73" y="368" type="qcurve"/>
      <point x="69" y="328"/>
      <point x="85" y="278" type="qcurve"/>
      <point x="102" y="226"/>
      <point x="133" y="171" type="qcurve"/>
      <point x="163" y="117"/>
      <point x="223" y="68"/>
      <point x="259" y="56" type="qcurve"/>
      <point x="291" y="46"/>
      <point x="337" y="68" type="qcurve"/>
      <point x="386" y="92"/>
      <point x="424" y="144" type="qcurve"/>
      <point x="463" y="198"/>
      <point x="481" y="246" type="qcurve"/>
      <point x="499" y="298" type="line"/>
      <point x="501" y="305"/>
      <point x="517" y="312"/>
      <point x="532" y="307"/>
      <point x="539" y="292"/>
      <point x="536" y="284" type="qcurve"/>
      <point x="518" y="233" type="line"/>
      <point x="499" y="179"/>
      <point x="456" y="121" type="qcurve"/>
      <point x="412" y="61"/>
      <point x="355" y="32" type="qcurve"/>
      <point x="294" y="3"/>
      <point x="247" y="18" type="qcurve"/>
      <point x="203" y="33"/>
      <point x="131" y="91"/>
      <point x="98" y="151" type="qcurve"/>
      <point x="65" y="210"/>
      <point x="47" y="266" type="qcurve"/>
      <point x="29" y="324"/>
      <point x="33" y="371" type="qcurve"/>
      <point x="36" y="418"/>
      <point x="59" y="467" type="qcurve"/>
      <point x="82" y="515"/>
      <point x="122" y="556" type="qcurve"/>
      <point x="162" y="598"/>
      <point x="212" y="618" type="qcurve"/>
      <point x="264" y="638"/>
      <point x="381" y="612"/>
      <point x="414" y="577" type="qcurve"/>
      <point x="446" y="543"/>
      <point x="460" y="503" type="qcurve"/>
      <point x="472" y="468"/>
      <point x="478" y="454" type="qcurve"/>
      <point x="483" y="440" type="line"/>
      <point x="486" y="433"/>
      <point x="479" y="417"/>
      <point x="464" y="411"/>
      <point x="449" y="418"/>
    </contour>
  </outline>
</glyph>
<glyph name="D" format="1">
  <advance width="566"/>
  <unicode hex="0044"/>
  <outline>
    <contour>
      <point x="85" y="547" type="qcurve"/>
      <point x="82" y="555"/>
      <point x="90" y="569"/>
      <point x="98" y="572" type="qcurve"/>
      <point x="100" y="572" type="line"/>
      <point x="107" y="578"/>
      <point x="116" y="577" type="qcurve"/>
      <point x="147" y="586" type="line"/>
      <point x="198" y="601"/>
      <point x="254" y="605" type="qcurve"/>
      <point x="313" y="610"/>
      <point x="381" y="583" type="qcurve"/>
      <point x="452" y="555"/>
      <point x="492" y="484" type="qcurve"/>
      <point x="531" y="414"/>
      <point x="534" y="342" type="qcurve"/>
      <point x="537" y="270"/>
      <point x="485" y="130"/>
      <point x="435" y="79" type="qcurve"/>
      <point x="384" y="27"/>
      <point x="248" y="-9"/>
      <point x="176" y="12" type="qcurve"/>
      <point x="159" y="17"/>
      <point x="144" y="23" type="qcurve"/>
      <point x="144" y="15" type="line"/>
      <point x="144" y="7"/>
      <point x="131" y="-4"/>
      <point x="115" y="-4"/>
      <point x="104" y="9"/>
      <point x="104" y="17" type="qcurve"/>
      <point x="104" y="25" type="line"/>
      <point x="104" y="28"/>
      <point x="104" y="39" type="qcurve"/>
      <point x="86" y="47"/>
      <point x="73" y="56" type="qcurve"/>
      <point x="41" y="77" type="line"/>
      <point x="34" y="82"/>
      <point x="31" y="98"/>
      <point x="40" y="112"/>
      <point x="56" y="115"/>
      <point x="63" y="110" type="qcurve"/>
      <point x="95" y="89" type="line"/>
      <point x="97" y="88"/>
      <point x="99" y="86" type="qcurve"/>
      <point x="95" y="134"/>
      <point x="88" y="215" type="qcurve"/>
      <point x="81" y="303"/>
      <point x="82" y="391" type="qcurve"/>
      <point x="83" y="479"/>
      <point x="88" y="520" type="qcurve"/>
      <point x="90" y="538" type="line"/>
      <point x="86" y="542"/>
    </contour>
    <contour>
      <point x="141" y="66" type="qcurve"/>
      <point x="162" y="58"/>
      <point x="188" y="50" type="qcurve"/>
      <point x="248" y="32"/>
      <point x="363" y="62"/>
      <point x="406" y="107" type="qcurve"/>
      <point x="450" y="152"/>
      <point x="497" y="277"/>
      <point x="494" y="340" type="qcurve"/>
      <point x="491" y="403"/>
      <point x="457" y="464" type="qcurve"/>
      <point x="424" y="523"/>
      <point x="366" y="545" type="qcurve"/>
      <point x="306" y="569"/>
      <point x="257" y="566" type="qcurve"/>
      <point x="205" y="562"/>
      <point x="158" y="548" type="qcurve"/>
      <point x="131" y="540" type="line"/>
      <point x="128" y="515" type="line"/>
      <point x="122" y="476"/>
      <point x="122" y="391" type="qcurve"/>
      <point x="121" y="305"/>
      <point x="128" y="218" type="qcurve"/>
      <point x="135" y="131"/>
      <point x="140" y="83" type="qcurve"/>
      <point x="141" y="73"/>
    </contour>
  </outline>
</glyph>
<glyph name="E" format="1">
  <advance width="550"/>
  <unicode hex="0045"/>
  <outline>
    <contour>
      <point x="50" y="584" type="qcurve"/>
      <point x="56" y="584" type="line"/>
      <point x="63" y="585"/>
      <point x="118" y="591" type="qcurve"/>
      <point x="173" y="597"/>
      <point x="282" y="607"/>
      <point x="374" y="615" type="qcurve"/>
      <point x="465" y="622"/>
      <point x="480" y="625" type="qcurve"/>
      <point x="495" y="627" type="line"/>
      <point x="503" y="628"/>
      <point x="517" y="618"/>
      <point x="519" y="602"/>
      <point x="509" y="589"/>
      <point x="501" y="587" type="qcurve"/>
      <point x="486" y="585" type="line"/>
      <point x="470" y="583"/>
      <point x="377" y="575" type="qcurve"/>
      <point x="285" y="567"/>
      <point x="177" y="557"/>
      <point x="122" y="551" type="qcurve"/>
      <point x="108" y="550"/>
      <point x="99" y="549" type="qcurve"/>
      <point x="108" y="542"/>
      <point x="107" y="532" type="qcurve"/>
      <point x="105" y="489" type="line"/>
      <point x="103" y="447"/>
      <point x="104" y="364" type="qcurve"/>
      <point x="104" y="363"/>
      <point x="104" y="360"/>
      <point x="104" y="360" type="qcurve"/>
      <point x="119" y="358" type="line"/>
      <point x="133" y="356"/>
      <point x="173" y="356" type="qcurve"/>
      <point x="215" y="356"/>
      <point x="277" y="357" type="qcurve"/>
      <point x="337" y="358"/>
      <point x="349" y="362" type="qcurve"/>
      <point x="364" y="368" type="line"/>
      <point x="372" y="371"/>
      <point x="387" y="365"/>
      <point x="393" y="349"/>
      <point x="386" y="334"/>
      <point x="379" y="331" type="qcurve"/>
      <point x="363" y="325" type="line"/>
      <point x="344" y="318"/>
      <point x="278" y="317" type="qcurve"/>
      <point x="215" y="316"/>
      <point x="173" y="316" type="qcurve"/>
      <point x="130" y="316"/>
      <point x="114" y="318" type="qcurve"/>
      <point x="105" y="319" type="line"/>
      <point x="105" y="260"/>
      <point x="107" y="203" type="qcurve"/>
      <point x="109" y="127"/>
      <point x="115" y="97" type="qcurve"/>
      <point x="121" y="69"/>
      <point x="128" y="57" type="qcurve"/>
      <point x="133" y="48"/>
      <point x="145" y="44" type="qcurve"/>
      <point x="160" y="38"/>
      <point x="218" y="43" type="qcurve"/>
      <point x="281" y="49"/>
      <point x="340" y="50" type="qcurve"/>
      <point x="398" y="51"/>
      <point x="435" y="52" type="qcurve"/>
      <point x="472" y="53"/>
      <point x="482" y="55" type="qcurve"/>
      <point x="494" y="57" type="line"/>
      <point x="502" y="58"/>
      <point x="515" y="48"/>
      <point x="518" y="32"/>
      <point x="508" y="18"/>
      <point x="500" y="17" type="qcurve"/>
      <point x="489" y="15" type="line"/>
      <point x="476" y="13"/>
      <point x="437" y="12" type="qcurve"/>
      <point x="399" y="11"/>
      <point x="341" y="10" type="qcurve"/>
      <point x="283" y="9"/>
      <point x="221" y="3" type="qcurve"/>
      <point x="154" y="-3"/>
      <point x="131" y="6" type="qcurve"/>
      <point x="105" y="16"/>
      <point x="93" y="37" type="qcurve"/>
      <point x="83" y="54"/>
      <point x="76" y="89" type="qcurve"/>
      <point x="69" y="122"/>
      <point x="67" y="202" type="qcurve"/>
      <point x="65" y="280"/>
      <point x="64" y="364" type="qcurve"/>
      <point x="63" y="448"/>
      <point x="65" y="491" type="qcurve"/>
      <point x="67" y="534" type="line"/>
      <point x="68" y="541"/>
      <point x="72" y="546" type="qcurve"/>
      <point x="63" y="545"/>
      <point x="60" y="545" type="qcurve"/>
      <point x="54" y="544" type="line"/>
      <point x="46" y="543"/>
      <point x="33" y="554"/>
      <point x="31" y="570"/>
      <point x="42" y="583"/>
    </contour>
  </outline>
</glyph>
<glyph name="F" format="1">
  <advance width="474"/>
  <unicode hex="0046"/>
  <outline>
    <contour>
      <point x="35" y="544" type="qcurve"/>
      <point x="31" y="551"/>
      <point x="36" y="567"/>
      <point x="43" y="571" type="qcurve"/>
      <point x="47" y="573" type="line"/>
      <point x="50" y="591" type="line"/>
      <point x="51" y="599"/>
      <point x="64" y="609"/>
      <point x="72" y="608" type="qcurve"/>
      <point x="87" y="606"/>
      <point x="89" y="591" type="qcurve"/>
      <point x="101" y="596"/>
      <point x="120" y="602" type="qcurve"/>
      <point x="176" y="622"/>
      <point x="251" y="635" type="qcurve"/>
      <point x="328" y="649"/>
      <point x="346" y="647" type="qcurve"/>
      <point x="361" y="646" type="line"/>
      <point x="369" y="645"/>
      <point x="380" y="633"/>
      <point x="379" y="616"/>
      <point x="366" y="605"/>
      <point x="358" y="606" type="qcurve"/>
      <point x="343" y="607" type="line"/>
      <point x="330" y="608"/>
      <point x="258" y="596" type="qcurve"/>
      <point x="185" y="583"/>
      <point x="134" y="565" type="qcurve"/>
      <point x="104" y="554"/>
      <point x="84" y="547" type="qcurve"/>
      <point x="83" y="531"/>
      <point x="81" y="508" type="qcurve"/>
      <point x="78" y="468"/>
      <point x="74" y="370" type="qcurve"/>
      <point x="72" y="330"/>
      <point x="72" y="293" type="qcurve"/>
      <point x="74" y="294"/>
      <point x="77" y="295" type="qcurve"/>
      <point x="132" y="306" type="line"/>
      <point x="188" y="317"/>
      <point x="338" y="338"/>
      <point x="380" y="340" type="qcurve"/>
      <point x="422" y="343" type="line"/>
      <point x="430" y="343"/>
      <point x="442" y="332"/>
      <point x="443" y="316"/>
      <point x="432" y="303"/>
      <point x="424" y="303" type="qcurve"/>
      <point x="382" y="300" type="line"/>
      <point x="341" y="298"/>
      <point x="268" y="288" type="qcurve"/>
      <point x="194" y="278"/>
      <point x="140" y="267" type="qcurve"/>
      <point x="85" y="256" type="line"/>
      <point x="78" y="254"/>
      <point x="72" y="257" type="qcurve"/>
      <point x="73" y="226"/>
      <point x="75" y="198" type="qcurve"/>
      <point x="80" y="124"/>
      <point x="87" y="88" type="qcurve"/>
      <point x="94" y="53"/>
      <point x="98" y="42" type="qcurve"/>
      <point x="103" y="30" type="line"/>
      <point x="106" y="22"/>
      <point x="99" y="7"/>
      <point x="83" y="1"/>
      <point x="68" y="8"/>
      <point x="65" y="16" type="qcurve"/>
      <point x="61" y="28" type="line"/>
      <point x="55" y="42"/>
      <point x="48" y="81" type="qcurve"/>
      <point x="40" y="118"/>
      <point x="30" y="273"/>
      <point x="38" y="471"/>
      <point x="41" y="511" type="qcurve"/>
      <point x="42" y="525"/>
      <point x="43" y="536" type="qcurve"/>
      <point x="38" y="539"/>
    </contour>
  </outline>
</glyph>
<glyph name="G" format="1">
  <advance width="596"/>
  <unicode hex="0047"/>
  <outline>
    <contour>
      <point x="418" y="401" type="qcurve"/>
      <point x="418" y="409" type="line"/>
      <point x="418" y="414"/>
      <point x="412" y="444" type="qcurve"/>
      <point x="408" y="472"/>
      <point x="388" y="512" type="qcurve"/>
      <point x="370" y="549"/>
      <point x="338" y="566" type="qcurve"/>
      <point x="308" y="583"/>
      <point x="237" y="562" type="qcurve"/>
      <point x="163" y="541"/>
      <point x="126" y="496" type="qcurve"/>
      <point x="88" y="450"/>
      <point x="77" y="417" type="qcurve"/>
      <point x="67" y="385"/>
      <point x="77" y="329" type="qcurve"/>
      <point x="88" y="271"/>
      <point x="123" y="216" type="qcurve"/>
      <point x="159" y="160"/>
      <point x="203" y="121" type="qcurve"/>
      <point x="246" y="84"/>
      <point x="290" y="77" type="qcurve"/>
      <point x="331" y="71"/>
      <point x="410" y="137"/>
      <point x="412" y="183"/>
      <point x="382" y="213" type="qcurve"/>
      <point x="349" y="246"/>
      <point x="308" y="257" type="qcurve"/>
      <point x="263" y="269"/>
      <point x="249" y="269" type="qcurve"/>
      <point x="235" y="264"/>
      <point x="225" y="280" type="qcurve"/>
      <point x="217" y="294"/>
      <point x="224" y="309"/>
      <point x="233" y="311" type="qcurve"/>
      <point x="242" y="314" type="line"/>
      <point x="258" y="319"/>
      <point x="311" y="331" type="qcurve"/>
      <point x="363" y="344"/>
      <point x="403" y="354" type="qcurve"/>
      <point x="447" y="365"/>
      <point x="459" y="364" type="qcurve"/>
      <point x="479" y="361"/>
      <point x="489" y="342" type="qcurve"/>
      <point x="494" y="331"/>
      <point x="510" y="273" type="qcurve"/>
      <point x="525" y="216"/>
      <point x="532" y="141" type="qcurve"/>
      <point x="538" y="69"/>
      <point x="547" y="28" type="qcurve"/>
      <point x="554" y="-5"/>
      <point x="558" y="-13" type="qcurve"/>
      <point x="561" y="-19" type="line"/>
      <point x="566" y="-26"/>
      <point x="562" y="-42"/>
      <point x="549" y="-51"/>
      <point x="532" y="-47"/>
      <point x="528" y="-41" type="qcurve"/>
      <point x="524" y="-34" type="line"/>
      <point x="518" y="-25"/>
      <point x="508" y="20" type="qcurve"/>
      <point x="499" y="63"/>
      <point x="492" y="137" type="qcurve"/>
      <point x="485" y="209"/>
      <point x="471" y="263" type="qcurve"/>
      <point x="458" y="313"/>
      <point x="453" y="324" type="qcurve"/>
      <point x="441" y="322"/>
      <point x="413" y="315" type="qcurve"/>
      <point x="375" y="305"/>
      <point x="325" y="294" type="qcurve"/>
      <point x="373" y="279"/>
      <point x="410" y="242" type="qcurve"/>
      <point x="453" y="199"/>
      <point x="449" y="118"/>
      <point x="343" y="29"/>
      <point x="284" y="38" type="qcurve"/>
      <point x="228" y="46"/>
      <point x="177" y="91" type="qcurve"/>
      <point x="128" y="134"/>
      <point x="89" y="194" type="qcurve"/>
      <point x="50" y="256"/>
      <point x="38" y="321" type="qcurve"/>
      <point x="26" y="388"/>
      <point x="39" y="429" type="qcurve"/>
      <point x="52" y="469"/>
      <point x="96" y="522" type="qcurve"/>
      <point x="141" y="576"/>
      <point x="226" y="601" type="qcurve"/>
      <point x="313" y="626"/>
      <point x="358" y="601" type="qcurve"/>
      <point x="400" y="578"/>
      <point x="424" y="530" type="qcurve"/>
      <point x="446" y="485"/>
      <point x="452" y="450" type="qcurve"/>
      <point x="458" y="417"/>
      <point x="458" y="408" type="qcurve"/>
      <point x="458" y="401" type="line"/>
      <point x="458" y="393"/>
      <point x="446" y="381"/>
      <point x="429" y="381"/>
      <point x="418" y="393"/>
    </contour>
  </outline>
</glyph>
<glyph name="H" format="1">
  <advance width="527"/>
  <unicode hex="0048"/>
  <outline>
    <contour>
      <point x="46" y="272" type="qcurve"/>
      <point x="55" y="275" type="line"/>
      <point x="58" y="276"/>
      <point x="68" y="280" type="qcurve"/>
      <point x="68" y="281"/>
      <point x="67" y="284" type="qcurve"/>
      <point x="51" y="404"/>
      <point x="47" y="482" type="qcurve"/>
      <point x="43" y="558"/>
      <point x="43" y="571" type="qcurve"/>
      <point x="42" y="583" type="line"/>
      <point x="42" y="591"/>
      <point x="53" y="603"/>
      <point x="70" y="604"/>
      <point x="82" y="592"/>
      <point x="82" y="584" type="qcurve"/>
      <point x="83" y="572" type="line"/>
      <point x="83" y="560"/>
      <point x="87" y="484" type="qcurve"/>
      <point x="91" y="409"/>
      <point x="107" y="293" type="qcurve"/>
      <point x="125" y="299"/>
      <point x="154" y="309" type="qcurve"/>
      <point x="245" y="339"/>
      <point x="326" y="354" type="qcurve"/>
      <point x="364" y="360"/>
      <point x="391" y="364" type="qcurve"/>
      <point x="391" y="422"/>
      <point x="398" y="478" type="qcurve"/>
      <point x="406" y="538" type="line"/>
      <point x="407" y="546"/>
      <point x="420" y="556"/>
      <point x="436" y="554"/>
      <point x="446" y="541"/>
      <point x="445" y="533" type="qcurve"/>
      <point x="438" y="473" type="line"/>
      <point x="432" y="421"/>
      <point x="431" y="369" type="qcurve"/>
      <point x="436" y="369"/>
      <point x="441" y="369" type="qcurve"/>
      <point x="474" y="370" type="line"/>
      <point x="483" y="371"/>
      <point x="495" y="359"/>
      <point x="496" y="343"/>
      <point x="484" y="331"/>
      <point x="476" y="331" type="qcurve"/>
      <point x="442" y="329" type="line"/>
      <point x="437" y="329"/>
      <point x="431" y="329" type="qcurve"/>
      <point x="432" y="273"/>
      <point x="433" y="196" type="qcurve"/>
      <point x="435" y="99"/>
      <point x="436" y="65" type="qcurve"/>
      <point x="437" y="32" type="line"/>
      <point x="437" y="23"/>
      <point x="426" y="11"/>
      <point x="410" y="11"/>
      <point x="397" y="22"/>
      <point x="397" y="30" type="qcurve"/>
      <point x="396" y="64" type="line"/>
      <point x="395" y="98"/>
      <point x="393" y="195" type="qcurve"/>
      <point x="392" y="270"/>
      <point x="391" y="324" type="qcurve"/>
      <point x="365" y="320"/>
      <point x="333" y="314" type="qcurve"/>
      <point x="255" y="301"/>
      <point x="167" y="271" type="qcurve"/>
      <point x="134" y="260"/>
      <point x="112" y="252" type="qcurve"/>
      <point x="125" y="158"/>
      <point x="139" y="99" type="qcurve"/>
      <point x="154" y="27"/>
      <point x="159" y="11" type="qcurve"/>
      <point x="163" y="-6" type="line"/>
      <point x="165" y="-14"/>
      <point x="157" y="-28"/>
      <point x="141" y="-32"/>
      <point x="127" y="-24"/>
      <point x="125" y="-16" type="qcurve"/>
      <point x="120" y="1" type="line"/>
      <point x="116" y="18"/>
      <point x="100" y="90" type="qcurve"/>
      <point x="86" y="149"/>
      <point x="74" y="239" type="qcurve"/>
      <point x="69" y="238"/>
      <point x="67" y="237" type="qcurve"/>
      <point x="58" y="234" type="line"/>
      <point x="50" y="232"/>
      <point x="35" y="239"/>
      <point x="30" y="255"/>
      <point x="38" y="270"/>
    </contour>
  </outline>
</glyph>
<glyph name="I" format="1">
  <advance width="133"/>
  <unicode hex="0049"/>
  <outline>
    <contour>
      <point x="74" y="597" type="qcurve"/>
      <point x="72" y="590" type="line"/>
      <point x="72" y="581"/>
      <point x="74" y="529" type="qcurve"/>
      <point x="77" y="470"/>
      <point x="83" y="379" type="qcurve"/>
      <point x="88" y="289"/>
      <point x="91" y="174" type="qcurve"/>
      <point x="95" y="60"/>
      <point x="98" y="39" type="qcurve"/>
      <point x="101" y="17" type="line"/>
      <point x="102" y="9"/>
      <point x="92" y="-4"/>
      <point x="76" y="-6"/>
      <point x="62" y="4"/>
      <point x="61" y="12" type="qcurve"/>
      <point x="58" y="34" type="line"/>
      <point x="55" y="57"/>
      <point x="51" y="173" type="qcurve"/>
      <point x="48" y="287"/>
      <point x="43" y="377" type="qcurve"/>
      <point x="37" y="467"/>
      <point x="34" y="527" type="qcurve"/>
      <point x="31" y="588"/>
      <point x="33" y="598" type="qcurve"/>
      <point x="34" y="605" type="line"/>
      <point x="36" y="613"/>
      <point x="50" y="622"/>
      <point x="66" y="619"/>
      <point x="75" y="605"/>
    </contour>
  </outline>
</glyph>
<glyph name="J" format="1">
  <advance width="464"/>
  <unicode hex="004A"/>
  <outline>
    <contour>
      <point x="420" y="583" type="qcurve"/>
      <point x="420" y="560" type="line"/>
      <point x="420" y="537"/>
      <point x="424" y="477" type="qcurve"/>
      <point x="428" y="417"/>
      <point x="431" y="328" type="qcurve"/>
      <point x="435" y="237"/>
      <point x="427" y="188" type="qcurve"/>
      <point x="419" y="137"/>
      <point x="395" y="99" type="qcurve"/>
      <point x="370" y="59"/>
      <point x="326" y="38" type="qcurve"/>
      <point x="282" y="16"/>
      <point x="240" y="18" type="qcurve"/>
      <point x="200" y="21"/>
      <point x="163" y="36" type="qcurve"/>
      <point x="125" y="52"/>
      <point x="89" y="91" type="qcurve"/>
      <point x="53" y="129"/>
      <point x="43" y="152" type="qcurve"/>
      <point x="34" y="171" type="line"/>
      <point x="30" y="179"/>
      <point x="36" y="194"/>
      <point x="51" y="201"/>
      <point x="67" y="195"/>
      <point x="70" y="188" type="qcurve"/>
      <point x="79" y="168" type="line"/>
      <point x="87" y="151"/>
      <point x="118" y="118" type="qcurve"/>
      <point x="148" y="86"/>
      <point x="178" y="73" type="qcurve"/>
      <point x="209" y="60"/>
      <point x="242" y="58" type="qcurve"/>
      <point x="274" y="56"/>
      <point x="308" y="73" type="qcurve"/>
      <point x="342" y="90"/>
      <point x="361" y="120" type="qcurve"/>
      <point x="381" y="151"/>
      <point x="387" y="194" type="qcurve"/>
      <point x="394" y="240"/>
      <point x="391" y="326" type="qcurve"/>
      <point x="388" y="415"/>
      <point x="384" y="475" type="qcurve"/>
      <point x="380" y="535"/>
      <point x="380" y="560" type="qcurve"/>
      <point x="380" y="584" type="line"/>
      <point x="380" y="592"/>
      <point x="392" y="604"/>
      <point x="409" y="603"/>
      <point x="420" y="591"/>
    </contour>
  </outline>
</glyph>
<glyph name="K" format="1">
  <advance width="527"/>
  <unicode hex="004B"/>
  <outline>
    <contour>
      <point x="391" y="616" type="qcurve"/>
      <point x="348" y="566" type="line"/>
      <point x="305" y="516"/>
      <point x="270" y="469" type="qcurve"/>
      <point x="234" y="420"/>
      <point x="190" y="371" type="qcurve"/>
      <point x="145" y="322"/>
      <point x="114" y="298" type="qcurve"/>
      <point x="113" y="297"/>
      <point x="110" y="295" type="qcurve"/>
      <point x="129" y="285"/>
      <point x="163" y="266" type="qcurve"/>
      <point x="216" y="237"/>
      <point x="265" y="200" type="qcurve"/>
      <point x="314" y="164"/>
      <point x="355" y="134" type="qcurve"/>
      <point x="396" y="103"/>
      <point x="412" y="92" type="qcurve"/>
      <point x="430" y="80"/>
      <point x="458" y="60"/>
      <point x="467" y="54" type="qcurve"/>
      <point x="476" y="47"/>
      <point x="483" y="40" type="qcurve"/>
      <point x="489" y="35" type="line"/>
      <point x="495" y="29"/>
      <point x="496" y="13"/>
      <point x="485" y="1"/>
      <point x="468" y="0"/>
      <point x="462" y="5" type="qcurve"/>
      <point x="456" y="11" type="line"/>
      <point x="450" y="16"/>
      <point x="443" y="22" type="qcurve"/>
      <point x="434" y="28"/>
      <point x="408" y="47"/>
      <point x="390" y="59" type="qcurve"/>
      <point x="373" y="71"/>
      <point x="331" y="101" type="qcurve"/>
      <point x="290" y="132"/>
      <point x="242" y="168" type="qcurve"/>
      <point x="194" y="203"/>
      <point x="144" y="231" type="qcurve"/>
      <point x="92" y="260"/>
      <point x="79" y="266" type="qcurve"/>
      <point x="78" y="267"/>
      <point x="77" y="267" type="qcurve"/>
      <point x="76" y="245"/>
      <point x="75" y="223" type="qcurve"/>
      <point x="71" y="145"/>
      <point x="72" y="106" type="qcurve"/>
      <point x="73" y="66" type="line"/>
      <point x="73" y="58"/>
      <point x="62" y="45"/>
      <point x="46" y="45"/>
      <point x="33" y="57"/>
      <point x="33" y="65" type="qcurve"/>
      <point x="32" y="105" type="line"/>
      <point x="31" y="146"/>
      <point x="35" y="225" type="qcurve"/>
      <point x="39" y="304"/>
      <point x="44" y="401" type="qcurve"/>
      <point x="50" y="497"/>
      <point x="52" y="553" type="qcurve"/>
      <point x="54" y="612"/>
      <point x="56" y="622" type="qcurve"/>
      <point x="58" y="630" type="line"/>
      <point x="60" y="638"/>
      <point x="74" y="647"/>
      <point x="90" y="643"/>
      <point x="99" y="629"/>
      <point x="97" y="621" type="qcurve"/>
      <point x="95" y="613" type="line"/>
      <point x="94" y="604"/>
      <point x="92" y="552" type="qcurve"/>
      <point x="90" y="496"/>
      <point x="84" y="399" type="qcurve"/>
      <point x="82" y="359"/>
      <point x="80" y="321" type="qcurve"/>
      <point x="84" y="325"/>
      <point x="90" y="329" type="qcurve"/>
      <point x="117" y="351"/>
      <point x="160" y="398" type="qcurve"/>
      <point x="203" y="446"/>
      <point x="238" y="493" type="qcurve"/>
      <point x="274" y="541"/>
      <point x="318" y="592" type="qcurve"/>
      <point x="361" y="642" type="line"/>
      <point x="366" y="649"/>
      <point x="383" y="650"/>
      <point x="395" y="639"/>
      <point x="396" y="623"/>
    </contour>
  </outline>
</glyph>
<glyph name="L" format="1">
  <advance width="506"/>
  <unicode hex="004C"/>
  <outline>
    <contour>
      <point x="88" y="613" type="qcurve"/>
      <point x="85" y="600" type="line"/>
      <point x="82" y="588"/>
      <point x="79" y="535" type="qcurve"/>
      <point x="76" y="480"/>
      <point x="74" y="387" type="qcurve"/>
      <point x="71" y="295"/>
      <point x="73" y="218" type="qcurve"/>
      <point x="75" y="141"/>
      <point x="80" y="105" type="qcurve"/>
      <point x="85" y="75"/>
      <point x="100" y="59" type="qcurve"/>
      <point x="116" y="43"/>
      <point x="157" y="33" type="qcurve"/>
      <point x="200" y="23"/>
      <point x="275" y="29" type="qcurve"/>
      <point x="351" y="36"/>
      <point x="393" y="46" type="qcurve"/>
      <point x="438" y="57"/>
      <point x="447" y="57" type="qcurve"/>
      <point x="454" y="57" type="line"/>
      <point x="462" y="57"/>
      <point x="474" y="46"/>
      <point x="474" y="30"/>
      <point x="463" y="17"/>
      <point x="455" y="17" type="qcurve"/>
      <point x="448" y="17" type="line"/>
      <point x="440" y="16"/>
      <point x="402" y="7" type="qcurve"/>
      <point x="358" y="-4"/>
      <point x="278" y="-11" type="qcurve"/>
      <point x="197" y="-18"/>
      <point x="148" y="-6" type="qcurve"/>
      <point x="95" y="7"/>
      <point x="48" y="56"/>
      <point x="41" y="99" type="qcurve"/>
      <point x="35" y="138"/>
      <point x="31" y="295"/>
      <point x="34" y="388" type="qcurve"/>
      <point x="36" y="481"/>
      <point x="39" y="537" type="qcurve"/>
      <point x="42" y="593"/>
      <point x="46" y="609" type="qcurve"/>
      <point x="49" y="622" type="line"/>
      <point x="51" y="630"/>
      <point x="65" y="639"/>
      <point x="81" y="636"/>
      <point x="90" y="621"/>
    </contour>
  </outline>
</glyph>
<glyph name="M" format="1">
  <advance width="690"/>
  <unicode hex="004D"/>
  <outline>
    <contour>
      <point x="38" y="46" type="qcurve"/>
      <point x="35" y="78" type="line"/>
      <point x="33" y="111"/>
      <point x="32" y="188" type="qcurve"/>
      <point x="32" y="264"/>
      <point x="33" y="329" type="qcurve"/>
      <point x="35" y="395"/>
      <point x="37" y="470" type="qcurve"/>
      <point x="39" y="545"/>
      <point x="42" y="583" type="qcurve"/>
      <point x="44" y="619"/>
      <point x="44" y="625" type="qcurve"/>
      <point x="44" y="638"/>
      <point x="55" y="647"/>
      <point x="69" y="643"/>
      <point x="84" y="635"/>
      <point x="89" y="630" type="qcurve"/>
      <point x="94" y="626" type="line"/>
      <point x="108" y="608"/>
      <point x="131" y="576" type="qcurve"/>
      <point x="155" y="544"/>
      <point x="183" y="498" type="qcurve"/>
      <point x="212" y="452"/>
      <point x="237" y="407" type="qcurve"/>
      <point x="262" y="364"/>
      <point x="292" y="316" type="qcurve"/>
      <point x="323" y="268"/>
      <point x="341" y="230" type="qcurve"/>
      <point x="359" y="194"/>
      <point x="372" y="174" type="qcurve"/>
      <point x="375" y="169"/>
      <point x="378" y="165" type="qcurve"/>
      <point x="383" y="182"/>
      <point x="390" y="207" type="qcurve"/>
      <point x="411" y="280"/>
      <point x="439" y="347" type="qcurve"/>
      <point x="466" y="414"/>
      <point x="501" y="482" type="qcurve"/>
      <point x="535" y="550"/>
      <point x="561" y="599" type="qcurve"/>
      <point x="561" y="600"/>
      <point x="568" y="616"/>
      <point x="572" y="622"/>
      <point x="580" y="632"/>
      <point x="590" y="636"/>
      <point x="597" y="637" type="qcurve"/>
      <point x="602" y="637"/>
      <point x="610" y="635"/>
      <point x="616" y="631"/>
      <point x="620" y="626"/>
      <point x="622" y="620"/>
      <point x="624" y="614"/>
      <point x="624" y="608"/>
      <point x="624" y="604"/>
      <point x="624" y="599"/>
      <point x="624" y="599" type="qcurve"/>
      <point x="625" y="559"/>
      <point x="623" y="506" type="qcurve"/>
      <point x="622" y="454"/>
      <point x="626" y="399" type="qcurve"/>
      <point x="630" y="344"/>
      <point x="635" y="254" type="qcurve"/>
      <point x="640" y="166"/>
      <point x="646" y="125" type="qcurve"/>
      <point x="651" y="83"/>
      <point x="653" y="70" type="qcurve"/>
      <point x="655" y="55"/>
      <point x="656" y="43" type="qcurve"/>
      <point x="656" y="32"/>
      <point x="657" y="18" type="qcurve"/>
      <point x="659" y="3" type="line"/>
      <point x="659" y="-5"/>
      <point x="648" y="-18"/>
      <point x="632" y="-19"/>
      <point x="619" y="-8"/>
      <point x="619" y="0" type="qcurve"/>
      <point x="617" y="15" type="line"/>
      <point x="616" y="30"/>
      <point x="616" y="41" type="qcurve"/>
      <point x="615" y="51"/>
      <point x="613" y="64" type="qcurve"/>
      <point x="611" y="78"/>
      <point x="606" y="120" type="qcurve"/>
      <point x="601" y="162"/>
      <point x="595" y="252" type="qcurve"/>
      <point x="590" y="341"/>
      <point x="586" y="397" type="qcurve"/>
      <point x="582" y="453"/>
      <point x="583" y="507" type="qcurve"/>
      <point x="584" y="534"/>
      <point x="584" y="558" type="qcurve"/>
      <point x="563" y="515"/>
      <point x="537" y="464" type="qcurve"/>
      <point x="503" y="398"/>
      <point x="449" y="267"/>
      <point x="429" y="196" type="qcurve"/>
      <point x="408" y="124"/>
      <point x="404" y="115" type="qcurve"/>
      <point x="402" y="109"/>
      <point x="384" y="98"/>
      <point x="374" y="103" type="qcurve"/>
      <point x="365" y="107"/>
      <point x="358" y="119" type="qcurve"/>
      <point x="352" y="131"/>
      <point x="339" y="152" type="qcurve"/>
      <point x="324" y="175"/>
      <point x="306" y="212" type="qcurve"/>
      <point x="288" y="248"/>
      <point x="258" y="295" type="qcurve"/>
      <point x="228" y="343"/>
      <point x="205" y="383" type="qcurve"/>
      <point x="178" y="431"/>
      <point x="149" y="477" type="qcurve"/>
      <point x="121" y="522"/>
      <point x="99" y="553" type="qcurve"/>
      <point x="89" y="566"/>
      <point x="81" y="576" type="qcurve"/>
      <point x="79" y="540"/>
      <point x="77" y="469" type="qcurve"/>
      <point x="75" y="392"/>
      <point x="73" y="328" type="qcurve"/>
      <point x="72" y="263"/>
      <point x="72" y="188" type="qcurve"/>
      <point x="73" y="113"/>
      <point x="75" y="82" type="qcurve"/>
      <point x="78" y="50" type="line"/>
      <point x="78" y="41"/>
      <point x="67" y="29"/>
      <point x="51" y="27"/>
      <point x="38" y="38"/>
    </contour>
  </outline>
</glyph>
<glyph name="N" format="1">
  <advance width="543"/>
  <unicode hex="004E"/>
  <outline>
    <contour>
      <point x="75" y="560" type="line"/>
      <point x="74" y="545" type="line"/>
      <point x="73" y="496"/>
      <point x="72" y="401" type="qcurve"/>
      <point x="71" y="306"/>
      <point x="76" y="194" type="qcurve"/>
      <point x="82" y="82"/>
      <point x="82" y="53" type="qcurve"/>
      <point x="82" y="26"/>
      <point x="83" y="20" type="qcurve"/>
      <point x="84" y="13" type="line"/>
      <point x="85" y="5"/>
      <point x="74" y="-8"/>
      <point x="58" y="-10"/>
      <point x="45" y="1"/>
      <point x="44" y="9" type="qcurve"/>
      <point x="43" y="16" type="line"/>
      <point x="42" y="24"/>
      <point x="42" y="53" type="qcurve"/>
      <point x="42" y="80"/>
      <point x="36" y="192" type="qcurve"/>
      <point x="31" y="305"/>
      <point x="32" y="401" type="qcurve"/>
      <point x="33" y="497"/>
      <point x="34" y="546" type="qcurve"/>
      <point x="36" y="595" type="line"/>
      <point x="36" y="603"/>
      <point x="48" y="614"/>
      <point x="64" y="614"/>
      <point x="70" y="608" type="qcurve"/>
      <point x="77" y="611"/>
      <point x="92" y="607"/>
      <point x="96" y="601" type="qcurve"/>
      <point x="121" y="562" type="line"/>
      <point x="145" y="522"/>
      <point x="247" y="357"/>
      <point x="288" y="289" type="qcurve"/>
      <point x="329" y="221"/>
      <point x="405" y="112"/>
      <point x="428" y="85" type="qcurve"/>
      <point x="439" y="71"/>
      <point x="448" y="60" type="qcurve"/>
      <point x="449" y="66"/>
      <point x="449" y="69" type="qcurve"/>
      <point x="453" y="115"/>
      <point x="462" y="258"/>
      <point x="463" y="337" type="qcurve"/>
      <point x="465" y="416"/>
      <point x="468" y="475" type="qcurve"/>
      <point x="471" y="533"/>
      <point x="471" y="575" type="qcurve"/>
      <point x="472" y="617"/>
      <point x="471" y="624" type="qcurve"/>
      <point x="470" y="633" type="line"/>
      <point x="470" y="641"/>
      <point x="481" y="653"/>
      <point x="497" y="655"/>
      <point x="510" y="644"/>
      <point x="510" y="635" type="qcurve"/>
      <point x="511" y="627" type="line"/>
      <point x="512" y="618"/>
      <point x="511" y="574" type="qcurve"/>
      <point x="511" y="531"/>
      <point x="508" y="473" type="qcurve"/>
      <point x="505" y="414"/>
      <point x="503" y="336" type="qcurve"/>
      <point x="501" y="256"/>
      <point x="493" y="112"/>
      <point x="489" y="65" type="qcurve"/>
      <point x="484" y="18"/>
      <point x="483" y="10" type="qcurve"/>
      <point x="479" y="-5"/>
      <point x="446" y="-5"/>
      <point x="441" y="4" type="qcurve"/>
      <point x="437" y="12"/>
      <point x="430" y="20" type="qcurve"/>
      <point x="421" y="31"/>
      <point x="397" y="59" type="qcurve"/>
      <point x="373" y="88"/>
      <point x="296" y="199"/>
      <point x="254" y="268" type="qcurve"/>
      <point x="213" y="337"/>
      <point x="111" y="501"/>
      <point x="87" y="540" type="qcurve"/>
    </contour>
  </outline>
</glyph>
<glyph name="O" format="1">
  <advance width="551"/>
  <unicode hex="004F"/>
  <outline>
    <contour>
      <point x="234" y="582" type="qcurve"/>
      <point x="216" y="575"/>
      <point x="200" y="566" type="qcurve"/>
      <point x="163" y="545"/>
      <point x="84" y="429"/>
      <point x="75" y="378" type="qcurve"/>
      <point x="66" y="328"/>
      <point x="87" y="269" type="qcurve"/>
      <point x="109" y="208"/>
      <point x="148" y="156" type="qcurve"/>
      <point x="186" y="104"/>
      <point x="227" y="78" type="qcurve"/>
      <point x="267" y="53"/>
      <point x="304" y="53" type="qcurve"/>
      <point x="341" y="54"/>
      <point x="373" y="76" type="qcurve"/>
      <point x="407" y="101"/>
      <point x="431" y="136" type="qcurve"/>
      <point x="455" y="172"/>
      <point x="468" y="234" type="qcurve"/>
      <point x="481" y="298"/>
      <point x="477" y="392"/>
      <point x="459" y="452" type="qcurve"/>
      <point x="442" y="510"/>
      <point x="416" y="539" type="qcurve"/>
      <point x="393" y="565"/>
      <point x="327" y="566" type="qcurve"/>
      <point x="253" y="568" type="line"/>
      <point x="239" y="569"/>
    </contour>
    <contour>
      <point x="424" y="584" type="qcurve"/>
      <point x="437" y="576"/>
      <point x="446" y="566" type="qcurve"/>
      <point x="478" y="530"/>
      <point x="498" y="463" type="qcurve"/>
      <point x="517" y="398"/>
      <point x="521" y="295"/>
      <point x="507" y="226" type="qcurve"/>
      <point x="493" y="156"/>
      <point x="464" y="114" type="qcurve"/>
      <point x="436" y="73"/>
      <point x="396" y="44" type="qcurve"/>
      <point x="354" y="14"/>
      <point x="305" y="13" type="qcurve"/>
      <point x="256" y="13"/>
      <point x="206" y="44" type="qcurve"/>
      <point x="158" y="74"/>
      <point x="116" y="132" type="qcurve"/>
      <point x="74" y="189"/>
      <point x="50" y="255" type="qcurve"/>
      <point x="25" y="324"/>
      <point x="35" y="385" type="qcurve"/>
      <point x="46" y="445"/>
      <point x="135" y="575"/>
      <point x="180" y="600" type="qcurve"/>
      <point x="224" y="626"/>
      <point x="274" y="632" type="qcurve"/>
      <point x="305" y="636"/>
      <point x="331" y="635" type="qcurve"/>
      <point x="347" y="635"/>
      <point x="361" y="633" type="qcurve"/>
      <point x="397" y="629"/>
      <point x="411" y="626" type="qcurve"/>
      <point x="424" y="623" type="line"/>
      <point x="432" y="621"/>
      <point x="441" y="606"/>
      <point x="439" y="598" type="qcurve"/>
      <point x="436" y="588"/>
    </contour>
  </outline>
</glyph>
<glyph name="P" format="1">
  <advance width="521"/>
  <unicode hex="0050"/>
  <outline>
    <contour>
      <point x="80" y="607" type="qcurve"/>
      <point x="79" y="592" type="line"/>
      <point x="85" y="596"/>
      <point x="96" y="603" type="qcurve"/>
      <point x="126" y="624"/>
      <point x="180" y="637" type="qcurve"/>
      <point x="233" y="649"/>
      <point x="287" y="643" type="qcurve"/>
      <point x="343" y="636"/>
      <point x="385" y="609" type="qcurve"/>
      <point x="425" y="582"/>
      <point x="450" y="550" type="qcurve"/>
      <point x="474" y="517"/>
      <point x="485" y="475" type="qcurve"/>
      <point x="495" y="431"/>
      <point x="483" y="397" type="qcurve"/>
      <point x="472" y="364"/>
      <point x="442" y="333" type="qcurve"/>
      <point x="413" y="301"/>
      <point x="372" y="283" type="qcurve"/>
      <point x="333" y="266"/>
      <point x="291" y="260" type="qcurve"/>
      <point x="251" y="254"/>
      <point x="154" y="250"/>
      <point x="120" y="251" type="qcurve"/>
      <point x="98" y="252"/>
      <point x="85" y="253" type="qcurve"/>
      <point x="85" y="249"/>
      <point x="85" y="245" type="qcurve"/>
      <point x="94" y="163"/>
      <point x="101" y="100" type="qcurve"/>
      <point x="109" y="38"/>
      <point x="113" y="18" type="qcurve"/>
      <point x="118" y="-3" type="line"/>
      <point x="120" y="-11"/>
      <point x="111" y="-25"/>
      <point x="95" y="-29"/>
      <point x="81" y="-20"/>
      <point x="79" y="-12" type="qcurve"/>
      <point x="74" y="9" type="line"/>
      <point x="69" y="31"/>
      <point x="62" y="95" type="qcurve"/>
      <point x="54" y="159"/>
      <point x="46" y="241" type="qcurve"/>
      <point x="45" y="251"/>
      <point x="44" y="261" type="qcurve"/>
      <point x="36" y="268"/>
      <point x="37" y="278" type="qcurve"/>
      <point x="38" y="284"/>
      <point x="41" y="288" type="qcurve"/>
      <point x="36" y="345"/>
      <point x="34" y="398" type="qcurve"/>
      <point x="30" y="473"/>
      <point x="35" y="543" type="qcurve"/>
      <point x="40" y="610" type="line"/>
      <point x="41" y="619"/>
      <point x="54" y="629"/>
      <point x="70" y="628"/>
      <point x="81" y="615"/>
    </contour>
    <contour>
      <point x="81" y="294" type="qcurve"/>
      <point x="96" y="292"/>
      <point x="122" y="291" type="qcurve"/>
      <point x="154" y="290"/>
      <point x="247" y="294"/>
      <point x="286" y="299" type="qcurve"/>
      <point x="321" y="304"/>
      <point x="356" y="320" type="qcurve"/>
      <point x="390" y="335"/>
      <point x="437" y="385"/>
      <point x="446" y="410" type="qcurve"/>
      <point x="454" y="433"/>
      <point x="446" y="465" type="qcurve"/>
      <point x="438" y="499"/>
      <point x="418" y="525" type="qcurve"/>
      <point x="397" y="552"/>
      <point x="363" y="575" type="qcurve"/>
      <point x="329" y="598"/>
      <point x="283" y="603" type="qcurve"/>
      <point x="235" y="609"/>
      <point x="189" y="598" type="qcurve"/>
      <point x="143" y="587"/>
      <point x="118" y="570" type="qcurve"/>
      <point x="93" y="552"/>
      <point x="88" y="547" type="qcurve"/>
      <point x="81" y="540" type="line"/>
      <point x="78" y="537"/>
      <point x="75" y="535" type="qcurve"/>
      <point x="70" y="470"/>
      <point x="74" y="400" type="qcurve"/>
      <point x="76" y="349"/>
    </contour>
  </outline>
</glyph>
<glyph name="Q" format="1">
  <advance width="634"/>
  <unicode hex="0051"/>
  <outline>
    <contour>
      <point x="432" y="145" type="qcurve"/>
      <point x="438" y="135" type="line"/>
      <point x="442" y="127"/>
      <point x="473" y="90" type="qcurve"/>
      <point x="484" y="112"/>
      <point x="493" y="140" type="qcurve"/>
      <point x="510" y="191"/>
      <point x="514" y="242" type="qcurve"/>
      <point x="518" y="294"/>
      <point x="515" y="349" type="qcurve"/>
      <point x="513" y="403"/>
      <point x="503" y="448" type="qcurve"/>
      <point x="494" y="491"/>
      <point x="440" y="562"/>
      <point x="404" y="580" type="qcurve"/>
      <point x="390" y="588"/>
      <point x="376" y="593" type="qcurve"/>
      <point x="373" y="594"/>
      <point x="369" y="595" type="qcurve"/>
      <point x="351" y="594" type="line"/>
      <point x="343" y="593"/>
      <point x="336" y="592" type="qcurve"/>
      <point x="307" y="590"/>
      <point x="278" y="585" type="qcurve"/>
      <point x="244" y="579"/>
      <point x="195" y="550" type="qcurve"/>
      <point x="146" y="522"/>
      <point x="118" y="477" type="qcurve"/>
      <point x="90" y="430"/>
      <point x="78" y="369" type="qcurve"/>
      <point x="66" y="308"/>
      <point x="80" y="239" type="qcurve"/>
      <point x="94" y="169"/>
      <point x="116" y="123" type="qcurve"/>
      <point x="137" y="78"/>
      <point x="168" y="48" type="qcurve"/>
      <point x="198" y="19"/>
      <point x="240" y="6" type="qcurve"/>
      <point x="282" y="-7"/>
      <point x="328" y="-6" type="qcurve"/>
      <point x="372" y="-5"/>
      <point x="401" y="11" type="qcurve"/>
      <point x="429" y="27"/>
      <point x="451" y="54" type="qcurve"/>
      <point x="449" y="56"/>
      <point x="444" y="61"/>
      <point x="444" y="62" type="qcurve"/>
      <point x="408" y="104"/>
      <point x="402" y="116" type="qcurve"/>
      <point x="397" y="126" type="line"/>
      <point x="393" y="133"/>
      <point x="398" y="149"/>
      <point x="412" y="157"/>
      <point x="428" y="152"/>
    </contour>
    <contour>
      <point x="405" y="624" type="qcurve"/>
      <point x="414" y="620"/>
      <point x="423" y="616" type="qcurve"/>
      <point x="467" y="593"/>
      <point x="532" y="508"/>
      <point x="543" y="456" type="qcurve"/>
      <point x="553" y="408"/>
      <point x="555" y="350" type="qcurve"/>
      <point x="558" y="293"/>
      <point x="554" y="239" type="qcurve"/>
      <point x="549" y="184"/>
      <point x="531" y="127" type="qcurve"/>
      <point x="518" y="86"/>
      <point x="501" y="57" type="qcurve"/>
      <point x="521" y="32"/>
      <point x="542" y="7" type="qcurve"/>
      <point x="576" y="-33"/>
      <point x="587" y="-47" type="qcurve"/>
      <point x="598" y="-60" type="line"/>
      <point x="603" y="-67"/>
      <point x="601" y="-83"/>
      <point x="589" y="-94"/>
      <point x="572" y="-92"/>
      <point x="567" y="-86" type="qcurve"/>
      <point x="556" y="-72" type="line"/>
      <point x="545" y="-58"/>
      <point x="511" y="-18" type="qcurve"/>
      <point x="493" y="3"/>
      <point x="477" y="23" type="qcurve"/>
      <point x="452" y="-6"/>
      <point x="421" y="-24" type="qcurve"/>
      <point x="383" y="-45"/>
      <point x="329" y="-46" type="qcurve"/>
      <point x="276" y="-47"/>
      <point x="228" y="-32" type="qcurve"/>
      <point x="177" y="-17"/>
      <point x="140" y="19" type="qcurve"/>
      <point x="104" y="55"/>
      <point x="80" y="106" type="qcurve"/>
      <point x="55" y="156"/>
      <point x="40" y="231" type="qcurve"/>
      <point x="25" y="307"/>
      <point x="38" y="377" type="qcurve"/>
      <point x="52" y="446"/>
      <point x="84" y="498" type="qcurve"/>
      <point x="117" y="551"/>
      <point x="175" y="585" type="qcurve"/>
      <point x="231" y="618"/>
      <point x="272" y="624" type="qcurve"/>
      <point x="280" y="626"/>
      <point x="287" y="627" type="qcurve"/>
      <point x="292" y="643"/>
      <point x="308" y="642" type="qcurve"/>
      <point x="341" y="640" type="line"/>
      <point x="356" y="640"/>
      <point x="373" y="635" type="qcurve"/>
      <point x="385" y="636" type="line"/>
      <point x="399" y="637"/>
    </contour>
  </outline>
</glyph>
<glyph name="R" format="1">
  <advance width="543"/>
  <unicode hex="0052"/>
  <outline>
    <contour>
      <point x="75" y="595" type="qcurve"/>
      <point x="74" y="586" type="line"/>
      <point x="89" y="599"/>
      <point x="138" y="621" type="qcurve"/>
      <point x="194" y="646"/>
      <point x="238" y="644" type="qcurve"/>
      <point x="282" y="641"/>
      <point x="330" y="611" type="qcurve"/>
      <point x="381" y="579"/>
      <point x="399" y="523" type="qcurve"/>
      <point x="417" y="467"/>
      <point x="400" y="423" type="qcurve"/>
      <point x="384" y="380"/>
      <point x="331" y="339" type="qcurve"/>
      <point x="285" y="304"/>
      <point x="242" y="292" type="qcurve"/>
      <point x="246" y="291"/>
      <point x="250" y="289" type="qcurve"/>
      <point x="301" y="266"/>
      <point x="384" y="202"/>
      <point x="425" y="154" type="qcurve"/>
      <point x="465" y="106"/>
      <point x="478" y="85" type="qcurve"/>
      <point x="489" y="65"/>
      <point x="499" y="47" type="qcurve"/>
      <point x="510" y="26"/>
      <point x="511" y="15" type="qcurve"/>
      <point x="512" y="9" type="line"/>
      <point x="512" y="0"/>
      <point x="501" y="-12"/>
      <point x="485" y="-13"/>
      <point x="472" y="-2"/>
      <point x="472" y="6" type="qcurve"/>
      <point x="471" y="12" type="line"/>
      <point x="470" y="17"/>
      <point x="464" y="28" type="qcurve"/>
      <point x="454" y="45"/>
      <point x="443" y="65" type="qcurve"/>
      <point x="433" y="83"/>
      <point x="394" y="128" type="qcurve"/>
      <point x="356" y="173"/>
      <point x="280" y="231"/>
      <point x="234" y="252" type="qcurve"/>
      <point x="207" y="265"/>
      <point x="184" y="273" type="qcurve"/>
      <point x="166" y="278"/>
      <point x="151" y="282" type="qcurve"/>
      <point x="120" y="283"/>
      <point x="108" y="286" type="qcurve"/>
      <point x="107" y="287"/>
      <point x="98" y="299"/>
      <point x="91" y="314"/>
      <point x="96" y="328"/>
      <point x="107" y="329" type="qcurve"/>
      <point x="117" y="331"/>
      <point x="156" y="322" type="qcurve"/>
      <point x="171" y="322"/>
      <point x="190" y="324" type="qcurve"/>
      <point x="205" y="326"/>
      <point x="223" y="329" type="qcurve"/>
      <point x="262" y="337"/>
      <point x="307" y="371" type="qcurve"/>
      <point x="351" y="405"/>
      <point x="363" y="437" type="qcurve"/>
      <point x="374" y="468"/>
      <point x="361" y="511" type="qcurve"/>
      <point x="347" y="553"/>
      <point x="309" y="577" type="qcurve"/>
      <point x="269" y="602"/>
      <point x="236" y="604" type="qcurve"/>
      <point x="202" y="605"/>
      <point x="107" y="563"/>
      <point x="99" y="554" type="qcurve"/>
      <point x="88" y="540" type="line"/>
      <point x="82" y="532"/>
      <point x="72" y="533" type="qcurve"/>
      <point x="71" y="487"/>
      <point x="74" y="408" type="qcurve"/>
      <point x="77" y="313"/>
      <point x="83" y="166"/>
      <point x="86" y="103" type="qcurve"/>
      <point x="89" y="40"/>
      <point x="91" y="24" type="qcurve"/>
      <point x="93" y="7" type="line"/>
      <point x="93" y="-1"/>
      <point x="83" y="-14"/>
      <point x="67" y="-16"/>
      <point x="54" y="-5"/>
      <point x="53" y="3" type="qcurve"/>
      <point x="51" y="19" type="line"/>
      <point x="49" y="37"/>
      <point x="46" y="101" type="qcurve"/>
      <point x="43" y="164"/>
      <point x="40" y="238" type="qcurve"/>
      <point x="37" y="312"/>
      <point x="34" y="406" type="qcurve"/>
      <point x="31" y="501"/>
      <point x="33" y="549" type="qcurve"/>
      <point x="35" y="597" type="line"/>
      <point x="35" y="605"/>
      <point x="48" y="616"/>
      <point x="64" y="615"/>
      <point x="75" y="603"/>
    </contour>
  </outline>
</glyph>
<glyph name="S" format="1">
  <advance width="481"/>
  <unicode hex="0053"/>
  <outline>
    <contour>
      <point x="375" y="461" type="qcurve"/>
      <point x="369" y="482" type="line"/>
      <point x="363" y="500"/>
      <point x="346" y="534" type="qcurve"/>
      <point x="330" y="565"/>
      <point x="303" y="582" type="qcurve"/>
      <point x="276" y="601"/>
      <point x="225" y="609" type="qcurve"/>
      <point x="176" y="617"/>
      <point x="153" y="605" type="qcurve"/>
      <point x="128" y="593"/>
      <point x="111" y="569" type="qcurve"/>
      <point x="92" y="545"/>
      <point x="84" y="514" type="qcurve"/>
      <point x="76" y="487"/>
      <point x="86" y="454" type="qcurve"/>
      <point x="97" y="420"/>
      <point x="115" y="402" type="qcurve"/>
      <point x="132" y="384"/>
      <point x="172" y="373" type="qcurve"/>
      <point x="216" y="361"/>
      <point x="249" y="353" type="qcurve"/>
      <point x="284" y="345"/>
      <point x="319" y="328" type="qcurve"/>
      <point x="357" y="311"/>
      <point x="388" y="273" type="qcurve"/>
      <point x="418" y="238"/>
      <point x="431" y="213" type="qcurve"/>
      <point x="445" y="187"/>
      <point x="449" y="155" type="qcurve"/>
      <point x="452" y="120"/>
      <point x="439" y="98" type="qcurve"/>
      <point x="427" y="77"/>
      <point x="385" y="49" type="qcurve"/>
      <point x="343" y="22"/>
      <point x="297" y="15" type="qcurve"/>
      <point x="253" y="8"/>
      <point x="205" y="16" type="qcurve"/>
      <point x="157" y="24"/>
      <point x="85" y="72"/>
      <point x="60" y="112" type="qcurve"/>
      <point x="34" y="153"/>
      <point x="33" y="183" type="qcurve"/>
      <point x="32" y="208" type="line"/>
      <point x="32" y="217"/>
      <point x="43" y="229"/>
      <point x="60" y="229"/>
      <point x="72" y="218"/>
      <point x="72" y="210" type="qcurve"/>
      <point x="73" y="185" type="line"/>
      <point x="73" y="165"/>
      <point x="94" y="133" type="qcurve"/>
      <point x="114" y="100"/>
      <point x="172" y="62"/>
      <point x="212" y="55" type="qcurve"/>
      <point x="253" y="49"/>
      <point x="291" y="54" type="qcurve"/>
      <point x="328" y="60"/>
      <point x="363" y="83" type="qcurve"/>
      <point x="398" y="105"/>
      <point x="405" y="118" type="qcurve"/>
      <point x="411" y="129"/>
      <point x="409" y="151" type="qcurve"/>
      <point x="406" y="175"/>
      <point x="396" y="194" type="qcurve"/>
      <point x="385" y="215"/>
      <point x="357" y="248" type="qcurve"/>
      <point x="332" y="279"/>
      <point x="303" y="292" type="qcurve"/>
      <point x="271" y="307"/>
      <point x="240" y="314" type="qcurve"/>
      <point x="207" y="322"/>
      <point x="161" y="334" type="qcurve"/>
      <point x="110" y="348"/>
      <point x="86" y="374" type="qcurve"/>
      <point x="62" y="400"/>
      <point x="48" y="442" type="qcurve"/>
      <point x="34" y="486"/>
      <point x="45" y="525" type="qcurve"/>
      <point x="56" y="563"/>
      <point x="78" y="593" type="qcurve"/>
      <point x="102" y="624"/>
      <point x="135" y="641" type="qcurve"/>
      <point x="170" y="659"/>
      <point x="232" y="648" type="qcurve"/>
      <point x="291" y="639"/>
      <point x="325" y="616" type="qcurve"/>
      <point x="361" y="592"/>
      <point x="381" y="552" type="qcurve"/>
      <point x="400" y="516"/>
      <point x="407" y="494" type="qcurve"/>
      <point x="413" y="473" type="line"/>
      <point x="416" y="466"/>
      <point x="408" y="451"/>
      <point x="393" y="446"/>
      <point x="378" y="454"/>
    </contour>
  </outline>
</glyph>
<glyph name="T" format="1">
  <advance width="611"/>
  <unicode hex="0054"/>
  <outline>
    <contour>
      <point x="322" y="566" type="qcurve"/>
      <point x="318" y="542" type="line"/>
      <point x="314" y="520"/>
      <point x="312" y="460" type="qcurve"/>
      <point x="310" y="401"/>
      <point x="311" y="255"/>
      <point x="313" y="197" type="qcurve"/>
      <point x="316" y="140"/>
      <point x="318" y="97" type="qcurve"/>
      <point x="320" y="57"/>
      <point x="321" y="44" type="qcurve"/>
      <point x="323" y="28"/>
      <point x="323" y="17" type="qcurve"/>
      <point x="323" y="8" type="line"/>
      <point x="323" y="0"/>
      <point x="311" y="-12"/>
      <point x="295" y="-12"/>
      <point x="283" y="0"/>
      <point x="283" y="8" type="qcurve"/>
      <point x="283" y="17" type="line"/>
      <point x="283" y="25"/>
      <point x="282" y="39" type="qcurve"/>
      <point x="280" y="54"/>
      <point x="278" y="95" type="qcurve"/>
      <point x="276" y="138"/>
      <point x="273" y="195" type="qcurve"/>
      <point x="271" y="254"/>
      <point x="270" y="401"/>
      <point x="272" y="462" type="qcurve"/>
      <point x="275" y="524"/>
      <point x="279" y="549" type="qcurve"/>
      <point x="283" y="573" type="line"/>
      <point x="284" y="581"/>
      <point x="298" y="591"/>
      <point x="314" y="588"/>
      <point x="323" y="574"/>
    </contour>
    <contour>
      <point x="53" y="624" type="qcurve"/>
      <point x="60" y="624" type="line"/>
      <point x="65" y="623"/>
      <point x="90" y="626" type="qcurve"/>
      <point x="118" y="629"/>
      <point x="197" y="631" type="qcurve"/>
      <point x="275" y="632"/>
      <point x="392" y="635"/>
      <point x="440" y="636" type="qcurve"/>
      <point x="488" y="637"/>
      <point x="509" y="638" type="qcurve"/>
      <point x="533" y="638"/>
      <point x="549" y="635" type="qcurve"/>
      <point x="564" y="632" type="line"/>
      <point x="572" y="631"/>
      <point x="581" y="617"/>
      <point x="578" y="601"/>
      <point x="564" y="591"/>
      <point x="556" y="593" type="qcurve"/>
      <point x="542" y="596" type="line"/>
      <point x="529" y="598"/>
      <point x="511" y="598" type="qcurve"/>
      <point x="489" y="597"/>
      <point x="441" y="596" type="qcurve"/>
      <point x="393" y="595"/>
      <point x="334" y="594" type="qcurve"/>
      <point x="276" y="592"/>
      <point x="198" y="591" type="qcurve"/>
      <point x="120" y="589"/>
      <point x="94" y="586" type="qcurve"/>
      <point x="65" y="583"/>
      <point x="57" y="584" type="qcurve"/>
      <point x="51" y="584" type="line"/>
      <point x="43" y="585"/>
      <point x="32" y="597"/>
      <point x="33" y="613"/>
      <point x="45" y="624"/>
    </contour>
  </outline>
</glyph>
<glyph name="U" format="1">
  <advance width="530"/>
  <unicode hex="0055"/>
  <outline>
    <contour>
      <point x="75" y="659" type="qcurve"/>
      <point x="73" y="638" type="line"/>
      <point x="72" y="618"/>
      <point x="72" y="577" type="qcurve"/>
      <point x="72" y="535"/>
      <point x="75" y="352"/>
      <point x="75" y="307" type="qcurve"/>
      <point x="75" y="263"/>
      <point x="79" y="223" type="qcurve"/>
      <point x="83" y="184"/>
      <point x="100" y="125"/>
      <point x="113" y="99" type="qcurve"/>
      <point x="124" y="75"/>
      <point x="153" y="50"/>
      <point x="176" y="42" type="qcurve"/>
      <point x="199" y="34"/>
      <point x="222" y="33" type="qcurve"/>
      <point x="246" y="32"/>
      <point x="303" y="47"/>
      <point x="330" y="65" type="qcurve"/>
      <point x="359" y="84"/>
      <point x="382" y="106" type="qcurve"/>
      <point x="405" y="128"/>
      <point x="434" y="174"/>
      <point x="444" y="204" type="qcurve"/>
      <point x="455" y="234"/>
      <point x="457" y="266" type="qcurve"/>
      <point x="460" y="300"/>
      <point x="457" y="333" type="qcurve"/>
      <point x="454" y="368"/>
      <point x="448" y="415"/>
      <point x="442" y="450" type="qcurve"/>
      <point x="436" y="486"/>
      <point x="433" y="510" type="qcurve"/>
      <point x="430" y="534"/>
      <point x="428" y="553" type="qcurve"/>
      <point x="425" y="571"/>
      <point x="425" y="583" type="qcurve"/>
      <point x="424" y="594" type="line"/>
      <point x="424" y="603"/>
      <point x="436" y="615"/>
      <point x="452" y="615"/>
      <point x="464" y="604"/>
      <point x="464" y="596" type="qcurve"/>
      <point x="465" y="585" type="line"/>
      <point x="465" y="574"/>
      <point x="467" y="557" type="qcurve"/>
      <point x="469" y="539"/>
      <point x="475" y="491"/>
      <point x="481" y="457" type="qcurve"/>
      <point x="487" y="421"/>
      <point x="494" y="372"/>
      <point x="497" y="337" type="qcurve"/>
      <point x="500" y="300"/>
      <point x="497" y="263" type="qcurve"/>
      <point x="494" y="225"/>
      <point x="482" y="191" type="qcurve"/>
      <point x="470" y="157"/>
      <point x="436" y="103"/>
      <point x="410" y="77" type="qcurve"/>
      <point x="384" y="52"/>
      <point x="352" y="31" type="qcurve"/>
      <point x="319" y="10"/>
      <point x="284" y="1" type="qcurve"/>
      <point x="250" y="-8"/>
      <point x="221" y="-7" type="qcurve"/>
      <point x="191" y="-5"/>
      <point x="163" y="4" type="qcurve"/>
      <point x="133" y="14"/>
      <point x="112" y="32" type="qcurve"/>
      <point x="91" y="51"/>
      <point x="77" y="82" type="qcurve"/>
      <point x="63" y="111"/>
      <point x="44" y="177"/>
      <point x="39" y="219" type="qcurve"/>
      <point x="35" y="261"/>
      <point x="35" y="307" type="qcurve"/>
      <point x="35" y="351"/>
      <point x="34" y="443" type="qcurve"/>
      <point x="32" y="534"/>
      <point x="32" y="577" type="qcurve"/>
      <point x="32" y="620"/>
      <point x="33" y="641" type="qcurve"/>
      <point x="35" y="662" type="line"/>
      <point x="36" y="670"/>
      <point x="48" y="681"/>
      <point x="65" y="680"/>
      <point x="75" y="667"/>
    </contour>
  </outline>
</glyph>
<glyph name="V" format="1">
  <advance width="529"/>
  <unicode hex="0056"/>
  <outline>
    <contour>
      <point x="70" y="631" type="qcurve"/>
      <point x="86" y="597" type="line"/>
      <point x="101" y="563"/>
      <point x="149" y="446"/>
      <point x="176" y="377" type="qcurve"/>
      <point x="202" y="309"/>
      <point x="227" y="246" type="qcurve"/>
      <point x="252" y="183"/>
      <point x="265" y="150" type="qcurve"/>
      <point x="280" y="111"/>
      <point x="287" y="92" type="qcurve"/>
      <point x="289" y="86"/>
      <point x="292" y="81" type="qcurve"/>
      <point x="304" y="114"/>
      <point x="321" y="157" type="qcurve"/>
      <point x="339" y="204"/>
      <point x="354" y="264" type="qcurve"/>
      <point x="369" y="326"/>
      <point x="392" y="417"/>
      <point x="421" y="524"/>
      <point x="431" y="555" type="qcurve"/>
      <point x="440" y="585"/>
      <point x="445" y="603" type="qcurve"/>
      <point x="450" y="620"/>
      <point x="455" y="633" type="qcurve"/>
      <point x="459" y="645" type="line"/>
      <point x="461" y="652"/>
      <point x="477" y="660"/>
      <point x="492" y="654"/>
      <point x="499" y="639"/>
      <point x="497" y="631" type="qcurve"/>
      <point x="492" y="620" type="line"/>
      <point x="488" y="608"/>
      <point x="483" y="591" type="qcurve"/>
      <point x="478" y="574"/>
      <point x="460" y="513"/>
      <point x="445" y="460" type="qcurve"/>
      <point x="431" y="407"/>
      <point x="407" y="316"/>
      <point x="392" y="255" type="qcurve"/>
      <point x="377" y="192"/>
      <point x="358" y="143" type="qcurve"/>
      <point x="339" y="94"/>
      <point x="326" y="58" type="qcurve"/>
      <point x="326" y="58"/>
      <point x="322" y="47"/>
      <point x="320" y="42"/>
      <point x="313" y="29"/>
      <point x="308" y="25"/>
      <point x="298" y="17"/>
      <point x="289" y="20"/>
      <point x="281" y="21" type="qcurve"/>
      <point x="272" y="25"/>
      <point x="267" y="36" type="qcurve"/>
      <point x="259" y="53"/>
      <point x="250" y="78" type="qcurve"/>
      <point x="239" y="106"/>
      <point x="228" y="135" type="qcurve"/>
      <point x="215" y="169"/>
      <point x="190" y="231" type="qcurve"/>
      <point x="164" y="294"/>
      <point x="138" y="363" type="qcurve"/>
      <point x="112" y="431"/>
      <point x="64" y="547"/>
      <point x="49" y="581" type="qcurve"/>
      <point x="34" y="615" type="line"/>
      <point x="30" y="622"/>
      <point x="36" y="638"/>
      <point x="51" y="644"/>
      <point x="67" y="638"/>
    </contour>
  </outline>
</glyph>
<glyph name="W" format="1">
  <advance width="738"/>
  <unicode hex="0057"/>
  <outline>
    <contour>
      <point x="72" y="585" type="qcurve"/>
      <point x="77" y="551" type="line"/>
      <point x="81" y="518"/>
      <point x="95" y="463" type="qcurve"/>
      <point x="108" y="408"/>
      <point x="129" y="332" type="qcurve"/>
      <point x="149" y="256"/>
      <point x="163" y="201" type="qcurve"/>
      <point x="176" y="148"/>
      <point x="185" y="122" type="qcurve"/>
      <point x="189" y="108"/>
      <point x="193" y="98" type="qcurve"/>
      <point x="206" y="137"/>
      <point x="220" y="188" type="qcurve"/>
      <point x="235" y="245"/>
      <point x="255" y="311" type="qcurve"/>
      <point x="275" y="376"/>
      <point x="290" y="431" type="qcurve"/>
      <point x="305" y="485"/>
      <point x="320" y="543" type="qcurve"/>
      <point x="334" y="598"/>
      <point x="336" y="612" type="qcurve"/>
      <point x="337" y="627"/>
      <point x="348" y="632" type="qcurve"/>
      <point x="363" y="639"/>
      <point x="382" y="623"/>
      <point x="384" y="611" type="qcurve"/>
      <point x="387" y="599" type="line"/>
      <point x="397" y="568"/>
      <point x="418" y="503" type="qcurve"/>
      <point x="439" y="439"/>
      <point x="475" y="333"/>
      <point x="505" y="251"/>
      <point x="523" y="206" type="qcurve"/>
      <point x="541" y="163"/>
      <point x="551" y="144" type="qcurve"/>
      <point x="560" y="176"/>
      <point x="573" y="223" type="qcurve"/>
      <point x="588" y="283"/>
      <point x="599" y="335" type="qcurve"/>
      <point x="609" y="388"/>
      <point x="621" y="453" type="qcurve"/>
      <point x="632" y="518"/>
      <point x="638" y="554" type="qcurve"/>
      <point x="643" y="592"/>
      <point x="651" y="623" type="qcurve"/>
      <point x="659" y="655"/>
      <point x="664" y="667" type="qcurve"/>
      <point x="669" y="676" type="line"/>
      <point x="672" y="684"/>
      <point x="688" y="689"/>
      <point x="703" y="682"/>
      <point x="708" y="667"/>
      <point x="705" y="659" type="qcurve"/>
      <point x="700" y="650" type="line"/>
      <point x="697" y="642"/>
      <point x="690" y="613" type="qcurve"/>
      <point x="683" y="584"/>
      <point x="677" y="549" type="qcurve"/>
      <point x="672" y="512"/>
      <point x="649" y="381"/>
      <point x="638" y="327" type="qcurve"/>
      <point x="627" y="273"/>
      <point x="596" y="153"/>
      <point x="584" y="117" type="qcurve"/>
      <point x="584" y="116"/>
      <point x="581" y="105"/>
      <point x="578" y="97"/>
      <point x="572" y="84"/>
      <point x="564" y="79"/>
      <point x="551" y="74"/>
      <point x="544" y="78" type="qcurve"/>
      <point x="533" y="82"/>
      <point x="529" y="94" type="qcurve"/>
      <point x="524" y="107"/>
      <point x="515" y="126" type="qcurve"/>
      <point x="505" y="146"/>
      <point x="486" y="191" type="qcurve"/>
      <point x="468" y="236"/>
      <point x="438" y="319"/>
      <point x="401" y="426"/>
      <point x="380" y="491" type="qcurve"/>
      <point x="370" y="522"/>
      <point x="362" y="546" type="qcurve"/>
      <point x="360" y="540"/>
      <point x="358" y="533" type="qcurve"/>
      <point x="343" y="475"/>
      <point x="328" y="420" type="qcurve"/>
      <point x="313" y="365"/>
      <point x="293" y="299" type="qcurve"/>
      <point x="274" y="234"/>
      <point x="258" y="177" type="qcurve"/>
      <point x="242" y="120"/>
      <point x="229" y="77" type="qcurve"/>
      <point x="229" y="77"/>
      <point x="212" y="45" type="qcurve"/>
      <point x="188" y="9"/>
      <point x="173" y="43" type="qcurve"/>
      <point x="169" y="53"/>
      <point x="163" y="67" type="qcurve"/>
      <point x="156" y="82"/>
      <point x="138" y="137"/>
      <point x="124" y="192" type="qcurve"/>
      <point x="111" y="246"/>
      <point x="90" y="322" type="qcurve"/>
      <point x="69" y="398"/>
      <point x="56" y="454" type="qcurve"/>
      <point x="42" y="510"/>
      <point x="37" y="546" type="qcurve"/>
      <point x="32" y="580" type="line"/>
      <point x="31" y="588"/>
      <point x="41" y="601"/>
      <point x="57" y="604"/>
      <point x="71" y="594"/>
    </contour>
  </outline>
</glyph>
<glyph name="X" format="1">
  <advance width="494"/>
  <unicode hex="0058"/>
  <outline>
    <contour>
      <point x="445" y="632" type="qcurve"/>
      <point x="423" y="596" type="line"/>
      <point x="401" y="561"/>
      <point x="338" y="448"/>
      <point x="311" y="396" type="qcurve"/>
      <point x="291" y="358"/>
      <point x="266" y="310" type="qcurve"/>
      <point x="271" y="300"/>
      <point x="278" y="289" type="qcurve"/>
      <point x="314" y="228"/>
      <point x="339" y="191" type="qcurve"/>
      <point x="365" y="155"/>
      <point x="411" y="94"/>
      <point x="421" y="80" type="qcurve"/>
      <point x="433" y="66"/>
      <point x="445" y="50" type="qcurve"/>
      <point x="459" y="33" type="line"/>
      <point x="464" y="26"/>
      <point x="462" y="10"/>
      <point x="449" y="0"/>
      <point x="432" y="2"/>
      <point x="427" y="8" type="qcurve"/>
      <point x="414" y="25" type="line"/>
      <point x="401" y="42"/>
      <point x="379" y="70"/>
      <point x="356" y="100" type="qcurve"/>
      <point x="332" y="131"/>
      <point x="280" y="206"/>
      <point x="244" y="268" type="qcurve"/>
      <point x="216" y="216"/>
      <point x="199" y="186" type="qcurve"/>
      <point x="179" y="152"/>
      <point x="159" y="118" type="qcurve"/>
      <point x="139" y="85"/>
      <point x="129" y="70" type="qcurve"/>
      <point x="120" y="57"/>
      <point x="116" y="49" type="qcurve"/>
      <point x="111" y="40"/>
      <point x="107" y="32" type="qcurve"/>
      <point x="103" y="26" type="line"/>
      <point x="99" y="19"/>
      <point x="83" y="15"/>
      <point x="69" y="23"/>
      <point x="65" y="40"/>
      <point x="69" y="47" type="qcurve"/>
      <point x="73" y="53" type="line"/>
      <point x="76" y="59"/>
      <point x="81" y="67" type="qcurve"/>
      <point x="86" y="78"/>
      <point x="96" y="93" type="qcurve"/>
      <point x="105" y="106"/>
      <point x="125" y="139" type="qcurve"/>
      <point x="145" y="172"/>
      <point x="184" y="239"/>
      <point x="215" y="300" type="qcurve"/>
      <point x="216" y="301"/>
      <point x="219" y="307"/>
      <point x="220" y="308" type="qcurve"/>
      <point x="195" y="349"/>
      <point x="170" y="390" type="qcurve"/>
      <point x="133" y="451"/>
      <point x="95" y="506" type="qcurve"/>
      <point x="55" y="563"/>
      <point x="44" y="583" type="qcurve"/>
      <point x="34" y="601" type="line"/>
      <point x="30" y="608"/>
      <point x="35" y="624"/>
      <point x="50" y="632"/>
      <point x="66" y="627"/>
      <point x="70" y="620" type="qcurve"/>
      <point x="80" y="601" type="line"/>
      <point x="89" y="584"/>
      <point x="127" y="529" type="qcurve"/>
      <point x="167" y="473"/>
      <point x="204" y="411" type="qcurve"/>
      <point x="223" y="381"/>
      <point x="241" y="350" type="qcurve"/>
      <point x="262" y="388"/>
      <point x="275" y="414" type="qcurve"/>
      <point x="303" y="467"/>
      <point x="367" y="581"/>
      <point x="389" y="617" type="qcurve"/>
      <point x="411" y="653" type="line"/>
      <point x="415" y="660"/>
      <point x="432" y="664"/>
      <point x="445" y="655"/>
      <point x="449" y="639"/>
    </contour>
  </outline>
</glyph>
<glyph name="Y" format="1">
  <advance width="587"/>
  <unicode hex="0059"/>
  <outline>
    <contour>
      <point x="547" y="612" type="qcurve"/>
      <point x="535" y="603" type="line"/>
      <point x="525" y="595"/>
      <point x="475" y="541"/>
      <point x="413" y="449"/>
      <point x="395" y="408" type="qcurve"/>
      <point x="377" y="367"/>
      <point x="360" y="308" type="qcurve"/>
      <point x="348" y="265"/>
      <point x="339" y="219" type="qcurve"/>
      <point x="347" y="205"/>
      <point x="335" y="194" type="qcurve"/>
      <point x="334" y="189"/>
      <point x="333" y="183" type="qcurve"/>
      <point x="321" y="116"/>
      <point x="316" y="80" type="qcurve"/>
      <point x="310" y="44"/>
      <point x="308" y="31" type="qcurve"/>
      <point x="306" y="18"/>
      <point x="306" y="11" type="qcurve"/>
      <point x="305" y="3" type="line"/>
      <point x="305" y="-5"/>
      <point x="293" y="-16"/>
      <point x="277" y="-16"/>
      <point x="265" y="-3"/>
      <point x="266" y="5" type="qcurve"/>
      <point x="266" y="13" type="line"/>
      <point x="266" y="22"/>
      <point x="268" y="36" type="qcurve"/>
      <point x="270" y="50"/>
      <point x="276" y="87" type="qcurve"/>
      <point x="282" y="123"/>
      <point x="293" y="190" type="qcurve"/>
      <point x="295" y="200"/>
      <point x="297" y="209" type="qcurve"/>
      <point x="284" y="226" type="line"/>
      <point x="261" y="256"/>
      <point x="239" y="295" type="qcurve"/>
      <point x="218" y="333"/>
      <point x="184" y="388" type="qcurve"/>
      <point x="150" y="443"/>
      <point x="111" y="499" type="qcurve"/>
      <point x="71" y="555"/>
      <point x="53" y="583" type="qcurve"/>
      <point x="35" y="610" type="line"/>
      <point x="31" y="617"/>
      <point x="34" y="633"/>
      <point x="48" y="642"/>
      <point x="64" y="639"/>
      <point x="69" y="632" type="qcurve"/>
      <point x="87" y="605" type="line"/>
      <point x="104" y="578"/>
      <point x="144" y="522" type="qcurve"/>
      <point x="184" y="465"/>
      <point x="218" y="409" type="qcurve"/>
      <point x="252" y="353"/>
      <point x="274" y="315" type="qcurve"/>
      <point x="291" y="286"/>
      <point x="307" y="262" type="qcurve"/>
      <point x="314" y="291"/>
      <point x="322" y="319" type="qcurve"/>
      <point x="339" y="381"/>
      <point x="358" y="424" type="qcurve"/>
      <point x="378" y="468"/>
      <point x="443" y="566"/>
      <point x="498" y="624"/>
      <point x="511" y="634" type="qcurve"/>
      <point x="523" y="644" type="line"/>
      <point x="529" y="649"/>
      <point x="546" y="646"/>
      <point x="556" y="633"/>
      <point x="554" y="617"/>
    </contour>
  </outline>
</glyph>
<glyph name="Z" format="1">
  <advance width="654"/>
  <unicode hex="005A"/>
  <outline>
    <contour>
      <point x="65" y="644" type="qcurve"/>
      <point x="71" y="643" type="line"/>
      <point x="82" y="642"/>
      <point x="147" y="643" type="qcurve"/>
      <point x="219" y="645"/>
      <point x="299" y="652" type="qcurve"/>
      <point x="380" y="659"/>
      <point x="398" y="657" type="qcurve"/>
      <point x="433" y="650"/>
      <point x="420" y="602" type="qcurve"/>
      <point x="412" y="570"/>
      <point x="365" y="499" type="qcurve"/>
      <point x="320" y="429"/>
      <point x="285" y="383" type="qcurve"/>
      <point x="250" y="339"/>
      <point x="208" y="282" type="qcurve"/>
      <point x="167" y="225"/>
      <point x="140" y="185" type="qcurve"/>
      <point x="114" y="145"/>
      <point x="96" y="115" type="qcurve"/>
      <point x="78" y="86"/>
      <point x="73" y="76" type="qcurve"/>
      <point x="83" y="72"/>
      <point x="104" y="68" type="qcurve"/>
      <point x="144" y="62"/>
      <point x="181" y="62" type="qcurve"/>
      <point x="220" y="63"/>
      <point x="286" y="68" type="qcurve"/>
      <point x="354" y="74"/>
      <point x="414" y="74" type="qcurve"/>
      <point x="473" y="75"/>
      <point x="538" y="73" type="qcurve"/>
      <point x="603" y="72" type="line"/>
      <point x="611" y="72"/>
      <point x="623" y="60"/>
      <point x="623" y="43"/>
      <point x="610" y="32"/>
      <point x="602" y="32" type="qcurve"/>
      <point x="537" y="33" type="line"/>
      <point x="473" y="35"/>
      <point x="414" y="34" type="qcurve"/>
      <point x="356" y="34"/>
      <point x="290" y="28" type="qcurve"/>
      <point x="222" y="23"/>
      <point x="182" y="22" type="qcurve"/>
      <point x="141" y="22"/>
      <point x="98" y="29" type="qcurve"/>
      <point x="96" y="29"/>
      <point x="80" y="31"/>
      <point x="76" y="32"/>
      <point x="63" y="35"/>
      <point x="58" y="37"/>
      <point x="49" y="41"/>
      <point x="44" y="45"/>
      <point x="38" y="52"/>
      <point x="36" y="55" type="qcurve"/>
      <point x="27" y="74"/>
      <point x="37" y="93" type="qcurve"/>
      <point x="43" y="104"/>
      <point x="80" y="166"/>
      <point x="134" y="248"/>
      <point x="218" y="363"/>
      <point x="253" y="408" type="qcurve"/>
      <point x="287" y="452"/>
      <point x="331" y="521" type="qcurve"/>
      <point x="375" y="587"/>
      <point x="382" y="612" type="qcurve"/>
      <point x="382" y="614"/>
      <point x="383" y="617" type="qcurve"/>
      <point x="360" y="617"/>
      <point x="302" y="612" type="qcurve"/>
      <point x="221" y="605"/>
      <point x="148" y="604" type="qcurve"/>
      <point x="72" y="602"/>
      <point x="64" y="604" type="qcurve"/>
      <point x="57" y="605" type="line"/>
      <point x="49" y="606"/>
      <point x="40" y="620"/>
      <point x="43" y="636"/>
      <point x="57" y="646"/>
    </contour>
  </outline>
</glyph>
<glyph name="a" format="1">
  <advance width="543"/>
  <unicode hex="0061"/>
  <outline>
    <contour>
      <point x="318" y="353" type="qcurve"/>
      <point x="318" y="346"/>
      <point x="319" y="340" type="qcurve"/>
      <point x="320" y="317"/>
      <point x="325" y="292" type="qcurve"/>
      <point x="330" y="266"/>
      <point x="334" y="241" type="qcurve"/>
      <point x="338" y="217"/>
      <point x="341" y="199" type="qcurve"/>
      <point x="344" y="183"/>
      <point x="348" y="169" type="qcurve"/>
      <point x="353" y="154"/>
      <point x="370" y="108"/>
      <point x="376" y="95" type="qcurve"/>
      <point x="382" y="83"/>
      <point x="389" y="75" type="qcurve"/>
      <point x="397" y="64"/>
      <point x="403" y="58" type="qcurve"/>
      <point x="407" y="53"/>
      <point x="415" y="49" type="qcurve"/>
      <point x="420" y="45"/>
      <point x="426" y="45" type="qcurve"/>
      <point x="433" y="45"/>
      <point x="438" y="47" type="qcurve"/>
      <point x="442" y="49"/>
      <point x="446" y="56" type="qcurve"/>
      <point x="453" y="65"/>
      <point x="458" y="78" type="qcurve"/>
      <point x="464" y="92"/>
      <point x="467" y="105" type="qcurve"/>
      <point x="471" y="118"/>
      <point x="471" y="122" type="qcurve"/>
      <point x="471" y="128" type="line"/>
      <point x="472" y="137"/>
      <point x="484" y="148"/>
      <point x="500" y="147"/>
      <point x="512" y="135"/>
      <point x="511" y="127" type="qcurve"/>
      <point x="511" y="120" type="line"/>
      <point x="510" y="112"/>
      <point x="506" y="95" type="qcurve"/>
      <point x="502" y="80"/>
      <point x="495" y="63" type="qcurve"/>
      <point x="488" y="46"/>
      <point x="479" y="33" type="qcurve"/>
      <point x="468" y="17"/>
      <point x="454" y="11" type="qcurve"/>
      <point x="441" y="5"/>
      <point x="426" y="5" type="qcurve"/>
      <point x="409" y="5"/>
      <point x="394" y="14" type="qcurve"/>
      <point x="382" y="22"/>
      <point x="373" y="31" type="qcurve"/>
      <point x="366" y="39"/>
      <point x="357" y="50" type="qcurve"/>
      <point x="347" y="62"/>
      <point x="340" y="78" type="qcurve"/>
      <point x="334" y="92"/>
      <point x="315" y="141"/>
      <point x="310" y="157" type="qcurve"/>
      <point x="305" y="173"/>
      <point x="302" y="192" type="qcurve"/>
      <point x="299" y="204"/>
      <point x="297" y="220" type="qcurve"/>
      <point x="295" y="203"/>
      <point x="293" y="188" type="qcurve"/>
      <point x="290" y="158"/>
      <point x="286" y="130" type="qcurve"/>
      <point x="281" y="100"/>
      <point x="267" y="56"/>
      <point x="255" y="30" type="qcurve"/>
      <point x="242" y="3"/>
      <point x="229" y="-9" type="qcurve"/>
      <point x="213" y="-24"/>
      <point x="194" y="-23" type="qcurve"/>
      <point x="180" y="-22"/>
      <point x="161" y="-14" type="qcurve"/>
      <point x="141" y="-6"/>
      <point x="109" y="19"/>
      <point x="98" y="32" type="qcurve"/>
      <point x="87" y="45"/>
      <point x="78" y="60" type="qcurve"/>
      <point x="68" y="76"/>
      <point x="58" y="105" type="qcurve"/>
      <point x="48" y="134"/>
      <point x="46" y="147" type="qcurve"/>
      <point x="45" y="157"/>
      <point x="38" y="191" type="qcurve"/>
      <point x="31" y="228"/>
      <point x="32" y="255" type="qcurve"/>
      <point x="34" y="282"/>
      <point x="50" y="339"/>
      <point x="66" y="367" type="qcurve"/>
      <point x="82" y="394"/>
      <point x="98" y="418" type="qcurve"/>
      <point x="114" y="442"/>
      <point x="122" y="450" type="qcurve"/>
      <point x="130" y="460"/>
      <point x="146" y="471" type="qcurve"/>
      <point x="161" y="481"/>
      <point x="180" y="492" type="qcurve"/>
      <point x="201" y="504"/>
      <point x="233" y="510" type="qcurve"/>
      <point x="265" y="516"/>
      <point x="290" y="512" type="qcurve"/>
      <point x="311" y="509"/>
      <point x="319" y="508" type="qcurve"/>
      <point x="327" y="507" type="line"/>
      <point x="336" y="506"/>
      <point x="346" y="494"/>
      <point x="345" y="486" type="qcurve"/>
      <point x="343" y="471"/>
      <point x="330" y="468" type="qcurve"/>
      <point x="336" y="461"/>
      <point x="336" y="453" type="qcurve"/>
      <point x="336" y="445"/>
      <point x="334" y="435" type="qcurve"/>
      <point x="333" y="428"/>
      <point x="329" y="407" type="qcurve"/>
      <point x="325" y="385"/>
      <point x="320" y="360" type="qcurve"/>
      <point x="319" y="356"/>
    </contour>
    <contour>
      <point x="303" y="470" type="qcurve"/>
      <point x="295" y="471"/>
      <point x="283" y="473" type="qcurve"/>
      <point x="266" y="476"/>
      <point x="241" y="471" type="qcurve"/>
      <point x="215" y="466"/>
      <point x="200" y="457" type="qcurve"/>
      <point x="182" y="447"/>
      <point x="169" y="438" type="qcurve"/>
      <point x="157" y="430"/>
      <point x="152" y="424" type="qcurve"/>
      <point x="146" y="417"/>
      <point x="131" y="395" type="qcurve"/>
      <point x="115" y="373"/>
      <point x="101" y="347" type="qcurve"/>
      <point x="87" y="323"/>
      <point x="73" y="275"/>
      <point x="72" y="253" type="qcurve"/>
      <point x="71" y="230"/>
      <point x="77" y="199" type="qcurve"/>
      <point x="84" y="165"/>
      <point x="86" y="152" type="qcurve"/>
      <point x="88" y="143"/>
      <point x="104" y="93"/>
      <point x="112" y="81" type="qcurve"/>
      <point x="120" y="69"/>
      <point x="128" y="58" type="qcurve"/>
      <point x="137" y="48"/>
      <point x="150" y="38" type="qcurve"/>
      <point x="162" y="29"/>
      <point x="176" y="23" type="qcurve"/>
      <point x="189" y="18"/>
      <point x="196" y="17" type="qcurve"/>
      <point x="199" y="17"/>
      <point x="202" y="20" type="qcurve"/>
      <point x="209" y="27"/>
      <point x="219" y="48" type="qcurve"/>
      <point x="230" y="70"/>
      <point x="242" y="109"/>
      <point x="246" y="136" type="qcurve"/>
      <point x="251" y="163"/>
      <point x="254" y="192" type="qcurve"/>
      <point x="257" y="222"/>
      <point x="260" y="250" type="qcurve"/>
      <point x="262" y="270"/>
      <point x="265" y="291" type="qcurve"/>
      <point x="267" y="301"/>
      <point x="269" y="311" type="qcurve"/>
      <point x="273" y="336"/>
      <point x="278" y="358" type="qcurve"/>
      <point x="278" y="373"/>
      <point x="280" y="390" type="qcurve"/>
      <point x="282" y="417"/>
      <point x="290" y="442" type="qcurve"/>
      <point x="296" y="462"/>
    </contour>
  </outline>
</glyph>
<glyph name="b" format="1">
  <advance width="480"/>
  <unicode hex="0062"/>
  <outline>
    <contour>
      <point x="154" y="113" type="qcurve"/>
      <point x="157" y="93"/>
      <point x="158" y="77" type="qcurve"/>
      <point x="162" y="77"/>
      <point x="166" y="76" type="qcurve"/>
      <point x="194" y="72"/>
      <point x="220" y="70" type="qcurve"/>
      <point x="246" y="68"/>
      <point x="261" y="69" type="qcurve"/>
      <point x="274" y="71"/>
      <point x="294" y="81" type="qcurve"/>
      <point x="315" y="91"/>
      <point x="337" y="109" type="qcurve"/>
      <point x="358" y="127"/>
      <point x="377" y="153" type="qcurve"/>
      <point x="395" y="178"/>
      <point x="411" y="241"/>
      <point x="407" y="272" type="qcurve"/>
      <point x="403" y="303"/>
      <point x="384" y="341" type="qcurve"/>
      <point x="365" y="379"/>
      <point x="350" y="400" type="qcurve"/>
      <point x="334" y="420"/>
      <point x="313" y="437" type="qcurve"/>
      <point x="295" y="450"/>
      <point x="281" y="451" type="qcurve"/>
      <point x="266" y="451"/>
      <point x="249" y="440" type="qcurve"/>
      <point x="230" y="427"/>
      <point x="185" y="371"/>
      <point x="172" y="337" type="qcurve"/>
      <point x="160" y="303"/>
      <point x="155" y="268" type="qcurve"/>
      <point x="152" y="241"/>
      <point x="151" y="212" type="qcurve"/>
      <point x="150" y="202"/>
      <point x="150" y="192" type="qcurve"/>
      <point x="150" y="151"/>
    </contour>
    <contour>
      <point x="122" y="36" type="qcurve"/>
      <point x="122" y="40"/>
      <point x="121" y="43" type="qcurve"/>
      <point x="112" y="45"/>
      <point x="103" y="47" type="qcurve"/>
      <point x="74" y="53"/>
      <point x="60" y="57" type="qcurve"/>
      <point x="46" y="61" type="line"/>
      <point x="39" y="63"/>
      <point x="31" y="77"/>
      <point x="35" y="93"/>
      <point x="50" y="101"/>
      <point x="57" y="99" type="qcurve"/>
      <point x="71" y="95" type="line"/>
      <point x="84" y="92"/>
      <point x="111" y="86" type="qcurve"/>
      <point x="113" y="86"/>
      <point x="117" y="85" type="qcurve"/>
      <point x="116" y="96"/>
      <point x="114" y="108" type="qcurve"/>
      <point x="111" y="134"/>
      <point x="105" y="167" type="qcurve"/>
      <point x="101" y="191"/>
      <point x="98" y="215" type="qcurve"/>
      <point x="93" y="250"/>
      <point x="89" y="283" type="qcurve"/>
      <point x="82" y="339"/>
      <point x="80" y="393" type="qcurve"/>
      <point x="79" y="445"/>
      <point x="80" y="504" type="qcurve"/>
      <point x="81" y="563"/>
      <point x="85" y="599" type="qcurve"/>
      <point x="89" y="635"/>
      <point x="90" y="645" type="qcurve"/>
      <point x="92" y="655" type="line"/>
      <point x="94" y="663"/>
      <point x="107" y="673"/>
      <point x="124" y="670"/>
      <point x="133" y="656"/>
      <point x="132" y="648" type="qcurve"/>
      <point x="130" y="638" type="line"/>
      <point x="128" y="629"/>
      <point x="124" y="595" type="qcurve"/>
      <point x="121" y="560"/>
      <point x="120" y="503" type="qcurve"/>
      <point x="119" y="446"/>
      <point x="120" y="393" type="qcurve"/>
      <point x="121" y="358"/>
      <point x="125" y="320" type="qcurve"/>
      <point x="129" y="336"/>
      <point x="135" y="351" type="qcurve"/>
      <point x="149" y="391"/>
      <point x="202" y="457"/>
      <point x="227" y="474" type="qcurve"/>
      <point x="254" y="491"/>
      <point x="281" y="491" type="qcurve"/>
      <point x="309" y="490"/>
      <point x="337" y="468" type="qcurve"/>
      <point x="363" y="448"/>
      <point x="381" y="424" type="qcurve"/>
      <point x="400" y="400"/>
      <point x="420" y="358" type="qcurve"/>
      <point x="441" y="315"/>
      <point x="446" y="277" type="qcurve"/>
      <point x="452" y="239"/>
      <point x="432" y="161"/>
      <point x="410" y="129" type="qcurve"/>
      <point x="388" y="99"/>
      <point x="362" y="78" type="qcurve"/>
      <point x="336" y="57"/>
      <point x="312" y="45" type="qcurve"/>
      <point x="286" y="32"/>
      <point x="266" y="30" type="qcurve"/>
      <point x="246" y="27"/>
      <point x="217" y="30" type="qcurve"/>
      <point x="191" y="32"/>
      <point x="162" y="36" type="qcurve"/>
      <point x="164" y="20"/>
      <point x="164" y="13" type="qcurve"/>
      <point x="164" y="13"/>
      <point x="144" y="0" type="qcurve"/>
      <point x="128" y="-7"/>
      <point x="125" y="5" type="qcurve"/>
      <point x="124" y="8"/>
      <point x="123" y="20" type="qcurve"/>
      <point x="123" y="26"/>
    </contour>
  </outline>
</glyph>
<glyph name="c" format="1">
  <advance width="432"/>
  <unicode hex="0063"/>
  <outline>
    <contour>
      <point x="363" y="297" type="qcurve"/>
      <point x="353" y="319" type="line"/>
      <point x="343" y="341"/>
      <point x="333" y="361" type="qcurve"/>
      <point x="323" y="379"/>
      <point x="305" y="398" type="qcurve"/>
      <point x="289" y="414"/>
      <point x="254" y="418" type="qcurve"/>
      <point x="216" y="423"/>
      <point x="182" y="414" type="qcurve"/>
      <point x="148" y="405"/>
      <point x="137" y="396" type="qcurve"/>
      <point x="124" y="386"/>
      <point x="109" y="369" type="qcurve"/>
      <point x="96" y="353"/>
      <point x="87" y="327" type="qcurve"/>
      <point x="77" y="298"/>
      <point x="74" y="269" type="qcurve"/>
      <point x="70" y="240"/>
      <point x="80" y="174"/>
      <point x="96" y="142" type="qcurve"/>
      <point x="112" y="109"/>
      <point x="129" y="86" type="qcurve"/>
      <point x="145" y="64"/>
      <point x="155" y="57" type="qcurve"/>
      <point x="164" y="51"/>
      <point x="180" y="48" type="qcurve"/>
      <point x="196" y="45"/>
      <point x="207" y="47" type="qcurve"/>
      <point x="218" y="48"/>
      <point x="229" y="53" type="qcurve"/>
      <point x="240" y="57"/>
      <point x="254" y="65" type="qcurve"/>
      <point x="268" y="74"/>
      <point x="275" y="81" type="qcurve"/>
      <point x="283" y="88"/>
      <point x="290" y="97" type="qcurve"/>
      <point x="297" y="106"/>
      <point x="303" y="116" type="qcurve"/>
      <point x="309" y="129"/>
      <point x="317" y="145"/>
      <point x="320" y="151" type="qcurve"/>
      <point x="323" y="157" type="line"/>
      <point x="326" y="164"/>
      <point x="342" y="170"/>
      <point x="357" y="163"/>
      <point x="362" y="147"/>
      <point x="359" y="140" type="qcurve"/>
      <point x="356" y="134" type="line"/>
      <point x="353" y="127"/>
      <point x="345" y="111"/>
      <point x="338" y="98" type="qcurve"/>
      <point x="330" y="83"/>
      <point x="321" y="72" type="qcurve"/>
      <point x="313" y="62"/>
      <point x="303" y="52" type="qcurve"/>
      <point x="292" y="41"/>
      <point x="274" y="31" type="qcurve"/>
      <point x="258" y="21"/>
      <point x="243" y="15" type="qcurve"/>
      <point x="228" y="9"/>
      <point x="212" y="7" type="qcurve"/>
      <point x="195" y="5"/>
      <point x="172" y="9" type="qcurve"/>
      <point x="149" y="13"/>
      <point x="132" y="24" type="qcurve"/>
      <point x="116" y="35"/>
      <point x="97" y="62" type="qcurve"/>
      <point x="78" y="88"/>
      <point x="60" y="124" type="qcurve"/>
      <point x="42" y="162"/>
      <point x="29" y="240"/>
      <point x="34" y="274" type="qcurve"/>
      <point x="38" y="307"/>
      <point x="49" y="340" type="qcurve"/>
      <point x="61" y="373"/>
      <point x="79" y="395" type="qcurve"/>
      <point x="96" y="416"/>
      <point x="113" y="428" type="qcurve"/>
      <point x="131" y="441"/>
      <point x="172" y="452" type="qcurve"/>
      <point x="213" y="464"/>
      <point x="259" y="458" type="qcurve"/>
      <point x="308" y="452"/>
      <point x="333" y="426" type="qcurve"/>
      <point x="356" y="403"/>
      <point x="368" y="380" type="qcurve"/>
      <point x="379" y="359"/>
      <point x="389" y="336" type="qcurve"/>
      <point x="399" y="313" type="line"/>
      <point x="403" y="305"/>
      <point x="397" y="290"/>
      <point x="382" y="283"/>
      <point x="366" y="289"/>
    </contour>
  </outline>
</glyph>
<glyph name="d" format="1">
  <advance width="551"/>
  <unicode hex="0064"/>
  <outline>
    <contour>
      <point x="377" y="268" type="qcurve"/>
      <point x="377" y="246"/>
      <point x="379" y="223" type="qcurve"/>
      <point x="380" y="213"/>
      <point x="381" y="203" type="qcurve"/>
      <point x="383" y="181"/>
      <point x="385" y="159" type="qcurve"/>
      <point x="387" y="132"/>
      <point x="395" y="100" type="qcurve"/>
      <point x="404" y="66"/>
      <point x="408" y="54" type="qcurve"/>
      <point x="408" y="54"/>
      <point x="408" y="53" type="qcurve"/>
      <point x="414" y="55"/>
      <point x="421" y="59" type="qcurve"/>
      <point x="443" y="70"/>
      <point x="473" y="94"/>
      <point x="478" y="101" type="qcurve"/>
      <point x="484" y="109" type="line"/>
      <point x="489" y="115"/>
      <point x="506" y="117"/>
      <point x="519" y="107"/>
      <point x="520" y="90"/>
      <point x="515" y="84" type="qcurve"/>
      <point x="509" y="76" type="line"/>
      <point x="502" y="66"/>
      <point x="466" y="36"/>
      <point x="439" y="23" type="qcurve"/>
      <point x="438" y="23"/>
      <point x="426" y="16"/>
      <point x="422" y="14"/>
      <point x="411" y="10"/>
      <point x="404" y="10"/>
      <point x="395" y="12"/>
      <point x="390" y="14" type="qcurve"/>
      <point x="376" y="21"/>
      <point x="370" y="42" type="qcurve"/>
      <point x="365" y="55"/>
      <point x="357" y="90" type="qcurve"/>
      <point x="350" y="114"/>
      <point x="347" y="136" type="qcurve"/>
      <point x="338" y="111"/>
      <point x="326" y="89" type="qcurve"/>
      <point x="306" y="51"/>
      <point x="290" y="34" type="qcurve"/>
      <point x="272" y="17"/>
      <point x="240" y="5" type="qcurve"/>
      <point x="206" y="-8"/>
      <point x="183" y="-2" type="qcurve"/>
      <point x="160" y="4"/>
      <point x="133" y="33" type="qcurve"/>
      <point x="109" y="59"/>
      <point x="91" y="94" type="qcurve"/>
      <point x="73" y="127"/>
      <point x="58" y="165" type="qcurve"/>
      <point x="43" y="204"/>
      <point x="36" y="246" type="qcurve"/>
      <point x="29" y="289"/>
      <point x="35" y="321" type="qcurve"/>
      <point x="41" y="354"/>
      <point x="55" y="376" type="qcurve"/>
      <point x="70" y="400"/>
      <point x="138" y="444"/>
      <point x="187" y="449" type="qcurve"/>
      <point x="236" y="453"/>
      <point x="279" y="435" type="qcurve"/>
      <point x="318" y="420"/>
      <point x="329" y="415" type="qcurve"/>
      <point x="330" y="415"/>
      <point x="330" y="415"/>
      <point x="331" y="415" type="qcurve"/>
      <point x="330" y="432"/>
      <point x="329" y="450" type="qcurve"/>
      <point x="327" y="498"/>
      <point x="328" y="544" type="qcurve"/>
      <point x="330" y="590"/>
      <point x="335" y="611" type="qcurve"/>
      <point x="336" y="613"/>
      <point x="340" y="617"/>
      <point x="350" y="628"/>
      <point x="360" y="633"/>
      <point x="371" y="637"/>
      <point x="378" y="629"/>
      <point x="380" y="611"/>
      <point x="379" y="594" type="qcurve"/>
      <point x="379" y="574"/>
      <point x="378" y="543" type="qcurve"/>
      <point x="378" y="512"/>
      <point x="380" y="486" type="qcurve"/>
      <point x="381" y="459"/>
      <point x="382" y="380"/>
      <point x="381" y="335" type="qcurve"/>
      <point x="380" y="298"/>
    </contour>
    <contour>
      <point x="333" y="372" type="qcurve"/>
      <point x="329" y="372"/>
      <point x="326" y="374" type="qcurve"/>
      <point x="315" y="378" type="line"/>
      <point x="304" y="382"/>
      <point x="264" y="398" type="qcurve"/>
      <point x="229" y="412"/>
      <point x="152" y="405"/>
      <point x="126" y="388" type="qcurve"/>
      <point x="99" y="371"/>
      <point x="89" y="355" type="qcurve"/>
      <point x="79" y="339"/>
      <point x="74" y="314" type="qcurve"/>
      <point x="69" y="289"/>
      <point x="76" y="253" type="qcurve"/>
      <point x="82" y="215"/>
      <point x="96" y="180" type="qcurve"/>
      <point x="109" y="144"/>
      <point x="126" y="112" type="qcurve"/>
      <point x="142" y="82"/>
      <point x="163" y="60" type="qcurve"/>
      <point x="181" y="40"/>
      <point x="193" y="37" type="qcurve"/>
      <point x="204" y="34"/>
      <point x="226" y="42" type="qcurve"/>
      <point x="250" y="51"/>
      <point x="261" y="63" type="qcurve"/>
      <point x="273" y="75"/>
      <point x="291" y="108" type="qcurve"/>
      <point x="309" y="141"/>
      <point x="320" y="182" type="qcurve"/>
      <point x="324" y="198"/>
      <point x="327" y="213" type="qcurve"/>
      <point x="333" y="237"/>
      <point x="335" y="258" type="qcurve"/>
      <point x="336" y="263"/>
      <point x="337" y="269" type="qcurve"/>
      <point x="337" y="280"/>
      <point x="337" y="289" type="qcurve"/>
      <point x="337" y="319"/>
      <point x="334" y="361" type="qcurve"/>
      <point x="334" y="366"/>
    </contour>
  </outline>
</glyph>
<glyph name="e" format="1">
  <advance width="440"/>
  <unicode hex="0065"/>
  <outline>
    <contour>
      <point x="72" y="262" type="qcurve"/>
      <point x="78" y="261" type="line"/>
      <point x="84" y="261"/>
      <point x="137" y="263"/>
      <point x="188" y="270" type="qcurve"/>
      <point x="238" y="278"/>
      <point x="262" y="287" type="qcurve"/>
      <point x="285" y="296"/>
      <point x="297" y="307" type="qcurve"/>
      <point x="310" y="319"/>
      <point x="317" y="332" type="qcurve"/>
      <point x="323" y="341"/>
      <point x="322" y="352" type="qcurve"/>
      <point x="320" y="366"/>
      <point x="314" y="379" type="qcurve"/>
      <point x="309" y="391"/>
      <point x="289" y="409" type="qcurve"/>
      <point x="272" y="426"/>
      <point x="250" y="430" type="qcurve"/>
      <point x="228" y="434"/>
      <point x="190" y="420" type="qcurve"/>
      <point x="150" y="406"/>
      <point x="131" y="388" type="qcurve"/>
      <point x="110" y="368"/>
      <point x="96" y="346" type="qcurve"/>
      <point x="83" y="323"/>
      <point x="77" y="296" type="qcurve"/>
      <point x="73" y="279"/>
    </contour>
    <contour>
      <point x="75" y="221" type="line"/>
      <point x="79" y="206"/>
      <point x="84" y="190" type="qcurve"/>
      <point x="94" y="162"/>
      <point x="119" y="128" type="qcurve"/>
      <point x="144" y="94"/>
      <point x="165" y="72" type="qcurve"/>
      <point x="186" y="52"/>
      <point x="202" y="44" type="qcurve"/>
      <point x="215" y="36"/>
      <point x="232" y="37" type="qcurve"/>
      <point x="250" y="37"/>
      <point x="267" y="43" type="qcurve"/>
      <point x="285" y="49"/>
      <point x="306" y="63"/>
      <point x="322" y="79" type="qcurve"/>
      <point x="338" y="95"/>
      <point x="348" y="110" type="qcurve"/>
      <point x="359" y="126"/>
      <point x="365" y="136" type="qcurve"/>
      <point x="371" y="147" type="line"/>
      <point x="375" y="154"/>
      <point x="391" y="158"/>
      <point x="405" y="150"/>
      <point x="410" y="134"/>
      <point x="405" y="127" type="qcurve"/>
      <point x="399" y="116" type="line"/>
      <point x="392" y="104"/>
      <point x="381" y="87" type="qcurve"/>
      <point x="369" y="70"/>
      <point x="351" y="51" type="qcurve"/>
      <point x="332" y="31"/>
      <point x="302" y="13"/>
      <point x="280" y="5" type="qcurve"/>
      <point x="257" y="-3"/>
      <point x="232" y="-3" type="qcurve"/>
      <point x="205" y="-4"/>
      <point x="183" y="8" type="qcurve"/>
      <point x="162" y="19"/>
      <point x="137" y="44" type="qcurve"/>
      <point x="113" y="68"/>
      <point x="86" y="105" type="qcurve"/>
      <point x="59" y="143"/>
      <point x="35" y="209"/>
      <point x="33" y="240" type="qcurve"/>
      <point x="30" y="272"/>
      <point x="45" y="338"/>
      <point x="62" y="366" type="qcurve"/>
      <point x="79" y="394"/>
      <point x="103" y="417" type="qcurve"/>
      <point x="129" y="441"/>
      <point x="177" y="458" type="qcurve"/>
      <point x="225" y="475"/>
      <point x="257" y="469" type="qcurve"/>
      <point x="291" y="463"/>
      <point x="317" y="438" type="qcurve"/>
      <point x="342" y="415"/>
      <point x="351" y="395" type="qcurve"/>
      <point x="359" y="377"/>
      <point x="362" y="356" type="qcurve"/>
      <point x="364" y="332"/>
      <point x="352" y="311" type="qcurve"/>
      <point x="341" y="294"/>
      <point x="324" y="278" type="qcurve"/>
      <point x="307" y="262"/>
      <point x="277" y="250" type="qcurve"/>
      <point x="248" y="239"/>
      <point x="194" y="231" type="qcurve"/>
      <point x="140" y="223"/>
      <point x="84" y="221"/>
      <point x="76" y="221" type="qcurve"/>
    </contour>
  </outline>
</glyph>
<glyph name="f" format="1">
  <advance width="442"/>
  <unicode hex="0066"/>
  <outline>
    <contour>
      <point x="43" y="414" type="qcurve"/>
      <point x="65" y="426" type="line"/>
      <point x="89" y="439"/>
      <point x="135" y="452" type="qcurve"/>
      <point x="154" y="457"/>
      <point x="170" y="461" type="qcurve"/>
      <point x="171" y="492"/>
      <point x="174" y="511" type="qcurve"/>
      <point x="179" y="536"/>
      <point x="193" y="569" type="qcurve"/>
      <point x="207" y="603"/>
      <point x="229" y="623" type="qcurve"/>
      <point x="250" y="642"/>
      <point x="299" y="661"/>
      <point x="327" y="661" type="qcurve"/>
      <point x="355" y="661"/>
      <point x="379" y="650" type="qcurve"/>
      <point x="398" y="641" type="line"/>
      <point x="406" y="638"/>
      <point x="412" y="622"/>
      <point x="405" y="607"/>
      <point x="389" y="601"/>
      <point x="382" y="605" type="qcurve"/>
      <point x="362" y="614" type="line"/>
      <point x="346" y="621"/>
      <point x="327" y="621" type="qcurve"/>
      <point x="307" y="621"/>
      <point x="271" y="608"/>
      <point x="256" y="593" type="qcurve"/>
      <point x="241" y="580"/>
      <point x="229" y="553" type="qcurve"/>
      <point x="218" y="524"/>
      <point x="213" y="503" type="qcurve"/>
      <point x="211" y="491"/>
      <point x="210" y="469" type="qcurve"/>
      <point x="211" y="469"/>
      <point x="212" y="469" type="qcurve"/>
      <point x="244" y="474"/>
      <point x="255" y="473" type="qcurve"/>
      <point x="264" y="473"/>
      <point x="290" y="474" type="qcurve"/>
      <point x="318" y="475"/>
      <point x="346" y="476" type="qcurve"/>
      <point x="375" y="477" type="line"/>
      <point x="383" y="477"/>
      <point x="395" y="466"/>
      <point x="396" y="449"/>
      <point x="385" y="437"/>
      <point x="376" y="437" type="qcurve"/>
      <point x="348" y="436" type="line"/>
      <point x="319" y="435"/>
      <point x="292" y="434" type="qcurve"/>
      <point x="264" y="433"/>
      <point x="254" y="433" type="qcurve"/>
      <point x="246" y="433"/>
      <point x="218" y="429" type="qcurve"/>
      <point x="214" y="429"/>
      <point x="210" y="428" type="qcurve"/>
      <point x="210" y="386"/>
      <point x="212" y="348" type="qcurve"/>
      <point x="215" y="306"/>
      <point x="215" y="263" type="qcurve"/>
      <point x="214" y="222"/>
      <point x="215" y="202" type="qcurve"/>
      <point x="215" y="183"/>
      <point x="217" y="165" type="qcurve"/>
      <point x="220" y="146"/>
      <point x="221" y="134" type="qcurve"/>
      <point x="222" y="123"/>
      <point x="225" y="100" type="qcurve"/>
      <point x="230" y="75"/>
      <point x="230" y="62" type="qcurve"/>
      <point x="230" y="51"/>
      <point x="230" y="41" type="qcurve"/>
      <point x="230" y="24" type="line"/>
      <point x="230" y="15"/>
      <point x="229" y="5" type="qcurve"/>
      <point x="227" y="-2" type="line"/>
      <point x="226" y="-10"/>
      <point x="212" y="-20"/>
      <point x="196" y="-17"/>
      <point x="186" y="-3"/>
      <point x="188" y="5" type="qcurve"/>
      <point x="189" y="13" type="line"/>
      <point x="190" y="19"/>
      <point x="190" y="24" type="qcurve"/>
      <point x="190" y="41" type="line"/>
      <point x="190" y="50"/>
      <point x="190" y="61" type="qcurve"/>
      <point x="190" y="70"/>
      <point x="186" y="91" type="qcurve"/>
      <point x="182" y="119"/>
      <point x="181" y="131" type="qcurve"/>
      <point x="180" y="142"/>
      <point x="178" y="160" type="qcurve"/>
      <point x="175" y="180"/>
      <point x="175" y="201" type="qcurve"/>
      <point x="174" y="222"/>
      <point x="175" y="264" type="qcurve"/>
      <point x="175" y="305"/>
      <point x="173" y="346" type="qcurve"/>
      <point x="171" y="381"/>
      <point x="170" y="419" type="qcurve"/>
      <point x="158" y="416"/>
      <point x="146" y="413" type="qcurve"/>
      <point x="104" y="401"/>
      <point x="84" y="390" type="qcurve"/>
      <point x="61" y="379" type="line"/>
      <point x="54" y="375"/>
      <point x="38" y="380"/>
      <point x="30" y="394"/>
      <point x="35" y="410"/>
    </contour>
  </outline>
</glyph>
<glyph name="g" format="1">
  <advance width="503"/>
  <unicode hex="0067"/>
  <outline>
    <contour>
      <point x="342" y="42" type="qcurve"/>
      <point x="313" y="20"/>
      <point x="278" y="-7" type="qcurve"/>
      <point x="192" y="-75"/>
      <point x="168" y="-114" type="qcurve"/>
      <point x="148" y="-147"/>
      <point x="147" y="-158" type="qcurve"/>
      <point x="149" y="-165"/>
      <point x="165" y="-177" type="qcurve"/>
      <point x="184" y="-190"/>
      <point x="213" y="-193" type="qcurve"/>
      <point x="243" y="-195"/>
      <point x="274" y="-178" type="qcurve"/>
      <point x="305" y="-162"/>
      <point x="320" y="-127" type="qcurve"/>
      <point x="337" y="-88"/>
      <point x="341" y="-43" type="qcurve"/>
      <point x="345" y="-4"/>
    </contour>
    <contour>
      <point x="356" y="416" type="qcurve"/>
      <point x="347" y="415" type="line"/>
      <point x="338" y="414"/>
      <point x="287" y="409" type="qcurve"/>
      <point x="240" y="404"/>
      <point x="181" y="380" type="qcurve"/>
      <point x="124" y="356"/>
      <point x="92" y="320" type="qcurve"/>
      <point x="64" y="288"/>
      <point x="75" y="242" type="qcurve"/>
      <point x="88" y="191"/>
      <point x="113" y="163" type="qcurve"/>
      <point x="137" y="137"/>
      <point x="178" y="133" type="qcurve"/>
      <point x="218" y="129"/>
      <point x="245" y="159" type="qcurve"/>
      <point x="277" y="192"/>
      <point x="294" y="249" type="qcurve"/>
      <point x="313" y="311"/>
      <point x="328" y="369"/>
      <point x="330" y="384" type="qcurve"/>
      <point x="332" y="390"/>
      <point x="333" y="392" type="qcurve"/>
      <point x="342" y="409"/>
      <point x="367" y="358" type="qcurve"/>
      <point x="362" y="328"/>
      <point x="363" y="264" type="qcurve"/>
      <point x="365" y="199"/>
      <point x="370" y="157" type="qcurve"/>
      <point x="373" y="139"/>
      <point x="375" y="118" type="qcurve"/>
      <point x="384" y="124"/>
      <point x="391" y="130" type="qcurve"/>
      <point x="440" y="165" type="line"/>
      <point x="446" y="170"/>
      <point x="463" y="168"/>
      <point x="473" y="155"/>
      <point x="470" y="138"/>
      <point x="464" y="133" type="qcurve"/>
      <point x="415" y="98" type="line"/>
      <point x="400" y="87"/>
      <point x="381" y="72" type="qcurve"/>
      <point x="381" y="72"/>
      <point x="380" y="71"/>
      <point x="380" y="71" type="qcurve"/>
      <point x="380" y="65"/>
      <point x="381" y="59" type="qcurve"/>
      <point x="386" y="3"/>
      <point x="381" y="-47" type="qcurve"/>
      <point x="376" y="-98"/>
      <point x="357" y="-143" type="qcurve"/>
      <point x="336" y="-191"/>
      <point x="293" y="-213" type="qcurve"/>
      <point x="251" y="-236"/>
      <point x="210" y="-233" type="qcurve"/>
      <point x="169" y="-229"/>
      <point x="141" y="-209" type="qcurve"/>
      <point x="111" y="-187"/>
      <point x="107" y="-164" type="qcurve"/>
      <point x="105" y="-150"/>
      <point x="118" y="-119"/>
      <point x="134" y="-93" type="qcurve"/>
      <point x="162" y="-48"/>
      <point x="253" y="24" type="qcurve"/>
      <point x="301" y="61"/>
      <point x="337" y="89" type="qcurve"/>
      <point x="338" y="89" type="line"/>
      <point x="337" y="91"/>
      <point x="337" y="91" type="qcurve"/>
      <point x="334" y="125"/>
      <point x="331" y="153" type="qcurve"/>
      <point x="327" y="180"/>
      <point x="325" y="217" type="qcurve"/>
      <point x="306" y="165"/>
      <point x="274" y="131" type="qcurve"/>
      <point x="233" y="88"/>
      <point x="175" y="93" type="qcurve"/>
      <point x="118" y="99"/>
      <point x="84" y="136" type="qcurve"/>
      <point x="51" y="172"/>
      <point x="36" y="233" type="qcurve"/>
      <point x="20" y="299"/>
      <point x="62" y="346" type="qcurve"/>
      <point x="100" y="389"/>
      <point x="165" y="417" type="qcurve"/>
      <point x="230" y="444"/>
      <point x="283" y="449" type="qcurve"/>
      <point x="334" y="454"/>
      <point x="343" y="455" type="qcurve"/>
      <point x="352" y="455" type="line"/>
      <point x="360" y="456"/>
      <point x="373" y="445"/>
      <point x="375" y="429"/>
      <point x="364" y="416"/>
    </contour>
  </outline>
</glyph>
<glyph name="h" format="1">
  <advance width="439"/>
  <unicode hex="0068"/>
  <outline>
    <contour>
      <point x="84" y="680" type="qcurve"/>
      <point x="81" y="671" type="line"/>
      <point x="79" y="664"/>
      <point x="75" y="637" type="qcurve"/>
      <point x="72" y="609"/>
      <point x="72" y="560" type="qcurve"/>
      <point x="72" y="510"/>
      <point x="74" y="459" type="qcurve"/>
      <point x="76" y="407"/>
      <point x="79" y="346" type="qcurve"/>
      <point x="81" y="309"/>
      <point x="82" y="270" type="qcurve"/>
      <point x="97" y="312"/>
      <point x="114" y="344" type="qcurve"/>
      <point x="135" y="382"/>
      <point x="152" y="405" type="qcurve"/>
      <point x="171" y="429"/>
      <point x="189" y="440" type="qcurve"/>
      <point x="209" y="453"/>
      <point x="224" y="453" type="qcurve"/>
      <point x="241" y="453"/>
      <point x="263" y="433" type="qcurve"/>
      <point x="282" y="416"/>
      <point x="301" y="378" type="qcurve"/>
      <point x="319" y="341"/>
      <point x="326" y="297" type="qcurve"/>
      <point x="333" y="256"/>
      <point x="338" y="217" type="qcurve"/>
      <point x="343" y="180"/>
      <point x="356" y="112"/>
      <point x="363" y="83" type="qcurve"/>
      <point x="370" y="57"/>
      <point x="373" y="45" type="qcurve"/>
      <point x="374" y="44"/>
      <point x="377" y="44" type="qcurve"/>
      <point x="392" y="40" type="line"/>
      <point x="400" y="37"/>
      <point x="408" y="23"/>
      <point x="404" y="7"/>
      <point x="390" y="-1"/>
      <point x="382" y="1" type="qcurve"/>
      <point x="367" y="5" type="line"/>
      <point x="339" y="12"/>
      <point x="334" y="34" type="qcurve"/>
      <point x="332" y="45"/>
      <point x="324" y="74" type="qcurve"/>
      <point x="317" y="103"/>
      <point x="303" y="173"/>
      <point x="298" y="212" type="qcurve"/>
      <point x="293" y="250"/>
      <point x="286" y="291" type="qcurve"/>
      <point x="280" y="329"/>
      <point x="265" y="361" type="qcurve"/>
      <point x="250" y="392"/>
      <point x="236" y="404" type="qcurve"/>
      <point x="228" y="411"/>
      <point x="223" y="413" type="qcurve"/>
      <point x="219" y="412"/>
      <point x="211" y="407" type="qcurve"/>
      <point x="198" y="399"/>
      <point x="184" y="380" type="qcurve"/>
      <point x="168" y="360"/>
      <point x="131" y="290"/>
      <point x="115" y="243" type="qcurve"/>
      <point x="105" y="211"/>
      <point x="99" y="175" type="qcurve"/>
      <point x="97" y="160"/>
      <point x="95" y="143" type="qcurve"/>
      <point x="92" y="113"/>
      <point x="92" y="97" type="qcurve"/>
      <point x="98" y="90"/>
      <point x="98" y="81" type="qcurve"/>
      <point x="97" y="74" type="line"/>
      <point x="97" y="69"/>
      <point x="99" y="57" type="qcurve"/>
      <point x="101" y="42"/>
      <point x="101" y="32" type="qcurve"/>
      <point x="101" y="22" type="line"/>
      <point x="102" y="14"/>
      <point x="90" y="2"/>
      <point x="74" y="1"/>
      <point x="62" y="13"/>
      <point x="61" y="21" type="qcurve"/>
      <point x="61" y="30" type="line"/>
      <point x="61" y="39"/>
      <point x="57" y="64"/>
      <point x="57" y="72" type="qcurve"/>
      <point x="54" y="73"/>
      <point x="53" y="77" type="qcurve"/>
      <point x="52" y="80"/>
      <point x="51" y="84" type="qcurve"/>
      <point x="51" y="86"/>
      <point x="51" y="89" type="qcurve"/>
      <point x="47" y="108"/>
      <point x="45" y="135" type="qcurve"/>
      <point x="44" y="148"/>
      <point x="44" y="169" type="qcurve"/>
      <point x="43" y="192"/>
      <point x="43" y="223" type="qcurve"/>
      <point x="42" y="284"/>
      <point x="39" y="343" type="qcurve"/>
      <point x="36" y="406"/>
      <point x="34" y="457" type="qcurve"/>
      <point x="32" y="509"/>
      <point x="32" y="560" type="qcurve"/>
      <point x="32" y="612"/>
      <point x="36" y="642" type="qcurve"/>
      <point x="40" y="672"/>
      <point x="43" y="683" type="qcurve"/>
      <point x="46" y="692" type="line"/>
      <point x="48" y="700"/>
      <point x="63" y="707"/>
      <point x="79" y="702"/>
      <point x="87" y="687"/>
    </contour>
  </outline>
</glyph>
<glyph name="i" format="1">
  <advance width="268"/>
  <unicode hex="0069"/>
  <outline>
    <contour>
      <point x="66" y="647" type="qcurve"/>
      <point x="69" y="644" type="line"/>
      <point x="75" y="638"/>
      <point x="75" y="621"/>
      <point x="64" y="610"/>
      <point x="47" y="610"/>
      <point x="41" y="615" type="qcurve"/>
      <point x="38" y="618" type="line"/>
      <point x="32" y="624"/>
      <point x="32" y="641"/>
      <point x="44" y="653"/>
      <point x="61" y="653"/>
    </contour>
    <contour>
      <point x="80" y="435" type="qcurve"/>
      <point x="88" y="418" type="line"/>
      <point x="99" y="395"/>
      <point x="93" y="346" type="qcurve"/>
      <point x="88" y="303"/>
      <point x="80" y="262" type="qcurve"/>
      <point x="72" y="224"/>
      <point x="72" y="193" type="qcurve"/>
      <point x="72" y="161"/>
      <point x="74" y="141" type="qcurve"/>
      <point x="77" y="122"/>
      <point x="82" y="105" type="qcurve"/>
      <point x="86" y="91"/>
      <point x="105" y="74"/>
      <point x="114" y="71" type="qcurve"/>
      <point x="120" y="71"/>
      <point x="137" y="82" type="qcurve"/>
      <point x="159" y="96"/>
      <point x="172" y="121" type="qcurve"/>
      <point x="188" y="151"/>
      <point x="193" y="162" type="qcurve"/>
      <point x="198" y="173" type="line"/>
      <point x="202" y="181"/>
      <point x="218" y="186"/>
      <point x="232" y="180"/>
      <point x="238" y="164"/>
      <point x="235" y="157" type="qcurve"/>
      <point x="230" y="145" type="line"/>
      <point x="224" y="133"/>
      <point x="208" y="102" type="qcurve"/>
      <point x="189" y="68"/>
      <point x="159" y="48" type="qcurve"/>
      <point x="126" y="27"/>
      <point x="104" y="33" type="qcurve"/>
      <point x="86" y="37"/>
      <point x="69" y="53" type="qcurve"/>
      <point x="51" y="69"/>
      <point x="44" y="93" type="qcurve"/>
      <point x="37" y="114"/>
      <point x="35" y="137" type="qcurve"/>
      <point x="32" y="159"/>
      <point x="32" y="193" type="qcurve"/>
      <point x="32" y="227"/>
      <point x="40" y="270" type="qcurve"/>
      <point x="49" y="309"/>
      <point x="54" y="351" type="qcurve"/>
      <point x="58" y="388"/>
      <point x="52" y="400" type="qcurve"/>
      <point x="44" y="418" type="line"/>
      <point x="40" y="425"/>
      <point x="45" y="441"/>
      <point x="60" y="448"/>
      <point x="76" y="443"/>
    </contour>
  </outline>
</glyph>
<glyph name="j" format="1">
  <advance width="308"/>
  <unicode hex="006A"/>
  <outline>
    <contour>
      <point x="221" y="640" type="qcurve"/>
      <point x="220" y="648"/>
      <point x="230" y="661"/>
      <point x="238" y="662" type="qcurve"/>
      <point x="246" y="663" type="line"/>
      <point x="257" y="664"/>
      <point x="275" y="648"/>
      <point x="276" y="637" type="qcurve"/>
      <point x="277" y="622"/>
      <point x="264" y="603" type="qcurve"/>
      <point x="255" y="590" type="line"/>
      <point x="251" y="583"/>
      <point x="234" y="579"/>
      <point x="221" y="589"/>
      <point x="217" y="605"/>
      <point x="222" y="612" type="qcurve"/>
      <point x="231" y="625" type="line"/>
      <point x="222" y="630"/>
    </contour>
    <contour>
      <point x="266" y="438" type="qcurve"/>
      <point x="267" y="429" type="line"/>
      <point x="268" y="421"/>
      <point x="270" y="389" type="qcurve"/>
      <point x="273" y="357"/>
      <point x="274" y="289" type="qcurve"/>
      <point x="274" y="223"/>
      <point x="274" y="136"/>
      <point x="273" y="93" type="qcurve"/>
      <point x="272" y="51"/>
      <point x="269" y="14" type="qcurve"/>
      <point x="266" y="-24"/>
      <point x="255" y="-59" type="qcurve"/>
      <point x="244" y="-95"/>
      <point x="233" y="-112" type="qcurve"/>
      <point x="220" y="-131"/>
      <point x="194" y="-148" type="qcurve"/>
      <point x="169" y="-164"/>
      <point x="141" y="-170" type="qcurve"/>
      <point x="112" y="-176"/>
      <point x="76" y="-163" type="qcurve"/>
      <point x="45" y="-151" type="line"/>
      <point x="37" y="-149"/>
      <point x="30" y="-133"/>
      <point x="36" y="-118"/>
      <point x="51" y="-111"/>
      <point x="59" y="-114" type="qcurve"/>
      <point x="90" y="-125" type="line"/>
      <point x="115" y="-135"/>
      <point x="133" y="-131" type="qcurve"/>
      <point x="153" y="-126"/>
      <point x="173" y="-114" type="qcurve"/>
      <point x="192" y="-102"/>
      <point x="199" y="-90" type="qcurve"/>
      <point x="208" y="-77"/>
      <point x="217" y="-47" type="qcurve"/>
      <point x="227" y="-17"/>
      <point x="229" y="17" type="qcurve"/>
      <point x="232" y="53"/>
      <point x="233" y="94" type="qcurve"/>
      <point x="234" y="136"/>
      <point x="234" y="179" type="qcurve"/>
      <point x="234" y="223"/>
      <point x="234" y="289" type="qcurve"/>
      <point x="234" y="355"/>
      <point x="231" y="386" type="qcurve"/>
      <point x="228" y="417"/>
      <point x="227" y="426" type="qcurve"/>
      <point x="226" y="435" type="line"/>
      <point x="226" y="443"/>
      <point x="237" y="456"/>
      <point x="253" y="457"/>
      <point x="266" y="446"/>
    </contour>
  </outline>
</glyph>
<glyph name="k" format="1">
  <advance width="526"/>
  <unicode hex="006B"/>
  <outline>
    <contour>
      <point x="133" y="288" type="qcurve"/>
      <point x="146" y="293"/>
      <point x="163" y="301" type="qcurve"/>
      <point x="192" y="315"/>
      <point x="217" y="342" type="qcurve"/>
      <point x="241" y="368"/>
      <point x="242" y="381" type="qcurve"/>
      <point x="243" y="390"/>
      <point x="238" y="395" type="qcurve"/>
      <point x="231" y="400"/>
      <point x="224" y="398" type="qcurve"/>
      <point x="212" y="396"/>
      <point x="196" y="383" type="qcurve"/>
      <point x="179" y="367"/>
      <point x="147" y="318"/>
    </contour>
    <contour>
      <point x="84" y="276" type="qcurve"/>
      <point x="89" y="290"/>
      <point x="95" y="303" type="qcurve"/>
      <point x="111" y="336"/>
      <point x="129" y="365" type="qcurve"/>
      <point x="148" y="394"/>
      <point x="170" y="413" type="qcurve"/>
      <point x="194" y="433"/>
      <point x="216" y="438" type="qcurve"/>
      <point x="242" y="443"/>
      <point x="263" y="426" type="qcurve"/>
      <point x="285" y="408"/>
      <point x="282" y="377" type="qcurve"/>
      <point x="279" y="350"/>
      <point x="246" y="315" type="qcurve"/>
      <point x="216" y="282"/>
      <point x="180" y="265" type="qcurve"/>
      <point x="148" y="250"/>
      <point x="127" y="244" type="qcurve"/>
      <point x="150" y="222"/>
      <point x="181" y="189" type="qcurve"/>
      <point x="214" y="152"/>
      <point x="242" y="114" type="qcurve"/>
      <point x="268" y="78"/>
      <point x="283" y="63" type="qcurve"/>
      <point x="295" y="50"/>
      <point x="314" y="42" type="qcurve"/>
      <point x="328" y="37"/>
      <point x="344" y="46" type="qcurve"/>
      <point x="364" y="58"/>
      <point x="377" y="81" type="qcurve"/>
      <point x="393" y="108"/>
      <point x="405" y="136" type="qcurve"/>
      <point x="417" y="164"/>
      <point x="429" y="198" type="qcurve"/>
      <point x="441" y="232"/>
      <point x="449" y="250" type="qcurve"/>
      <point x="456" y="268" type="line"/>
      <point x="459" y="276"/>
      <point x="474" y="282"/>
      <point x="489" y="276"/>
      <point x="496" y="261"/>
      <point x="493" y="253" type="qcurve"/>
      <point x="486" y="235" type="line"/>
      <point x="479" y="217"/>
      <point x="466" y="183" type="qcurve"/>
      <point x="454" y="149"/>
      <point x="441" y="120" type="qcurve"/>
      <point x="428" y="90"/>
      <point x="412" y="61" type="qcurve"/>
      <point x="393" y="29"/>
      <point x="365" y="12" type="qcurve"/>
      <point x="332" y="-8"/>
      <point x="300" y="5" type="qcurve"/>
      <point x="272" y="16"/>
      <point x="254" y="35" type="qcurve"/>
      <point x="237" y="52"/>
      <point x="210" y="90" type="qcurve"/>
      <point x="183" y="127"/>
      <point x="151" y="162" type="qcurve"/>
      <point x="127" y="188"/>
      <point x="107" y="208" type="qcurve"/>
      <point x="101" y="176"/>
      <point x="94" y="136" type="qcurve"/>
      <point x="87" y="88"/>
      <point x="85" y="56" type="qcurve"/>
      <point x="85" y="44"/>
      <point x="62" y="30" type="qcurve"/>
      <point x="44" y="19"/>
      <point x="44" y="30" type="qcurve"/>
      <point x="44" y="35"/>
      <point x="42" y="52" type="qcurve"/>
      <point x="40" y="71"/>
      <point x="38" y="125"/>
      <point x="38" y="161" type="qcurve"/>
      <point x="38" y="197"/>
      <point x="37" y="276"/>
      <point x="37" y="317" type="qcurve"/>
      <point x="36" y="357"/>
      <point x="34" y="406" type="qcurve"/>
      <point x="31" y="456"/>
      <point x="32" y="500" type="qcurve"/>
      <point x="34" y="543"/>
      <point x="40" y="582" type="qcurve"/>
      <point x="46" y="621"/>
      <point x="54" y="645" type="qcurve"/>
      <point x="62" y="668" type="line"/>
      <point x="64" y="675"/>
      <point x="79" y="683"/>
      <point x="95" y="677"/>
      <point x="102" y="662"/>
      <point x="100" y="655" type="qcurve"/>
      <point x="92" y="632" type="line"/>
      <point x="85" y="612"/>
      <point x="79" y="576" type="qcurve"/>
      <point x="74" y="540"/>
      <point x="72" y="498" type="qcurve"/>
      <point x="71" y="457"/>
      <point x="74" y="408" type="qcurve"/>
      <point x="76" y="358"/>
      <point x="77" y="317" type="qcurve"/>
      <point x="77" y="298"/>
      <point x="77" y="272" type="qcurve"/>
      <point x="80" y="275"/>
    </contour>
  </outline>
</glyph>
<glyph name="l" format="1">
  <advance width="219"/>
  <unicode hex="006C"/>
  <outline>
    <contour>
      <point x="81" y="668" type="qcurve"/>
      <point x="80" y="651" type="line"/>
      <point x="78" y="635"/>
      <point x="74" y="538"/>
      <point x="74" y="485" type="qcurve"/>
      <point x="75" y="430"/>
      <point x="74" y="317"/>
      <point x="73" y="265" type="qcurve"/>
      <point x="71" y="214"/>
      <point x="74" y="184" type="qcurve"/>
      <point x="78" y="152"/>
      <point x="82" y="129" type="qcurve"/>
      <point x="85" y="109"/>
      <point x="89" y="99" type="qcurve"/>
      <point x="95" y="88"/>
      <point x="103" y="77" type="qcurve"/>
      <point x="105" y="75"/>
      <point x="110" y="77" type="qcurve"/>
      <point x="124" y="80"/>
      <point x="137" y="92" type="qcurve"/>
      <point x="155" y="107" type="line"/>
      <point x="161" y="113"/>
      <point x="177" y="111"/>
      <point x="188" y="99"/>
      <point x="187" y="83"/>
      <point x="181" y="77" type="qcurve"/>
      <point x="164" y="62" type="line"/>
      <point x="143" y="43"/>
      <point x="120" y="38" type="qcurve"/>
      <point x="89" y="30"/>
      <point x="71" y="53" type="qcurve"/>
      <point x="61" y="67"/>
      <point x="54" y="81" type="qcurve"/>
      <point x="46" y="97"/>
      <point x="42" y="123" type="qcurve"/>
      <point x="38" y="146"/>
      <point x="35" y="179" type="qcurve"/>
      <point x="31" y="213"/>
      <point x="33" y="266" type="qcurve"/>
      <point x="34" y="317"/>
      <point x="35" y="374" type="qcurve"/>
      <point x="35" y="431"/>
      <point x="34" y="484" type="qcurve"/>
      <point x="34" y="539"/>
      <point x="38" y="638"/>
      <point x="40" y="655" type="qcurve"/>
      <point x="42" y="672" type="line"/>
      <point x="42" y="680"/>
      <point x="55" y="691"/>
      <point x="72" y="689"/>
      <point x="82" y="676"/>
    </contour>
  </outline>
</glyph>
